<?xml version="1.0" standalone="no"?>
<!DOCTYPE svg PUBLIC "-//W3C//DTD SVG 20010904//EN"
 "http://www.w3.org/TR/2001/REC-SVG-20010904/DTD/svg10.dtd">
<svg version="1.0" xmlns="http://www.w3.org/2000/svg"
 width="224.000000pt" height="225.000000pt" viewBox="0 0 224.000000 225.000000"
 preserveAspectRatio="xMidYMid meet">
<g transform="translate(0.000000,225.000000) scale(0.100000,-0.100000)"
fill="#000000" stroke="none">
<path d="M790 2240 c-9 -6 -10 -10 -3 -10 6 0 15 5 18 10 8 12 4 12 -15 0z"/>
<path d="M1002 2229 c-475 -46 -880 -411 -976 -878 -47 -227 -19 -493 75 -699
71 -157 227 -345 369 -444 125 -88 275 -154 410 -182 371 -75 731 26 1000 281
181 172 288 368 336 613 21 110 18 301 -6 419 -115 565 -633 947 -1208 890z
m378 -43 c322 -85 575 -286 718 -571 288 -574 37 -1254 -555 -1511 -435 -188
-969 -59 -1267 305 -172 210 -257 444 -257 711 0 537 391 998 921 1086 127 20
320 12 440 -20z"/>
<path d="M1061 2182 c-1 -8 -9 -10 -25 -6 -33 8 -81 -19 -95 -54 -13 -32 -4
-69 24 -92 23 -19 82 -18 102 3 16 16 16 18 -2 35 -18 16 -18 16 -5 -1 12 -16
12 -20 -1 -28 -8 -5 -24 -9 -35 -9 -56 0 -73 110 -21 129 23 9 57 -3 57 -20 0
-6 -5 -7 -12 -3 -7 4 -8 3 -4 -4 13 -21 -3 -33 -27 -21 -20 9 -20 9 -5 -4 10
-8 14 -18 10 -23 -4 -5 2 -2 13 7 11 9 27 14 35 12 13 -4 13 -3 0 6 -11 8 -12
13 -3 19 9 5 10 17 4 37 -5 17 -10 24 -10 17z"/>
<path d="M1135 2155 c-50 -49 -16 -135 54 -137 42 -1 81 38 81 83 0 40 -39 79
-80 79 -19 0 -40 -9 -55 -25z m83 3 c16 -16 15 -90 -1 -112 -8 -11 -23 -17
-38 -14 -21 3 -24 8 -27 54 -4 68 31 107 66 72z"/>
<path d="M890 2160 c-8 -5 -28 -12 -45 -16 -20 -5 -24 -9 -13 -11 24 -6 45
-109 28 -136 -11 -18 -10 -19 7 -12 10 4 30 10 46 13 31 5 43 17 26 28 -8 4
-9 3 -5 -4 4 -7 1 -12 -7 -12 -9 0 -20 22 -30 62 -15 57 -15 64 0 80 18 20 16
21 -7 8z"/>
<path d="M1368 2141 c20 -12 -14 -131 -37 -131 -34 -1 53 -30 90 -30 44 0 69
27 69 75 -1 40 -16 58 -68 78 -46 18 -77 23 -54 8z m80 -33 c16 -16 15 -44 -4
-84 -12 -25 -23 -34 -40 -34 -28 0 -28 1 -9 63 21 71 29 79 53 55z"/>
<path d="M770 2125 c-14 -8 -19 -14 -13 -15 10 0 43 -59 43 -76 0 -2 -22 10
-48 27 -39 24 -54 28 -82 23 -26 -6 -30 -9 -16 -14 26 -9 71 -121 54 -133 -8
-5 -3 -6 12 -2 29 8 61 35 42 35 -7 0 -12 -4 -12 -10 0 -22 -21 -8 -34 23 -33
81 -33 81 39 37 37 -23 69 -40 71 -38 4 4 -23 83 -37 110 -7 14 -7 23 2 34 14
17 11 17 -21 -1z"/>
<path d="M1545 2080 c10 -16 -46 -132 -62 -126 -7 3 -13 3 -13 0 0 -3 14 -10
30 -15 17 -6 30 -15 30 -21 0 -5 5 -6 11 -2 8 5 8 9 -1 14 -8 5 -3 24 17 66
22 46 32 58 48 56 11 -1 2 7 -19 18 -45 23 -50 24 -41 10z"/>
<path d="M611 2073 c4 -22 -3 -32 -30 -41 -88 -31 -72 -162 20 -162 35 0 79
36 78 63 0 21 0 22 -9 2 -21 -54 -73 -57 -103 -6 -29 50 -17 91 28 91 12 0 26
-5 33 -12 9 -9 12 -9 12 -1 0 7 -5 15 -11 19 -6 3 -9 15 -6 25 3 10 1 22 -4
25 -5 3 -9 2 -8 -3z"/>
<path d="M1638 2033 c7 -3 16 -2 19 1 4 3 -2 6 -13 5 -11 0 -14 -3 -6 -6z"/>
<path d="M1123 2005 c0 -8 4 -12 9 -9 5 3 6 10 3 15 -9 13 -12 11 -12 -6z"/>
<path d="M1285 1991 c-3 -5 -2 -12 3 -15 5 -3 9 1 9 9 0 17 -3 19 -12 6z"/>
<path d="M1715 1980 c-4 -6 -10 -8 -15 -5 -5 3 -12 0 -16 -6 -4 -8 -3 -9 4 -5
7 4 12 3 12 -3 0 -6 7 -8 15 -5 8 4 22 3 31 0 13 -5 8 -15 -26 -56 -25 -30
-50 -50 -62 -50 -17 0 -13 -5 16 -25 44 -30 45 -30 40 -7 -5 22 69 107 86 97
6 -4 10 -16 7 -26 -6 -23 8 -26 17 -3 3 9 6 17 6 19 0 11 -110 83 -115 75z"/>
<path d="M1130 1965 c-10 -11 -10 -19 -2 -27 15 -15 44 -2 40 19 -4 23 -22 27
-38 8z"/>
<path d="M1581 1964 c0 -11 3 -14 6 -6 3 7 2 16 -1 19 -3 4 -6 -2 -5 -13z"/>
<path d="M1187 1964 c-11 -11 5 -34 24 -34 12 0 19 7 19 20 0 19 -28 28 -43
14z"/>
<path d="M917 1946 c-8 -20 20 -43 35 -28 14 14 3 42 -16 42 -7 0 -16 -6 -19
-14z"/>
<path d="M1010 1924 c-78 -51 -107 -81 -126 -131 -28 -73 -6 -160 69 -275 21
-32 37 -72 41 -100 8 -54 18 -59 42 -23 18 28 21 97 4 139 -12 32 -8 41 13 33
25 -9 43 -135 22 -143 -51 -20 15 -75 91 -76 30 -1 51 4 62 16 16 16 16 18 0
27 -25 14 -23 59 2 66 12 3 27 21 35 39 8 19 18 34 22 34 5 0 7 20 5 44 -4 41
-3 43 28 49 l32 7 -24 30 c-76 98 -137 164 -169 181 -31 15 -39 26 -49 69 -15
61 -26 63 -100 14z m80 -10 c15 -39 12 -52 -12 -59 -67 -20 -128 -90 -128
-145 0 -13 18 -61 41 -108 47 -99 55 -136 38 -177 l-12 -30 -7 36 c-3 20 -20
57 -36 83 -66 107 -75 127 -81 174 -8 71 3 117 39 158 28 32 121 94 141 94 4
0 12 -12 17 -26z m68 -88 c26 -14 75 -63 117 -116 l20 -25 -23 19 c-12 11 -25
16 -30 12 -7 -8 7 -20 59 -49 23 -13 29 -21 21 -29 -8 -8 -19 -8 -40 1 -22 9
-40 10 -68 2 -35 -10 -41 -9 -55 11 l-16 21 -47 -43 -47 -43 -30 29 c-16 15
-34 45 -40 65 -10 32 -9 42 12 79 16 29 37 49 64 61 49 22 68 23 103 5z m-3
-213 c5 -18 -1 -30 -27 -53 -18 -16 -36 -30 -40 -30 -19 0 -6 61 18 90 28 32
37 31 49 -7z m123 -35 c3 -39 0 -47 -17 -53 -11 -3 -20 -9 -20 -13 4 -29 -3
-42 -24 -42 -21 0 -23 -4 -19 -37 2 -21 9 -44 14 -50 15 -18 -14 -27 -64 -20
-49 7 -78 31 -60 49 7 7 12 29 12 50 0 32 7 46 40 78 22 22 40 44 40 49 0 15
52 41 75 38 16 -2 21 -11 23 -49z"/>
<path d="M939 1793 c-13 -16 -12 -17 4 -4 9 7 17 15 17 17 0 8 -8 3 -21 -13z"/>
<path d="M1126 1812 c-3 -5 1 -9 9 -9 8 0 12 4 9 9 -3 4 -7 8 -9 8 -2 0 -6 -4
-9 -8z"/>
<path d="M1155 1780 c-3 -6 1 -7 9 -4 18 7 21 14 7 14 -6 0 -13 -4 -16 -10z"/>
<path d="M1011 1750 c0 -8 4 -22 9 -30 12 -18 12 -2 0 25 -6 13 -9 15 -9 5z"/>
<path d="M1210 1723 c0 -25 1 -26 16 -11 9 9 13 21 10 27 -13 20 -26 11 -26
-16z"/>
<path d="M1040 1685 c0 -2 6 -8 13 -14 10 -8 14 -7 14 2 0 8 -6 14 -14 14 -7
0 -13 -1 -13 -2z"/>
<path d="M1236 1609 c-15 -9 -16 -13 -5 -20 22 -13 28 -11 26 11 -1 11 -1 20
-2 20 0 0 -8 -5 -19 -11z"/>
<path d="M1250 1940 c0 -13 7 -20 20 -20 13 0 20 7 20 20 0 13 -7 20 -20 20
-13 0 -20 -7 -20 -20z"/>
<path d="M1313 1934 c-8 -21 13 -42 28 -27 13 13 5 43 -11 43 -6 0 -13 -7 -17
-16z"/>
<path d="M408 1904 c-23 -20 -45 -41 -47 -48 -3 -7 1 -7 11 1 13 11 22 5 58
-38 l43 -51 -21 -26 c-11 -15 -27 -26 -35 -26 -20 2 -97 65 -97 80 0 20 27 23
51 6 l24 -16 -19 22 c-11 12 -24 22 -31 22 -7 0 -31 -22 -54 -50 l-42 -49 21
-21 c22 -22 25 -19 11 9 -5 9 -6 23 -1 30 6 11 11 11 27 0 53 -38 85 -71 80
-83 -3 -8 34 27 84 77 49 51 89 95 89 98 0 4 -6 11 -13 17 -10 8 -13 5 -12
-15 0 -14 -8 -30 -17 -37 -14 -8 -22 -6 -40 11 -25 26 -17 43 12 25 30 -19 24
1 -11 34 -26 24 -29 25 -20 7 16 -31 -5 -40 -28 -11 -18 22 -18 23 0 36 12 8
28 10 42 6 19 -6 20 -5 8 10 -19 22 -23 21 -73 -20z"/>
<path d="M857 1933 c-3 -5 -2 -15 3 -22 10 -17 43 -6 38 12 -6 15 -34 22 -41
10z"/>
<path d="M1689 1923 c-13 -16 -12 -17 4 -4 9 7 17 15 17 17 0 8 -8 3 -21 -13z"/>
<path d="M1370 1910 c0 -13 7 -20 20 -20 13 0 20 7 20 20 0 13 -7 20 -20 20
-13 0 -20 -7 -20 -20z"/>
<path d="M800 1900 c0 -13 7 -20 20 -20 13 0 20 7 20 20 0 13 -7 20 -20 20
-13 0 -20 -7 -20 -20z"/>
<path d="M1161 1894 c0 -11 3 -14 6 -6 3 7 2 16 -1 19 -3 4 -6 -2 -5 -13z"/>
<path d="M1427 1896 c-8 -19 15 -37 32 -26 17 10 7 40 -13 40 -7 0 -16 -6 -19
-14z"/>
<path d="M743 1884 c-8 -21 13 -42 28 -27 13 13 5 43 -11 43 -6 0 -13 -7 -17
-16z"/>
<path d="M1485 1870 c-4 -7 -3 -16 3 -22 14 -14 45 -2 40 15 -6 16 -34 21 -43
7z"/>
<path d="M684 1859 c-3 -6 0 -17 7 -25 18 -17 44 -2 36 20 -7 18 -33 21 -43 5z"/>
<path d="M850 1860 c0 -5 5 -10 11 -10 5 0 7 5 4 10 -3 6 -8 10 -11 10 -2 0
-4 -4 -4 -10z"/>
<path d="M1231 1846 c-9 -11 -9 -16 1 -22 7 -4 10 -4 6 1 -4 4 -3 14 3 22 6 7
9 13 6 13 -2 0 -10 -6 -16 -14z"/>
<path d="M1813 1843 c-55 -26 -64 -90 -17 -130 14 -13 36 -23 50 -23 32 0 84
51 84 82 0 58 -64 97 -117 71z m87 -28 c18 -22 -1 -60 -42 -85 -40 -24 -42
-24 -62 -4 -23 22 -20 32 18 70 37 37 66 43 86 19z"/>
<path d="M1843 1793 c4 -3 1 -13 -6 -22 -11 -14 -10 -14 5 -2 16 12 16 31 1
31 -4 0 -3 -3 0 -7z"/>
<path d="M1534 1839 c-3 -6 0 -17 8 -25 13 -13 16 -13 27 0 7 8 10 20 6 26 -8
13 -32 13 -41 -1z"/>
<path d="M634 1825 c-7 -18 3 -35 21 -35 18 0 26 25 12 39 -15 15 -27 14 -33
-4z"/>
<path d="M1593 1804 c-8 -21 13 -42 28 -27 13 13 5 43 -11 43 -6 0 -13 -7 -17
-16z"/>
<path d="M776 1795 c-9 -26 -7 -32 5 -12 6 10 9 21 6 23 -2 3 -7 -2 -11 -11z"/>
<path d="M1265 1801 c-3 -5 -2 -12 3 -15 5 -3 9 1 9 9 0 17 -3 19 -12 6z"/>
<path d="M583 1784 c-9 -23 19 -38 34 -17 7 9 10 20 7 24 -9 15 -34 10 -41 -7z"/>
<path d="M690 1796 c0 -2 8 -10 18 -17 15 -13 16 -12 3 4 -13 16 -21 21 -21
13z"/>
<path d="M1710 1786 c0 -2 7 -7 16 -10 8 -3 12 -2 9 4 -6 10 -25 14 -25 6z"/>
<path d="M1642 1767 c-15 -17 1 -42 23 -33 18 6 17 37 -1 43 -6 2 -16 -2 -22
-10z"/>
<path d="M1334 1750 c0 -13 4 -16 10 -10 7 7 7 13 0 20 -6 6 -10 3 -10 -10z"/>
<path d="M534 1749 c-3 -6 0 -17 8 -25 13 -13 16 -13 27 0 7 8 10 20 6 26 -8
13 -32 13 -41 -1z"/>
<path d="M1965 1738 c7 -20 -92 -80 -117 -72 -19 6 -18 3 7 -30 29 -38 37 -45
30 -23 -2 6 7 21 22 31 l26 19 -6 -34 c-3 -19 -8 -43 -11 -54 -4 -11 -1 -28 7
-39 10 -13 14 -15 15 -5 7 66 15 81 38 75 24 -6 54 15 54 38 0 7 -14 34 -31
59 -31 46 -43 59 -34 35z m39 -83 c-9 -21 -36 -27 -52 -11 -14 13 -13 17 9 35
21 18 25 18 36 5 6 -9 9 -22 7 -29z"/>
<path d="M614 1720 c0 -13 4 -16 10 -10 7 7 7 13 0 20 -6 6 -10 3 -10 -10z"/>
<path d="M1606 1723 c-6 -14 -5 -15 5 -6 7 7 10 15 7 18 -3 3 -9 -2 -12 -12z"/>
<path d="M1684 1725 c-7 -18 3 -35 21 -35 18 0 26 25 12 39 -15 15 -27 14 -33
-4z"/>
<path d="M493 1704 c-8 -21 13 -42 28 -27 13 13 5 43 -11 43 -6 0 -13 -7 -17
-16z"/>
<path d="M220 1684 c-23 -46 -23 -47 -11 -39 17 10 124 -62 115 -78 -3 -7 5 2
20 18 29 34 33 47 11 39 -19 -8 -113 52 -117 74 -2 11 -7 7 -18 -14z"/>
<path d="M1340 1701 c0 -6 4 -13 10 -16 6 -3 7 1 4 9 -7 18 -14 21 -14 7z"/>
<path d="M671 1681 c-8 -5 -9 -11 -3 -15 5 -3 12 1 16 9 6 17 6 18 -13 6z"/>
<path d="M1724 1679 c-3 -6 0 -17 8 -25 13 -13 16 -13 27 0 7 8 10 20 6 26 -8
13 -32 13 -41 -1z"/>
<path d="M560 1649 c0 -66 13 -110 40 -139 29 -31 24 -38 -12 -19 -35 19 -32
1 7 -47 45 -55 89 -83 130 -85 22 -2 18 -4 -15 -8 l-45 -6 35 -23 c19 -12 52
-25 72 -28 20 -4 36 -11 35 -17 -3 -17 45 -37 92 -37 34 0 42 -3 37 -15 -7
-19 64 -39 107 -29 18 4 82 8 142 8 106 1 110 2 113 24 2 15 -2 22 -13 22 -12
0 -15 -6 -10 -20 6 -18 4 -19 -21 -10 -20 8 -29 8 -35 -1 -4 -8 -14 -9 -25 -4
-26 12 -58 12 -66 0 -5 -6 -8 -5 -8 3 0 7 -5 10 -11 6 -8 -4 -8 -1 -1 13 12
22 42 24 67 3 14 -11 18 -11 25 0 4 7 15 10 25 7 9 -4 13 -3 10 3 -3 5 10 16
30 24 21 9 34 20 30 26 -5 8 -12 7 -23 -3 -25 -21 -65 -32 -60 -16 2 7 13 17
23 23 11 6 25 18 32 26 9 11 14 12 24 3 6 -6 17 -9 24 -7 22 9 30 -18 10 -32
-15 -11 -16 -16 -5 -29 12 -14 11 -18 -1 -26 -26 -16 12 -11 66 10 97 36 105
41 117 65 6 14 15 23 20 20 12 -8 39 16 32 27 -3 5 6 13 20 19 16 6 25 17 24
27 -3 41 3 52 35 59 17 4 36 7 40 6 5 -1 4 5 -1 15 -8 13 -6 21 6 31 15 11 14
12 -5 2 -13 -6 -23 -17 -23 -24 0 -8 -9 -16 -20 -19 -11 -3 -20 -1 -20 4 0 5
4 9 9 9 8 0 24 37 22 52 0 3 6 12 14 18 19 16 19 27 0 27 -8 0 -15 -9 -15 -19
0 -10 -3 -18 -8 -18 -4 0 -13 -14 -21 -32 -13 -29 -15 -30 -28 -13 -17 25 -17
39 2 31 18 -7 20 16 4 46 -10 19 -9 20 11 15 21 -5 22 -3 17 28 -7 41 5 52 28
28 13 -13 18 -14 25 -3 10 17 33 2 26 -17 -4 -9 -2 -21 4 -28 7 -8 4 -17 -10
-30 -25 -23 -25 -31 0 -38 11 -3 20 -1 20 4 0 5 -5 9 -12 9 -6 0 -4 8 7 20 11
13 15 25 10 37 -5 10 -7 25 -6 34 1 9 -6 22 -14 29 -14 12 -18 11 -25 0 -7
-11 -11 -11 -24 -1 -22 19 -49 -4 -42 -35 4 -16 1 -23 -15 -27 -16 -4 -19 -11
-14 -26 4 -15 -1 -27 -18 -43 -13 -13 -27 -33 -31 -44 -6 -21 -37 -38 -62 -35
-17 2 -37 -27 -31 -43 3 -8 -2 -16 -14 -19 -10 -3 -19 -13 -19 -24 -1 -17 -2
-17 -16 2 -15 20 -16 20 -40 -10 -19 -25 -27 -28 -41 -19 -22 14 -80 -12 -89
-39 -4 -12 -12 -16 -24 -12 -10 3 -21 1 -25 -5 -10 -16 -60 -12 -86 9 -51 39
-131 68 -114 41 4 -6 11 -7 17 -4 6 4 9 3 6 -2 -4 -5 4 -10 17 -10 29 -2 82
-41 88 -65 5 -17 3 -17 -22 -2 -14 9 -38 28 -53 42 -16 13 -28 20 -28 13 0 -6
10 -17 22 -23 13 -7 18 -14 11 -16 -6 -2 -31 17 -55 43 -40 44 -121 104 -141
104 -5 0 -6 -15 -3 -32 6 -31 5 -30 -13 9 -18 39 -109 138 -119 129 -2 -3 15
-21 38 -42 62 -56 90 -117 49 -107 -26 7 -79 79 -79 107 0 12 -3 16 -8 10 -16
-24 -87 10 -101 49 -16 42 -22 109 -10 102 15 -10 59 -105 59 -128 0 -10 5
-15 10 -12 6 3 10 1 10 -5 0 -6 4 -9 9 -6 21 13 -14 151 -45 177 -13 10 -17
10 -24 -1 -7 -11 -11 -11 -24 -1 -14 12 -16 9 -16 -20z m88 -48 c7 -19 12 -43
11 -55 0 -19 -1 -19 -11 4 -6 14 -19 41 -28 60 -19 40 -16 73 5 43 6 -10 17
-33 23 -52z m922 -96 c0 -8 -4 -15 -10 -15 -5 0 -10 7 -10 15 0 8 5 15 10 15
6 0 10 -7 10 -15z m-907 -66 c9 -10 17 -25 17 -33 0 -18 23 -27 40 -16 15 10
30 4 30 -11 0 -12 -37 -11 -63 2 -28 14 -87 70 -87 82 0 13 43 -3 63 -24z m28
4 c13 -16 12 -17 -3 -4 -10 7 -18 15 -18 17 0 8 8 3 21 -13z m858 7 c23 12 29
5 29 -32 0 -20 -6 -28 -19 -28 -21 0 -38 -22 -21 -28 24 -8 0 -22 -25 -16 -22
6 -25 4 -20 -10 6 -14 3 -15 -14 -6 -22 12 -17 30 9 31 11 0 12 3 5 6 -22 8
-14 23 13 23 14 0 23 4 20 9 -4 5 -3 11 1 14 5 2 1 1 -7 -1 -8 -3 -25 -6 -37
-6 -15 -1 -23 -7 -23 -19 0 -10 -7 -20 -15 -23 -22 -9 -18 -19 10 -32 27 -13
34 -42 10 -42 -8 0 -15 9 -15 19 0 11 -9 23 -21 26 -26 9 -23 52 4 47 15 -3
18 2 15 25 -3 24 0 28 20 26 14 -2 22 3 22 12 0 13 4 14 20 5 14 -7 26 -8 39
0z m-661 -79 c50 -33 77 -67 62 -76 -5 -3 -14 5 -20 19 -10 27 -24 33 -35 16
-11 -18 -21 -11 -44 30 -26 48 -20 49 37 11z m511 -35 c7 -9 8 -17 2 -20 -15
-10 -40 5 -34 20 7 18 17 18 32 0z m-572 -7 c28 -11 28 -11 6 -21 -26 -12 -82
-4 -109 17 -17 13 -15 14 28 15 26 0 59 -5 75 -11z m599 -37 c-7 -20 -34 -37
-44 -28 -10 11 9 38 23 32 10 -3 15 1 15 11 0 9 3 14 6 10 3 -3 3 -14 0 -25z
m-56 8 c0 -5 -4 -10 -10 -10 -5 0 -10 5 -10 10 0 6 5 10 10 10 6 0 10 -4 10
-10z m-431 -16 c70 -14 11 -41 -64 -30 -68 11 -60 24 21 35 6 0 26 -2 43 -5z
m256 -14 c3 -5 -1 -10 -9 -10 -9 0 -16 5 -16 10 0 6 4 10 9 10 6 0 13 -4 16
-10z m165 -5 c0 -8 -4 -15 -10 -15 -5 0 -10 7 -10 15 0 8 5 15 10 15 6 0 10
-7 10 -15z m-276 -33 c4 -2 2 -8 -5 -13 -19 -12 -136 -12 -123 0 16 16 105 25
128 13z"/>
<path d="M450 1650 c0 -13 7 -20 20 -20 13 0 20 7 20 20 0 13 -7 20 -20 20
-13 0 -20 -7 -20 -20z"/>
<path d="M1765 1630 c-4 -7 -3 -16 3 -22 14 -14 45 -2 40 15 -6 16 -34 21 -43
7z"/>
<path d="M410 1600 c0 -13 7 -20 20 -20 13 0 20 7 20 20 0 13 -7 20 -20 20
-13 0 -20 -7 -20 -20z"/>
<path d="M701 1594 c0 -11 3 -14 6 -6 3 7 2 16 -1 19 -3 4 -6 -2 -5 -13z"/>
<path d="M1525 1591 c-9 -15 15 -25 28 -12 9 9 7 10 -7 5 -13 -5 -17 -4 -12 4
4 7 5 12 2 12 -3 0 -7 -4 -11 -9z"/>
<path d="M1800 1570 c0 -13 7 -20 20 -20 13 0 20 7 20 20 0 13 -7 20 -20 20
-13 0 -20 -7 -20 -20z"/>
<path d="M278 1558 c26 -28 27 -37 9 -62 -13 -17 -16 -17 -66 5 -29 12 -56 30
-59 40 -6 14 -11 9 -25 -24 -9 -23 -12 -36 -6 -30 14 14 128 -35 129 -57 1 -8
11 5 24 30 40 76 40 83 3 104 l-32 19 23 -25z"/>
<path d="M2073 1566 c5 -14 -5 -22 -50 -42 -31 -14 -62 -23 -69 -20 -17 6 -17
4 -3 -28 9 -20 9 -29 -1 -43 -8 -10 0 -4 16 12 16 17 51 39 77 49 47 18 49 18
62 0 13 -18 14 -18 8 4 -3 12 -9 25 -14 28 -5 3 -9 14 -9 24 0 10 -5 22 -12
26 -8 5 -9 2 -5 -10z"/>
<path d="M377 1556 c-8 -19 15 -37 32 -26 17 10 7 40 -13 40 -7 0 -16 -6 -19
-14z"/>
<path d="M884 1559 c-3 -6 -2 -15 4 -21 6 -6 12 -6 17 3 6 8 4 10 -5 4 -10 -6
-12 -4 -7 8 7 19 2 23 -9 6z"/>
<path d="M445 1549 c-3 -4 2 -6 10 -5 21 3 28 13 10 13 -9 0 -18 -4 -20 -8z"/>
<path d="M1722 1520 c0 -14 2 -19 5 -12 2 6 2 18 0 25 -3 6 -5 1 -5 -13z"/>
<path d="M1833 1524 c-8 -21 13 -42 28 -27 13 13 5 43 -11 43 -6 0 -13 -7 -17
-16z"/>
<path d="M773 1515 c0 -8 4 -12 8 -9 4 2 10 -2 12 -8 4 -8 6 -9 6 -2 1 6 -5
17 -12 23 -10 8 -14 7 -14 -4z"/>
<path d="M1444 1518 c-4 -7 -3 -8 4 -4 7 4 12 3 12 -3 0 -5 -3 -11 -7 -14 -5
-2 -3 -3 3 -1 6 1 17 -3 24 -9 7 -7 5 0 -5 16 -20 31 -21 31 -31 15z"/>
<path d="M351 1507 c-14 -17 3 -41 23 -34 9 4 16 13 16 21 0 19 -26 28 -39 13z"/>
<path d="M884 1476 c4 -12 0 -23 -10 -31 -15 -11 -15 -12 0 -12 9 0 16 4 16 9
0 5 5 6 11 2 7 -4 7 2 -1 17 -16 31 -25 39 -16 15z"/>
<path d="M455 1471 c-3 -5 -1 -12 5 -16 5 -3 10 1 10 9 0 18 -6 21 -15 7z"/>
<path d="M1860 1459 c0 -25 33 -22 38 4 2 12 -3 17 -17 17 -15 0 -21 -6 -21
-21z"/>
<path d="M323 1444 c-8 -21 13 -42 28 -27 13 13 5 43 -11 43 -6 0 -13 -7 -17
-16z"/>
<path d="M922 1440 c-13 -11 -18 -21 -12 -25 6 -3 8 -11 5 -16 -4 -5 5 -4 19
2 14 7 23 16 19 22 -3 5 -9 4 -14 -4 -4 -7 -11 -10 -15 -6 -4 4 1 16 11 27 23
25 17 25 -13 0z"/>
<path d="M2107 1447 c-7 -19 -119 -40 -129 -24 -11 17 -9 -12 2 -38 6 -15 9
-16 9 -4 1 10 17 19 48 26 27 6 50 10 52 8 2 -2 -17 -31 -43 -64 -25 -34 -43
-61 -40 -61 3 0 33 7 66 16 33 8 67 13 74 10 15 -6 18 3 8 28 -5 14 -8 14 -18
3 -6 -8 -26 -19 -44 -25 l-33 -11 35 48 c20 27 36 60 36 75 0 27 -14 35 -23
13z"/>
<path d="M1353 1443 c-7 -3 -13 -9 -13 -15 0 -7 5 -7 13 1 8 6 16 8 19 5 3 -3
8 -1 12 4 5 9 -10 12 -31 5z"/>
<path d="M116 1418 c-35 -32 -41 -66 -16 -105 28 -46 90 -49 128 -7 30 34 28
70 -7 105 -35 35 -71 37 -105 7z m106 -46 c16 -16 18 -23 9 -41 -13 -23 -44
-27 -88 -11 -40 15 -55 38 -42 63 9 16 18 19 56 14 26 -3 54 -13 65 -25z"/>
<path d="M136 1362 c-3 -4 4 -9 15 -9 23 -2 25 3 4 10 -8 4 -16 3 -19 -1z"/>
<path d="M1257 1419 c7 -9 9 -20 5 -25 -4 -4 1 -2 11 5 9 7 17 16 17 19 0 3
-3 2 -7 -1 -3 -4 -13 -1 -22 6 -14 10 -14 10 -4 -4z"/>
<path d="M1843 1415 c0 -8 4 -12 9 -9 5 3 6 10 3 15 -9 13 -12 11 -12 -6z"/>
<path d="M1891 1420 c-17 -10 -7 -40 13 -40 7 0 16 6 19 14 8 19 -15 37 -32
26z"/>
<path d="M586 1387 c15 -21 29 -35 32 -32 3 2 12 -1 21 -7 10 -8 9 -4 -3 10
-11 12 -21 20 -24 18 -2 -3 -15 7 -29 22 -22 24 -22 23 3 -11z"/>
<path d="M300 1380 c0 -13 7 -20 20 -20 13 0 20 7 20 20 0 13 -7 20 -20 20
-13 0 -20 -7 -20 -20z"/>
<path d="M1840 1386 c0 -2 8 -10 18 -17 15 -13 16 -12 3 4 -13 16 -21 21 -21
13z"/>
<path d="M1627 1359 c7 -7 15 -10 18 -7 3 3 -2 9 -12 12 -14 6 -15 5 -6 -5z"/>
<path d="M1695 1360 c-3 -5 -1 -10 4 -10 6 0 11 5 11 10 0 6 -2 10 -4 10 -3 0
-8 -4 -11 -10z"/>
<path d="M1746 1357 c3 -10 9 -15 12 -12 3 3 0 11 -7 18 -10 9 -11 8 -5 -6z"/>
<path d="M1911 1360 c-17 -10 -7 -40 13 -40 7 0 16 6 19 14 8 19 -15 37 -32
26z"/>
<path d="M550 1350 c0 -12 -76 -123 -124 -181 -8 -10 -11 -33 -9 -66 3 -28 0
-60 -6 -71 -7 -13 -7 -23 -2 -27 6 -3 9 -22 7 -42 -1 -27 -7 -39 -21 -43 -11
-3 -21 -13 -23 -24 -3 -14 1 -17 12 -13 13 5 16 -2 15 -46 -1 -29 -3 -44 -6
-34 -7 25 -25 21 -21 -5 3 -22 6 -22 188 -25 123 -2 177 1 163 7 -19 8 -22 15
-17 39 9 44 0 59 -30 54 -23 -5 -26 -10 -26 -44 0 -22 -5 -39 -11 -39 -6 0 -9
6 -6 14 3 7 -1 25 -8 40 -10 19 -11 26 -2 26 7 0 6 4 -3 10 -13 9 -13 10 0 10
13 0 13 2 1 9 -18 12 -41 3 -41 -16 0 -8 -5 -11 -10 -8 -6 4 -7 12 -3 18 10
15 11 57 2 57 -4 0 -9 -9 -11 -20 -2 -12 -6 -21 -10 -20 -5 0 -19 0 -33 0 -20
0 -25 5 -25 25 0 14 -5 25 -11 25 -6 0 -9 -6 -6 -14 3 -8 0 -20 -8 -26 -11 -9
-16 -7 -25 10 -6 11 -8 26 -3 33 5 8 9 4 14 -13 6 -22 7 -23 8 -4 1 12 -6 27
-14 34 -28 23 -16 28 68 26 l82 -1 6 -40 6 -40 2 43 c0 26 5 41 11 37 6 -4 8
-11 5 -16 -4 -5 -2 -9 4 -9 5 0 11 4 13 10 2 6 14 4 30 -4 15 -8 29 -12 32 -8
3 3 6 0 6 -7 0 -7 5 -9 10 -6 6 3 10 2 10 -3 0 -6 9 -8 20 -5 11 3 20 1 20 -4
0 -5 -13 -9 -30 -9 -16 0 -30 3 -30 8 0 4 -3 7 -7 6 -5 -1 -21 2 -37 7 -20 5
-31 4 -37 -6 -11 -17 -12 -39 -1 -24 10 15 31 12 42 -5 8 -12 10 -12 10 5 1
20 1 20 15 1 8 -11 15 -16 15 -10 0 5 7 0 15 -10 15 -20 15 -20 16 0 0 10 3
14 5 8 3 -7 14 -10 24 -7 13 3 20 0 20 -8 0 -11 2 -11 10 1 9 13 10 13 10 0 0
-13 1 -13 10 0 9 13 11 13 20 0 5 -8 7 -24 3 -35 -4 -11 -6 -30 -5 -42 2 -24
-13 -31 -21 -10 -4 7 -6 6 -6 -5 -1 -18 16 -27 40 -21 13 4 16 16 14 59 -3 57
5 73 25 49 10 -12 10 -18 0 -30 -7 -8 -10 -25 -6 -38 7 -31 -12 -55 -49 -60
-16 -2 64 -4 180 -4 116 0 252 -3 304 -7 68 -6 92 -5 87 3 -4 6 -21 11 -37 11
-18 0 -28 4 -24 10 4 6 -1 23 -11 38 -13 20 -14 24 -2 15 8 -7 18 -10 21 -6 7
6 11 -11 8 -34 -1 -8 10 -13 29 -13 26 0 30 4 31 28 0 15 3 21 6 14 4 -10 8
-10 19 -1 11 9 15 8 19 -3 3 -8 5 -19 3 -24 -3 -10 4 -14 25 -14 10 0 12 10 8
33 l-5 32 -7 -30 c-6 -27 -7 -25 -8 15 -1 25 -5 40 -9 34 -4 -6 -17 -14 -29
-18 -16 -5 -23 -2 -26 11 -4 17 -5 17 -6 -1 -1 -14 -4 -16 -15 -7 -8 7 -11 22
-8 38 5 25 6 25 18 8 10 -14 14 -15 14 -4 0 12 2 12 10 -1 7 -11 10 -11 10 -2
0 7 5 10 10 7 6 -3 10 0 11 7 0 7 4 4 9 -7 l9 -20 1 20 1 20 9 -20 c7 -17 9
-17 9 -3 1 11 6 15 16 12 9 -4 15 0 15 9 0 9 3 22 6 30 4 12 0 14 -18 11 l-23
-5 23 10 c29 13 61 3 41 -13 -8 -6 -15 -19 -16 -30 -1 -13 2 -15 10 -7 6 6 19
11 29 11 13 0 18 8 18 30 0 42 16 38 23 -6 8 -46 0 -64 -28 -64 -13 0 -27 -5
-30 -10 -4 -7 3 -8 21 -4 23 6 26 4 21 -10 -4 -10 -7 -20 -7 -22 0 -3 -6 -2
-12 2 -10 6 -10 4 0 -8 9 -12 10 -18 2 -23 -6 -4 -9 -13 -6 -21 6 -17 -6 -18
-21 -3 -9 9 -10 6 -6 -10 5 -21 9 -21 146 -19 138 3 140 3 142 26 1 13 -2 25
-7 28 -4 3 -8 -7 -8 -23 0 -22 -2 -25 -10 -13 -13 20 -13 90 0 90 6 0 10 -9
10 -20 0 -25 16 -27 18 -2 2 36 -8 60 -25 58 -15 -1 -18 6 -16 39 7 125 4 187
-10 203 -27 31 -107 166 -107 182 -1 12 -3 12 -11 -2 -5 -10 -15 -18 -22 -18
-7 0 -28 -28 -46 -62 -19 -35 -42 -73 -52 -86 l-17 -22 -34 54 c-31 49 -36 53
-52 40 -14 -10 -56 -84 -56 -98 0 0 14 -1 32 -1 31 0 48 17 29 29 -6 4 -8 14
-5 24 5 14 4 14 -4 3 -6 -8 -8 -19 -6 -26 3 -6 -2 -12 -11 -12 -18 0 -18 5 -1
36 8 14 21 26 30 27 19 3 51 -52 36 -61 -18 -11 -10 -27 10 -22 11 3 23 1 26
-4 3 -5 10 -7 15 -4 5 4 9 1 9 -5 0 -13 -129 -8 -162 5 -13 5 -18 2 -18 -9 0
-14 -15 -16 -105 -16 -71 0 -105 4 -105 11 0 8 -5 7 -16 -2 -13 -11 -17 -10
-26 4 -8 16 -11 16 -25 1 -13 -12 -17 -13 -24 -2 -7 11 -9 11 -9 0 0 -11 -21
-13 -106 -9 -104 5 -106 5 -123 33 -10 16 -21 41 -24 55 -4 14 -17 37 -30 51
l-23 25 -27 -47 c-31 -56 -57 -81 -57 -57 0 9 -13 35 -28 59 -16 24 -35 58
-43 76 -8 17 -19 32 -26 32 -7 0 -17 8 -22 18 -8 13 -10 14 -11 2z m35 -105
c15 -41 31 -78 37 -81 5 -3 2 11 -6 31 -9 21 -16 46 -16 57 0 11 -7 26 -15 35
-9 8 -13 18 -10 22 8 8 35 -28 35 -47 0 -7 7 -20 15 -28 9 -9 13 -25 9 -38
-10 -42 65 -71 98 -38 9 9 9 12 0 12 -10 0 -10 5 -2 20 6 11 17 17 24 14 11
-4 13 0 9 15 -10 37 6 22 28 -26 12 -27 27 -51 33 -55 12 -9 12 -9 -79 -13
-40 -1 -68 3 -84 13 -18 11 -51 14 -124 13 -67 -2 -97 1 -92 8 3 6 16 11 29
11 19 0 21 4 18 33 -3 23 2 38 17 51 12 11 21 14 21 8 0 -7 5 -12 10 -12 6 0
10 7 10 15 0 8 -5 15 -10 15 -6 0 -5 8 2 20 7 11 13 20 14 20 1 0 14 -34 29
-75z m1130 5 c26 -40 33 -80 15 -80 -5 0 -10 -4 -10 -10 0 -5 13 -10 29 -10
17 0 33 -4 36 -10 4 -6 -20 -9 -67 -6 -40 2 -84 4 -97 5 -21 1 -22 3 -10 18
10 11 10 14 2 9 -19 -11 -17 39 2 54 8 7 15 20 15 29 0 9 5 22 12 29 22 22 47
12 73 -28z m-122 -113 c3 -8 -1 -14 -9 -14 -15 0 -18 9 -7 20 9 9 10 9 16 -6z
m-963 -7 c0 -5 -5 -10 -11 -10 -5 0 -7 5 -4 10 3 6 8 10 11 10 2 0 4 -4 4 -10z
m-31 -22 c5 -13 6 -28 4 -34 -2 -6 3 -14 12 -18 9 -3 14 -2 10 3 -3 5 -1 20 4
33 l10 23 1 -25 c0 -20 2 -22 10 -10 8 12 10 10 10 -8 0 -15 -4 -21 -12 -16
-7 4 -8 3 -4 -4 4 -7 16 -12 28 -12 17 0 18 3 8 15 -6 8 -10 20 -7 27 3 8 6 5
6 -6 1 -20 1 -20 16 0 8 11 15 14 15 7 0 -21 21 -15 27 7 7 26 21 26 25 -2 4
-28 28 -36 28 -9 0 21 16 27 35 13 6 -4 10 -19 10 -34 1 -18 -3 -24 -9 -18 -6
6 -36 10 -68 10 -46 0 -58 -3 -58 -15 0 -13 7 -15 35 -9 29 5 35 3 35 -10 0
-15 2 -16 21 -2 17 11 25 12 40 3 11 -7 19 -19 19 -27 1 -8 7 -1 14 15 l14 30
13 -30 13 -30 4 28 c4 32 18 36 27 7 3 -11 11 -20 16 -20 5 0 9 9 9 20 0 29
17 25 28 -7 l10 -28 7 27 c4 16 11 26 15 23 12 -7 1 -42 -18 -57 -12 -10 -16
-10 -19 -1 -4 10 -9 10 -24 0 -16 -10 -21 -9 -29 3 -6 10 -10 11 -10 3 0 -7
-9 -13 -20 -13 -11 0 -20 6 -21 13 0 10 -2 10 -6 0 -2 -7 -14 -13 -24 -13 -11
0 -18 3 -16 8 3 4 -10 8 -29 9 -18 1 -62 12 -96 24 -36 13 -84 22 -113 22 -27
0 -42 1 -32 4 11 3 17 14 17 36 0 34 -12 29 -34 -15 -8 -17 -21 -24 -49 -26
l-37 -3 0 42 c0 28 -6 46 -17 55 -16 11 -6 13 65 14 77 0 83 -2 91 -22z m1124
3 c38 -1 66 -4 64 -8 -3 -5 -2 -29 3 -55 4 -27 3 -48 -2 -48 -4 0 -8 5 -8 11
0 5 -4 8 -9 4 -6 -3 -11 14 -13 37 -2 30 -7 43 -18 43 -11 0 -14 -9 -12 -36 3
-37 -20 -71 -38 -53 -12 12 -16 56 -7 71 6 9 -4 15 -33 19 -22 4 -40 10 -40
15 0 5 10 7 23 5 12 -3 53 -5 90 -5z m-137 -16 c-8 -8 -18 -15 -22 -15 -3 0
-1 7 6 15 7 8 17 15 22 15 5 0 3 -7 -6 -15z m-1136 -29 c0 -19 -4 -37 -9 -40
-5 -3 -8 12 -7 34 1 49 16 54 16 6z m1000 0 c8 -20 8 -20 19 7 6 15 15 27 21
27 6 0 8 -5 5 -10 -4 -6 -1 -18 6 -26 12 -14 14 -14 20 3 6 16 8 15 18 -9 13
-34 31 -36 32 -5 1 21 1 21 9 -3 8 -24 8 -23 9 8 1 17 6 32 12 32 5 0 8 -4 5
-9 -9 -13 4 -42 16 -35 5 3 7 12 4 20 -3 8 0 14 6 14 7 0 9 -13 5 -34 -5 -30
-3 -34 14 -31 10 2 19 -1 19 -7 0 -6 -15 -8 -37 -5 -41 5 -132 -10 -147 -24
-6 -5 -22 -9 -36 -9 -14 0 -31 -5 -38 -12 -9 -9 -12 -9 -12 1 0 10 -3 11 -14
2 -10 -9 -16 -9 -21 -1 -5 7 -11 8 -19 1 -6 -5 -17 -6 -24 -2 -7 4 -31 6 -53
5 -49 -2 -67 11 -61 43 5 28 22 20 23 -10 l0 -22 11 23 c16 32 35 26 29 -10
-2 -17 18 -7 24 11 9 31 33 34 27 4 -4 -19 -1 -24 9 -21 8 3 14 10 14 16 0 22
20 14 26 -10 5 -23 5 -23 11 -1 3 12 1 27 -6 34 -9 11 -8 11 6 0 9 -7 22 -10
28 -6 6 4 18 -1 26 -11 14 -18 14 -18 29 0 12 16 19 18 40 8 22 -10 25 -9 25
8 0 17 -7 20 -43 20 -24 0 -49 6 -56 13 -11 10 -12 9 -6 -2 6 -10 1 -12 -26
-6 -19 5 -54 7 -79 5 -25 -1 -56 -3 -70 -4 -25 -1 -50 15 -50 32 0 12 170 3
187 -10 8 -6 13 -3 18 11 7 25 33 17 45 -13z m-405 -2 c14 -15 25 -22 25 -15
0 16 17 14 23 -3 4 -11 1 -13 -10 -9 -12 5 -14 3 -8 -8 7 -11 5 -11 -11 1 -10
8 -22 20 -26 25 -5 7 -10 7 -15 0 -5 -5 -21 -11 -38 -12 -16 -1 -24 0 -17 3 6
3 12 10 12 15 0 5 -14 2 -31 -7 -17 -8 -28 -11 -25 -5 9 14 0 14 -26 0 -15 -8
-19 -8 -14 0 5 7 -2 11 -18 11 -18 0 -24 4 -20 15 5 12 25 15 91 15 78 0 86
-2 108 -26z m20 16 c3 -5 1 -10 -4 -10 -6 0 -11 5 -11 10 0 6 2 10 4 10 3 0 8
-4 11 -10z m41 -1 c4 -8 9 -8 17 0 14 14 37 14 37 0 0 -5 -4 -7 -10 -4 -5 3
-10 1 -10 -4 0 -6 5 -11 10 -11 15 0 12 -17 -4 -23 -10 -4 -13 -1 -10 7 3 8 1
17 -5 21 -6 3 -11 0 -11 -7 0 -8 -5 -6 -11 5 -6 9 -14 15 -20 12 -5 -4 -9 -1
-9 4 0 14 17 14 26 0z m79 2 c3 -5 1 -12 -5 -16 -5 -3 -10 1 -10 9 0 18 6 21
15 7z m15 -41 c0 -5 -2 -10 -4 -10 -3 0 -8 5 -11 10 -3 6 -1 10 4 10 6 0 11
-4 11 -10z m-90 -32 c0 -9 3 -9 12 0 14 14 32 16 23 2 -3 -5 -1 -18 5 -27 11
-17 11 -17 6 0 -3 9 -2 17 2 18 4 0 16 2 27 4 20 4 20 3 1 -10 -18 -14 -18
-15 5 -24 18 -7 -1 -10 -74 -10 -64 -1 -96 3 -92 9 4 6 11 8 16 5 5 -4 9 3 9
15 0 17 4 19 26 14 19 -5 25 -4 20 5 -4 6 -2 11 3 11 6 0 11 -5 11 -12z m680
-25 c0 -3 -9 -16 -20 -30 l-20 -26 0 27 c0 38 -25 28 -26 -10 0 -36 -10 -54
-30 -54 -23 0 -28 29 -10 49 12 13 14 21 7 26 -6 3 -14 -1 -17 -9 -9 -23 -23
-20 -17 3 3 13 -1 21 -14 24 -10 3 19 5 65 5 45 -1 82 -3 82 -5z m-337 -42
c-3 -12 -13 -19 -24 -18 -25 2 -24 10 4 23 12 7 23 12 24 13 0 0 -1 -8 -4 -18z
m330 -13 c-3 -16 -9 -28 -14 -28 -11 0 -11 3 1 36 13 33 20 29 13 -8z m-969
13 c-9 -9 -34 -9 -34 -1 0 5 9 8 20 7 10 -1 17 -3 14 -6z m378 -3 c-8 -8 -9
-15 0 -25 8 -11 7 -12 -6 -7 -11 4 -16 1 -16 -11 0 -12 5 -15 17 -11 14 6 14
4 -2 -14 -23 -26 -10 -56 23 -54 12 1 19 -3 16 -7 -3 -5 0 -9 5 -9 6 0 11 -5
11 -11 0 -6 -6 -7 -12 -2 -7 4 -25 6 -40 4 -16 -1 -28 2 -28 8 0 5 -9 9 -20 8
-11 -1 -20 -5 -20 -10 0 -4 -5 -5 -10 -2 -6 4 -8 10 -5 15 3 5 -8 2 -25 -6
-16 -9 -39 -13 -50 -9 -11 4 -20 2 -20 -4 0 -6 -7 -11 -15 -11 -24 0 -17 17
10 24 14 4 25 13 25 20 0 8 8 17 17 20 11 5 13 10 7 14 -28 18 -22 82 8 82 6
0 4 -8 -5 -18 -22 -24 -22 -33 0 -25 22 8 64 8 86 0 12 -4 14 -2 10 11 -3 9
-2 14 2 10 5 -5 14 1 22 12 8 11 17 20 21 20 3 0 1 -5 -6 -12z m34 -25 c-2
-21 1 -43 5 -48 4 -6 -3 -15 -17 -22 -19 -9 -24 -8 -24 3 0 8 6 14 14 14 9 0
12 7 9 20 -5 19 3 70 12 70 2 0 3 -17 1 -37z m44 -21 c0 -28 -3 -33 -12 -24
-7 7 -13 28 -14 47 -1 28 2 33 13 24 7 -6 13 -28 13 -47z m220 50 c0 -5 -7 -9
-15 -9 -8 0 -12 4 -9 9 3 4 9 8 15 8 5 0 9 -4 9 -8z m30 4 c0 -3 -4 -8 -10
-11 -5 -3 -10 -1 -10 4 0 6 5 11 10 11 6 0 10 -2 10 -4z m-585 -77 c0 -53 4
-73 15 -80 12 -7 10 -8 -7 -9 -25 0 -25 1 -28 98 -1 40 3 62 10 62 7 0 11 -25
10 -71z m48 44 c4 -20 0 -34 -15 -48 -19 -18 -20 -18 -14 -2 3 10 6 32 6 48 0
37 16 38 23 2z m127 17 c0 -5 -4 -10 -9 -10 -6 0 -13 5 -16 10 -3 6 1 10 9 10
9 0 16 -4 16 -10z m40 6 c0 -11 -19 -15 -25 -6 -3 5 1 10 9 10 9 0 16 -2 16
-4z m160 -6 c0 -5 -4 -10 -10 -10 -5 0 -10 5 -10 10 0 6 5 10 10 10 6 0 10 -4
10 -10z m55 0 c-3 -5 -10 -10 -16 -10 -5 0 -9 5 -9 10 0 6 7 10 16 10 8 0 12
-4 9 -10z m282 -32 c-3 -7 -5 -2 -5 12 0 14 2 19 5 13 2 -7 2 -19 0 -25z
m-631 -15 c-11 -11 -17 4 -9 23 7 18 8 18 11 1 2 -10 1 -21 -2 -24z m-576 17
c12 -7 10 -9 -8 -7 -12 0 -22 5 -22 9 0 11 12 10 30 -2z m874 -42 c-2 -24 -3
-46 -3 -50 -1 -5 -6 -8 -12 -8 -7 0 -9 9 -6 21 3 12 2 31 -3 44 -5 14 -5 26 2
33 18 18 25 6 22 -40z m49 38 c3 -8 -1 -17 -10 -20 -20 -8 -27 -1 -20 19 8 19
23 20 30 1z m-883 -7 c0 11 5 10 20 -4 11 -10 20 -14 20 -8 0 16 29 11 47 -9
13 -14 14 -21 5 -30 -7 -7 -13 -21 -13 -32 -1 -18 -2 -18 -6 -3 -3 10 0 23 5
30 7 8 5 17 -6 27 -14 13 -15 12 -9 -4 6 -15 5 -17 -7 -7 -11 9 -15 8 -20 -5
-5 -14 -9 -14 -23 -3 -15 13 -15 12 -4 -9 7 -13 10 -28 7 -35 -2 -7 -5 -3 -6
8 l-1 20 -9 -20 c-7 -17 -9 -17 -9 -2 -1 9 -6 17 -13 17 -6 0 -3 9 7 20 14 16
16 23 7 32 -7 7 -12 17 -12 23 0 5 5 3 10 -5 8 -12 10 -12 10 -1z m1276 -41
c-2 -24 -5 -48 -5 -54 -1 -11 -31 -15 -31 -4 0 3 6 12 13 19 10 10 9 12 -3 11
-32 -5 -48 1 -54 17 -7 16 11 36 25 27 4 -2 12 3 19 11 25 30 40 18 36 -27z
m-1314 10 c5 -31 -2 -68 -13 -68 -5 0 -9 20 -9 45 0 46 16 63 22 23z m1223
-20 c2 -31 -1 -36 -12 -27 -10 9 -13 7 -13 -9 0 -12 -4 -24 -10 -27 -6 -3 -10
5 -10 19 0 13 6 27 13 30 10 5 10 7 0 12 -18 8 -16 25 2 18 18 -7 20 12 3 20
-7 3 -4 5 6 3 15 -1 20 -11 21 -39z m-634 22 c6 0 7 -5 4 -10 -4 -6 -15 -8
-24 -5 -11 3 -18 0 -18 -9 0 -8 6 -12 15 -8 10 3 13 1 8 -6 -5 -9 -36 -10 -66
-3 -2 0 7 12 20 25 14 14 31 23 38 20 8 -2 18 -4 23 -4z m329 0 c0 -5 -5 -10
-11 -10 -5 0 -7 5 -4 10 3 6 8 10 11 10 2 0 4 -4 4 -10z m-673 -40 c-14 -31
-14 -31 -20 -9 -5 16 -1 28 10 36 23 18 25 11 10 -27z m1110 0 c1 -22 -2 -42
-8 -45 -5 -4 -9 7 -9 22 0 16 -6 35 -12 42 -10 11 -10 13 0 7 6 -4 12 -2 12 3
0 6 4 11 8 11 4 0 8 -18 9 -40z m-1258 -13 c-1 -17 -2 -18 -6 -4 -2 9 -9 15
-14 12 -10 -7 -12 8 -3 18 12 11 24 -3 23 -26z m61 8 c0 -14 -4 -25 -10 -25
-11 0 -14 33 -3 43 11 11 13 8 13 -18z m670 11 c0 -8 -4 -17 -9 -20 -10 -7
-23 19 -14 28 11 11 23 6 23 -8z m137 -6 c-1 -20 -8 -25 -20 -14 -7 8 3 34 13
34 5 0 8 -9 7 -20z m280 -42 c-3 -7 -5 -2 -5 12 0 14 2 19 5 13 2 -7 2 -19 0
-25z m-357 12 c0 -5 -8 -10 -17 -10 -15 0 -16 2 -3 10 19 12 20 12 20 0z"/>
<path d="M566 1206 c4 -11 1 -16 -10 -16 -9 0 -16 -4 -16 -10 0 -5 12 -10 26
-10 20 0 25 4 22 22 -2 12 -9 23 -16 26 -7 2 -10 -2 -6 -12z"/>
<path d="M765 1161 c-6 -11 9 -23 19 -14 9 9 7 23 -3 23 -6 0 -12 -4 -16 -9z"/>
<path d="M1653 1268 c-12 -15 -26 -68 -18 -68 6 0 36 72 32 77 -2 2 -9 -2 -14
-9z"/>
<path d="M1680 1250 c0 -5 5 -10 10 -10 6 0 10 5 10 10 0 6 -4 10 -10 10 -5 0
-10 -4 -10 -10z"/>
<path d="M1642 1180 c-16 -27 -16 -27 13 -27 15 0 25 5 25 13 0 8 -5 14 -11
14 -5 0 -7 5 -4 10 3 6 2 10 -2 10 -5 0 -14 -9 -21 -20z"/>
<path d="M541 1094 c0 -11 3 -14 6 -6 3 7 2 16 -1 19 -3 4 -6 -2 -5 -13z"/>
<path d="M470 1060 c0 -16 5 -30 10 -30 6 0 10 14 10 30 0 17 -4 30 -10 30 -5
0 -10 -13 -10 -30z"/>
<path d="M1067 894 c-7 -7 3 -35 19 -51 9 -10 13 -9 18 3 5 14 9 14 23 3 15
-13 15 -12 3 10 -11 22 -13 22 -22 7 -5 -9 -14 -14 -19 -10 -6 4 -6 11 2 20
10 12 9 13 -6 8 -13 -5 -16 -4 -11 4 8 13 3 16 -7 6z"/>
<path d="M1037 816 c-4 -10 -1 -13 8 -9 8 3 12 9 9 14 -7 12 -11 11 -17 -5z"/>
<path d="M1732 1330 c7 -11 17 -20 22 -20 5 0 1 9 -9 20 -10 11 -20 20 -22 20
-2 0 2 -9 9 -20z"/>
<path d="M285 1330 c-4 -7 -3 -16 3 -22 14 -14 45 -2 40 15 -6 16 -34 21 -43
7z"/>
<path d="M1600 1325 c-7 -8 -9 -15 -5 -15 4 0 1 -8 -6 -17 -13 -16 -12 -17 3
-4 10 7 15 17 12 22 -3 5 5 13 18 18 15 7 17 10 7 10 -9 1 -22 -6 -29 -14z"/>
<path d="M1870 1320 c0 -5 5 -10 11 -10 5 0 7 5 4 10 -3 6 -8 10 -11 10 -2 0
-4 -4 -4 -10z"/>
<path d="M1840 1316 c0 -2 8 -10 18 -17 15 -13 16 -12 3 4 -13 16 -21 21 -21
13z"/>
<path d="M666 1302 c-2 -4 -1 -14 4 -22 7 -11 9 -9 7 8 -1 24 -3 26 -11 14z"/>
<path d="M1530 1295 c-19 -22 -8 -25 13 -3 9 10 13 18 8 18 -5 0 -14 -7 -21
-15z"/>
<path d="M1921 1297 c-14 -17 3 -41 23 -34 9 4 16 13 16 21 0 19 -26 28 -39
13z"/>
<path d="M1731 1293 c-1 -17 16 -25 25 -12 4 7 3 9 -4 5 -5 -3 -13 0 -15 6 -4
9 -6 10 -6 1z"/>
<path d="M405 1279 c-4 -6 -5 -12 -2 -15 2 -3 7 2 10 11 7 17 1 20 -8 4z"/>
<path d="M436 1259 c-12 -21 -15 -34 -8 -41 6 -6 12 -6 17 3 5 8 4 10 -3 5
-19 -12 -14 8 8 32 11 11 16 23 12 26 -5 3 -16 -9 -26 -25z"/>
<path d="M273 1264 c-6 -16 15 -37 29 -28 4 3 8 14 8 25 0 23 -28 26 -37 3z"/>
<path d="M1980 1276 c0 -2 8 -10 18 -17 15 -13 16 -12 3 4 -13 16 -21 21 -21
13z"/>
<path d="M2060 1267 c-37 -18 -56 -60 -45 -93 27 -75 114 -82 148 -12 16 33
17 40 3 65 -8 16 -26 34 -41 41 -32 15 -34 15 -65 -1z m84 -40 c11 -8 17 -23
14 -38 -6 -46 -119 -53 -133 -8 -11 34 16 53 81 58 11 0 28 -5 38 -12z"/>
<path d="M2085 1200 c-3 -6 1 -7 9 -4 18 7 21 14 7 14 -6 0 -13 -4 -16 -10z"/>
<path d="M86 1247 c-17 -13 -39 -117 -25 -117 5 0 9 5 9 11 0 14 116 4 135
-11 10 -8 13 -1 13 32 0 24 -2 37 -5 31 -3 -7 -17 -13 -33 -13 -22 0 -29 5
-33 29 -8 37 -37 55 -61 38z m42 -39 c20 -20 14 -28 -23 -28 -38 0 -38 0 -29
24 7 19 35 21 52 4z"/>
<path d="M1924 1229 c-9 -15 12 -33 30 -26 9 4 16 13 16 22 0 17 -35 21 -46 4z"/>
<path d="M228 1223 c7 -3 16 -2 19 1 4 3 -2 6 -13 5 -11 0 -14 -3 -6 -6z"/>
<path d="M1557 1223 c-4 -3 -7 -11 -7 -17 0 -6 5 -5 12 2 6 6 9 14 7 17 -3 3
-9 2 -12 -2z"/>
<path d="M263 1204 c-3 -8 -1 -20 5 -26 15 -15 43 8 35 28 -7 19 -32 18 -40
-2z"/>
<path d="M1809 1193 c-12 -16 -12 -17 2 -6 9 7 20 9 24 5 5 -4 5 -1 1 6 -9 16
-11 15 -27 -5z"/>
<path d="M1296 1185 c-11 -8 -15 -15 -9 -15 6 0 16 7 23 15 16 19 11 19 -14 0z"/>
<path d="M1357 1177 c-3 -8 1 -14 8 -14 7 0 11 6 8 14 -3 7 -6 13 -8 13 -2 0
-5 -6 -8 -13z"/>
<path d="M1930 1160 c0 -23 35 -28 43 -6 7 18 -1 26 -25 26 -11 0 -18 -7 -18
-20z"/>
<path d="M978 1163 c6 -2 18 -2 25 0 6 3 1 5 -13 5 -14 0 -19 -2 -12 -5z"/>
<path d="M263 1144 c-7 -19 11 -39 26 -30 16 10 13 33 -4 40 -9 3 -18 -1 -22
-10z"/>
<path d="M887 1149 c7 -7 15 -10 18 -7 3 3 -2 9 -12 12 -14 6 -15 5 -6 -5z"/>
<path d="M1265 1150 c26 -11 35 -12 35 -2 0 4 -12 8 -27 9 -24 1 -25 1 -8 -7z"/>
<path d="M51 1104 c0 -11 3 -14 6 -6 3 7 2 16 -1 19 -3 4 -6 -2 -5 -13z"/>
<path d="M1933 1104 c-8 -22 18 -37 36 -20 7 8 10 19 7 25 -10 16 -36 13 -43
-5z"/>
<path d="M264 1085 c-3 -8 -3 -19 1 -25 11 -17 35 -11 35 9 0 23 -29 36 -36
16z"/>
<path d="M1933 1044 c-8 -21 13 -42 28 -27 13 13 5 43 -11 43 -6 0 -13 -7 -17
-16z"/>
<path d="M265 1020 c-4 -7 -3 -16 3 -22 14 -14 45 -2 40 15 -6 16 -34 21 -43
7z"/>
<path d="M475 990 c-3 -5 1 -10 10 -10 9 0 13 5 10 10 -3 6 -8 10 -10 10 -2 0
-7 -4 -10 -10z"/>
<path d="M564 984 c3 -8 6 -18 6 -20 0 -3 5 -2 10 1 15 9 12 22 -6 29 -12 5
-15 2 -10 -10z"/>
<path d="M1923 984 c-8 -21 13 -42 28 -27 13 13 5 43 -11 43 -6 0 -13 -7 -17
-16z"/>
<path d="M537 960 c3 -11 7 -20 9 -20 2 0 4 9 4 20 0 11 -4 20 -9 20 -5 0 -7
-9 -4 -20z"/>
<path d="M2070 971 c0 -6 4 -13 10 -16 6 -3 7 1 4 9 -7 18 -14 21 -14 7z"/>
<path d="M107 959 c7 -7 15 -10 18 -7 3 3 -2 9 -12 12 -14 6 -15 5 -6 -5z"/>
<path d="M275 960 c-4 -7 -3 -16 3 -22 14 -14 45 -2 40 15 -6 16 -34 21 -43 7z"/>
<path d="M1826 958 c3 -5 10 -6 15 -3 13 9 11 12 -6 12 -8 0 -12 -4 -9 -9z"/>
<path d="M2115 960 c-8 -13 3 -30 18 -30 8 0 7 3 -2 9 -7 5 -10 14 -7 20 4 6
5 11 2 11 -3 0 -8 -4 -11 -10z"/>
<path d="M86 942 c-3 -5 1 -9 9 -9 8 0 12 4 9 9 -3 4 -7 8 -9 8 -2 0 -6 -4 -9
-8z"/>
<path d="M135 923 c-17 -25 -17 -27 6 -44 23 -18 24 -18 41 4 22 28 22 37 1
53 -25 19 -28 18 -48 -13z m54 -10 c2 -1 -4 -10 -14 -19 -15 -16 -18 -16 -33
0 -10 10 -12 16 -4 16 7 0 12 -5 12 -12 0 -9 3 -8 13 1 10 11 10 14 0 18 -7 3
-13 9 -13 15 0 6 7 5 18 -3 9 -7 19 -14 21 -16z"/>
<path d="M340 940 c0 -5 5 -10 11 -10 5 0 7 5 4 10 -3 6 -8 10 -11 10 -2 0 -4
-4 -4 -10z"/>
<path d="M1913 924 c-8 -21 13 -42 28 -27 13 13 5 43 -11 43 -6 0 -13 -7 -17
-16z"/>
<path d="M240 910 c10 -6 11 -10 3 -10 -7 0 -13 -5 -13 -11 0 -8 5 -8 15 1 16
13 11 30 -8 30 -7 0 -6 -4 3 -10z"/>
<path d="M2055 908 c-11 -6 -21 -12 -23 -13 -1 -1 2 -14 8 -29 8 -22 14 -26
33 -21 34 11 39 20 26 48 -14 30 -16 31 -44 15z m45 -32 c0 -3 -4 -8 -10 -11
-5 -3 -10 -1 -10 4 0 6 5 11 10 11 6 0 10 -2 10 -4z m-30 -16 c0 -5 -2 -10 -4
-10 -3 0 -8 5 -11 10 -3 6 -1 10 4 10 6 0 11 -4 11 -10z"/>
<path d="M297 903 c-14 -13 -6 -33 13 -33 13 0 20 7 20 20 0 19 -20 27 -33 13z"/>
<path d="M86 878 c3 -5 10 -6 15 -3 13 9 11 12 -6 12 -8 0 -12 -4 -9 -9z"/>
<path d="M805 880 c-3 -5 -3 -10 2 -10 4 -1 -3 -7 -16 -14 -19 -11 -21 -14 -7
-19 9 -4 16 -2 16 4 0 6 5 7 10 4 6 -4 10 5 10 19 0 27 -5 32 -15 16z"/>
<path d="M747 862 c5 -12 2 -14 -11 -9 -11 5 -16 3 -14 -5 6 -17 36 -18 42 -2
3 8 7 17 8 21 2 3 -5 7 -14 9 -11 1 -15 -3 -11 -14z"/>
<path d="M1893 864 c-8 -21 13 -42 28 -27 13 13 5 43 -11 43 -6 0 -13 -7 -17
-16z"/>
<path d="M220 860 c-8 -5 -12 -11 -10 -14 3 -2 14 2 24 10 22 15 10 19 -14 4z"/>
<path d="M1507 857 c14 -19 10 -82 -4 -79 -7 1 -13 -2 -13 -8 0 -5 11 -10 24
-10 14 0 28 5 31 10 3 6 3 10 -2 10 -4 0 -8 14 -9 31 -1 21 3 29 12 25 17 -7
28 10 13 20 -21 13 -61 14 -52 1z"/>
<path d="M142 841 c-11 -6 -10 -10 4 -15 9 -3 19 -4 22 -1 3 3 -1 5 -9 6 -8 1
-3 5 11 9 21 7 21 8 5 9 -11 0 -26 -3 -33 -8z"/>
<path d="M310 830 c0 -13 7 -20 20 -20 13 0 20 7 20 20 0 13 -7 20 -20 20 -13
0 -20 -7 -20 -20z"/>
<path d="M370 839 c0 -5 5 -7 10 -4 6 3 10 8 10 11 0 2 -4 4 -10 4 -5 0 -10
-5 -10 -11z"/>
<path d="M227 827 c-3 -8 1 -14 8 -14 7 0 11 6 8 14 -3 7 -6 13 -8 13 -2 0 -5
-6 -8 -13z"/>
<path d="M2091 827 c-8 -10 -7 -14 2 -14 8 0 14 6 14 14 0 7 -1 13 -2 13 -2 0
-8 -6 -14 -13z"/>
<path d="M100 820 c-9 -6 -10 -10 -3 -10 6 0 15 5 18 10 8 12 4 12 -15 0z"/>
<path d="M125 809 c-4 -6 -5 -12 -2 -15 2 -3 7 2 10 11 7 17 1 20 -8 4z"/>
<path d="M738 813 c-24 -6 -23 -18 2 -20 11 -1 20 4 20 13 0 8 -1 13 -2 13 -2
-1 -11 -3 -20 -6z"/>
<path d="M1873 804 c-8 -21 13 -42 28 -27 13 13 5 43 -11 43 -6 0 -13 -7 -17
-16z"/>
<path d="M772 790 c-11 -17 -10 -20 8 -20 21 0 25 7 12 27 -6 9 -11 7 -20 -7z"/>
<path d="M1427 786 c-7 -18 1 -26 27 -26 20 1 20 2 4 14 -10 7 -15 16 -11 19
3 4 2 7 -4 7 -6 0 -13 -6 -16 -14z"/>
<path d="M2101 784 c0 -11 3 -14 6 -6 3 7 2 16 -1 19 -3 4 -6 -2 -5 -13z"/>
<path d="M110 756 c0 -8 4 -17 9 -20 5 -4 7 3 4 14 -6 23 -13 26 -13 6z"/>
<path d="M1896 745 c-11 -8 -15 -15 -9 -15 6 0 16 7 23 15 16 19 11 19 -14 0z"/>
<path d="M679 733 c-13 -16 -12 -17 4 -4 9 7 17 15 17 17 0 8 -8 3 -21 -13z"/>
<path d="M810 740 c-12 -7 -10 -9 7 -7 12 0 19 5 17 9 -6 10 -6 10 -24 -2z"/>
<path d="M363 724 c-8 -21 13 -42 28 -27 13 13 5 43 -11 43 -6 0 -13 -7 -17
-16z"/>
<path d="M420 726 c7 -7 13 -7 20 0 6 6 3 10 -10 10 -13 0 -16 -4 -10 -10z"/>
<path d="M920 724 c0 -8 5 -12 10 -9 6 4 8 11 5 16 -9 14 -15 11 -15 -7z"/>
<path d="M1400 736 c0 -2 7 -7 16 -10 8 -3 12 -2 9 4 -6 10 -25 14 -25 6z"/>
<path d="M145 719 c-4 -6 -4 -13 -1 -16 3 -4 6 -1 6 5 0 6 8 13 18 15 15 4 15
5 0 6 -9 0 -20 -4 -23 -10z"/>
<path d="M255 719 c-4 -6 -4 -13 -1 -16 3 -4 6 -1 6 7 0 10 3 10 16 0 13 -12
8 -17 -36 -43 -43 -25 -53 -27 -67 -15 -9 7 -14 9 -11 3 2 -5 11 -25 18 -42
15 -34 35 -49 45 -32 4 5 1 8 -6 7 -6 -2 -13 2 -16 9 -2 7 14 21 37 33 22 11
38 25 35 29 -2 5 1 9 8 8 6 0 21 1 31 1 19 2 19 2 0 23 -27 30 -51 41 -59 28z"/>
<path d="M630 726 c0 -2 8 -10 18 -17 15 -13 16 -12 3 4 -13 16 -21 21 -21 13z"/>
<path d="M882 710 c-8 -14 -9 -20 -1 -20 6 0 8 -7 5 -17 -4 -10 -4 -14 1 -10
6 7 15 67 9 67 -1 0 -7 -9 -14 -20z"/>
<path d="M1067 724 c-4 -4 -4 -18 -1 -30 8 -32 -4 -31 -16 1 -10 26 -30 34
-30 12 0 -7 5 -18 12 -25 9 -9 9 -12 0 -12 -6 0 -16 9 -23 21 -8 15 -14 18
-22 10 -8 -8 -8 -14 1 -23 19 -19 14 -33 -6 -15 -16 15 -42 23 -42 14 0 -2 17
-22 39 -44 35 -37 40 -40 54 -26 8 8 20 12 26 9 19 -12 12 -24 -11 -19 -19 4
-20 3 -8 -6 8 -6 44 -11 80 -11 56 1 63 2 48 14 -23 17 -23 22 1 22 16 0 19
-11 12 -48 0 -3 -32 -8 -70 -10 -48 -2 -67 0 -64 8 6 15 -24 26 -33 12 -4 -5
0 -14 7 -19 22 -13 0 -24 -47 -23 -42 1 -44 0 -50 -33 -20 -108 14 -252 81
-341 34 -44 100 -102 117 -102 25 0 120 116 154 187 41 84 55 185 37 253 -9
33 -12 35 -49 32 -21 -1 -44 0 -51 2 -18 7 22 82 55 103 15 9 29 18 31 19 1 2
0 8 -4 14 -5 8 -13 6 -26 -6 -11 -9 -22 -14 -26 -11 -4 4 2 13 12 21 14 10 15
15 5 21 -8 5 -18 2 -25 -8 -7 -10 -16 -17 -20 -17 -4 0 -3 6 3 13 7 8 7 18 2
27 -7 11 -11 8 -19 -13 -12 -32 -32 -28 -24 4 4 16 2 20 -8 17 -8 -3 -14 -11
-14 -18 0 -7 -6 -15 -13 -18 -7 -2 -11 4 -10 19 2 12 -3 24 -10 27 -9 3 -13
-3 -10 -18 2 -13 -3 -25 -9 -27 -8 -3 -13 5 -13 21 0 25 -10 33 -23 20z m43
-66 c0 11 45 10 57 -1 3 -4 16 -4 28 -1 13 3 27 -1 34 -10 11 -13 11 -16 -3
-16 -9 0 -16 -8 -16 -21 0 -11 -5 -17 -10 -14 -6 4 -8 11 -5 16 6 9 -10 19
-39 23 -8 1 -18 5 -22 9 -4 3 -12 3 -18 0 -21 -13 -96 -15 -96 -3 0 7 6 10 14
7 8 -3 22 0 32 8 13 9 23 10 31 3 9 -7 13 -7 13 0z m86 -138 l99 0 2 -35 3
-35 -68 1 c-46 0 -61 3 -47 9 22 9 22 9 -14 16 -52 9 -33 15 31 10 37 -3 70
-1 72 3 6 9 -8 11 -103 10 -47 0 -77 4 -81 12 -4 6 -13 10 -21 7 -7 -2 11 -18
39 -36 43 -26 52 -37 57 -69 13 -74 26 -114 44 -132 17 -17 17 -18 -3 -27 -12
-5 -22 -18 -24 -29 -2 -11 -12 -29 -22 -40 -9 -11 -20 -29 -25 -40 -4 -13 -9
-15 -12 -8 -3 7 4 24 15 38 18 23 19 27 3 73 -9 26 -26 59 -39 72 -21 23 -21
25 -5 32 15 6 15 7 2 7 -9 1 -22 8 -29 16 -16 19 -30 19 -30 -1 0 -8 -5 -12
-11 -9 -6 4 -8 13 -5 21 3 8 -1 14 -9 14 -25 0 -27 -20 -3 -39 18 -15 26 -17
37 -8 11 9 13 9 8 0 -4 -6 -1 -14 5 -17 7 -3 0 -3 -17 -1 -16 3 -31 9 -33 15
-2 5 -20 10 -40 11 -33 1 -35 2 -12 9 25 8 25 8 -5 11 l-30 2 30 4 c17 3 38
12 47 20 15 14 21 13 55 -8 26 -16 34 -18 25 -7 -8 10 -10 23 -6 29 5 8 2 10
-8 6 -22 -8 -29 2 -17 25 12 23 4 68 -12 68 -6 0 -9 -7 -5 -15 4 -12 -4 -15
-47 -14 -40 1 -46 3 -27 8 l25 8 -25 5 c-16 3 -9 6 22 7 26 0 48 6 51 14 4 9
8 8 16 -3 10 -14 16 -7 11 15 -1 5 7 2 18 -8 15 -14 38 -17 118 -17z m-183
-47 c-13 -2 -35 -2 -50 0 -16 2 -5 4 22 4 28 0 40 -2 28 -4z m-18 -23 l-50 -7
45 -3 45 -2 -40 -8 c-46 -9 -62 -5 -62 15 0 12 13 15 56 13 l56 -1 -50 -7z
m255 -20 l-55 -7 55 -2 c40 -1 51 -4 40 -11 -10 -6 -11 -10 -2 -10 6 0 12 -4
12 -10 0 -5 -7 -10 -15 -10 -8 0 -15 7 -15 15 0 10 -10 15 -34 15 -28 0 -34
-4 -33 -20 1 -18 2 -18 19 -3 14 13 21 14 30 5 6 -6 8 -15 4 -19 -4 -4 -11 -1
-16 7 -9 14 -12 11 -9 -6 0 -4 -4 -10 -10 -13 -13 -8 -1 -61 14 -60 5 0 11 -4
13 -10 2 -7 -3 -8 -13 -5 -21 9 -41 60 -43 112 l-2 42 58 -2 57 -1 -55 -7z
m-277 -27 c-7 -2 -21 -2 -30 0 -10 3 -4 5 12 5 17 0 24 -2 18 -5z m327 -48 c0
-8 -5 -15 -11 -15 -5 0 -8 -4 -4 -9 10 -17 -18 -24 -30 -8 -7 9 -15 14 -19 10
-4 -4 -4 1 0 11 5 13 9 14 14 5 5 -6 15 -9 25 -6 9 4 13 11 10 17 -3 5 -1 10
4 10 6 0 11 -7 11 -15z m-263 -42 c-20 -2 -52 -2 -70 0 -17 2 0 4 38 4 39 0
53 -2 32 -4z m68 -14 c10 -15 -4 -61 -16 -53 -14 8 -59 -4 -59 -16 0 -6 8 -10
18 -10 15 0 15 -2 2 -11 -12 -8 -11 -9 5 -5 11 3 36 1 55 -3 29 -8 23 -9 -41
-10 -69 -1 -77 1 -82 19 -4 17 -2 20 14 15 13 -5 19 -2 19 10 0 9 12 18 30 22
23 4 30 11 30 29 0 25 14 32 25 13z m-62 -5 c20 -6 20 -7 2 -20 -10 -8 -35
-13 -54 -13 l-36 2 40 7 40 7 -42 2 c-24 0 -43 5 -43 9 0 10 66 15 93 6z m222
-44 c-3 -5 -14 -10 -23 -9 -14 0 -13 2 3 9 27 11 27 11 20 0z m-268 -6 c-3 -3
-12 -4 -19 -1 -8 3 -5 6 6 6 11 1 17 -2 13 -5z m121 -21 c-10 -2 -26 -2 -35 0
-10 3 -2 5 17 5 19 0 27 -2 18 -5z m125 0 c-7 -2 -19 -2 -25 0 -7 3 -2 5 12 5
14 0 19 -2 13 -5z m-13 -33 c-6 -11 -21 -20 -33 -20 -15 0 -18 -3 -9 -8 9 -6
7 -15 -11 -35 -17 -20 -32 -27 -60 -27 -23 0 -36 4 -32 10 3 6 -1 7 -9 4 -9
-3 -16 -1 -16 5 0 6 9 11 20 11 11 0 20 -4 20 -10 0 -5 12 -10 26 -10 14 0 23
4 19 10 -3 5 1 10 9 10 8 0 18 5 22 12 5 7 3 8 -6 3 -8 -5 -11 -3 -8 6 2 8 14
18 26 24 12 5 20 16 17 22 -2 8 4 13 16 13 17 0 18 -3 9 -20z m-132 -17 c-15
-2 -42 -2 -60 0 -18 2 -6 4 27 4 33 0 48 -2 33 -4z m-3 -23 c6 -1 -3 -6 -19
-10 -21 -7 -32 -5 -43 5 -12 13 -10 14 19 11 18 -2 38 -5 43 -6z m32 -66 c-3
-3 -12 -4 -19 -1 -8 3 -5 6 6 6 11 1 17 -2 13 -5z"/>
<path d="M1195 640 c-3 -5 -2 -10 4 -10 5 0 13 5 16 10 3 6 2 10 -4 10 -5 0
-13 -4 -16 -10z"/>
<path d="M1228 463 c12 -2 32 -2 45 0 12 2 2 4 -23 4 -25 0 -35 -2 -22 -4z"/>
<path d="M1441 708 c-11 -30 -25 -106 -25 -143 -1 -53 -21 -43 -24 13 -2 28
-7 52 -12 52 -5 0 -7 -19 -5 -42 13 -138 17 -158 31 -158 16 0 19 -16 3 -25
-6 -4 -16 1 -23 11 -10 13 -15 14 -21 4 -5 -9 -4 -11 3 -6 7 4 12 3 12 -3 0
-5 -5 -13 -10 -16 -6 -4 -8 -11 -4 -16 4 -6 10 -6 19 1 7 6 19 9 26 8 7 -2 13
3 14 10 0 15 33 42 51 42 16 0 146 61 141 66 -2 2 -27 -5 -56 -17 -28 -12 -54
-19 -58 -15 -9 9 28 47 39 40 5 -3 31 15 58 40 54 50 54 61 0 21 -21 -16 -36
-21 -40 -15 -4 6 -22 -6 -42 -30 -36 -41 -68 -46 -68 -12 0 13 3 12 16 -4 14
-18 15 -18 9 6 -4 16 -3 20 3 12 7 -10 12 -9 24 5 8 10 18 25 21 34 3 9 22 29
42 45 38 29 96 35 135 14 10 -5 25 -10 32 -10 7 1 3 6 -10 13 -24 14 -20 27 9
27 10 0 21 4 24 10 4 6 -7 8 -27 4 -31 -5 -32 -5 -14 10 19 16 19 16 -5 16
-13 0 -45 7 -70 16 -79 29 -151 -1 -136 -56 3 -11 -3 -26 -14 -36 -10 -9 -19
-27 -19 -39 0 -13 -6 -28 -14 -34 -8 -6 -16 -24 -18 -39 -3 -15 -9 -36 -13
-47 -8 -20 -8 -20 13 -1 31 27 37 14 7 -14 -14 -13 -25 -18 -25 -11 0 7 -4 9
-10 6 -14 -9 -13 -5 20 87 21 58 27 84 18 89 -8 5 -8 21 -1 58 11 54 8 66 -6
29z m200 -5 c46 -18 40 -26 -28 -38 -27 -4 -43 -3 -43 3 0 15 34 24 67 17 21
-5 24 -4 13 4 -20 14 -73 14 -88 -1 -17 -17 -28 -2 -12 17 16 19 40 19 91 -2z
m-76 -51 l20 -14 -20 7 c-11 4 -28 10 -37 12 -10 3 -18 9 -18 14 0 10 28 1 55
-19z m-15 -20 c0 -5 -9 -17 -19 -26 -22 -20 -40 -4 -21 19 13 16 40 20 40 7z
m-45 -53 c6 -19 0 -38 -9 -28 -10 12 -16 49 -7 49 5 0 13 -9 16 -21z"/>
<path d="M1914 715 c-9 -23 5 -67 28 -92 27 -29 93 -32 106 -5 14 25 -3 61
-34 72 -30 12 -54 -1 -54 -29 -1 -12 -5 -11 -21 8 -11 14 -17 31 -14 42 7 22
-3 26 -11 4z m114 -68 c32 -25 -9 -38 -43 -14 -10 8 -15 19 -11 25 7 11 31 6
54 -11z"/>
<path d="M1950 725 c0 -7 30 -13 34 -7 3 4 -4 9 -15 9 -10 1 -19 0 -19 -2z"/>
<path d="M2036 709 c21 -23 23 -23 20 -2 -2 9 -11 17 -20 19 -17 2 -17 2 0
-17z"/>
<path d="M610 711 c0 -9 -7 -11 -21 -8 -13 3 -19 1 -16 -6 2 -7 11 -11 20 -11
9 1 14 -2 11 -7 -8 -13 -21 -11 -38 7 -12 12 -16 12 -16 2 -1 -9 -5 -7 -14 5
-22 29 -29 19 -7 -12 12 -16 21 -41 21 -55 0 -14 4 -26 9 -26 5 0 14 -13 20
-28 7 -16 33 -46 59 -68 44 -37 50 -39 113 -38 57 0 66 -2 62 -17 -6 -21 15
-35 30 -20 8 8 6 11 -7 11 -16 0 -16 2 -6 16 11 13 10 16 -9 21 -18 5 -21 10
-16 32 4 14 12 33 20 41 15 18 13 66 -5 100 -16 30 -25 37 -69 50 -64 18 -121
-41 -106 -109 4 -17 10 -31 14 -31 3 0 7 -12 8 -27 0 -16 -1 -20 -4 -11 -2 9
-14 20 -26 24 -30 9 -48 30 -42 47 3 7 -1 20 -10 27 -20 17 -19 40 3 40 23 0
43 32 31 51 -7 11 -9 12 -9 0z m149 -27 c2 -2 2 -7 -2 -10 -10 -10 -58 6 -52
17 6 8 42 4 54 -7z m-47 -40 c-5 -27 -9 -29 -27 -14 -10 8 -15 9 -15 1 0 -6 5
-11 10 -11 6 0 10 -4 10 -10 0 -5 -9 -10 -21 -10 -15 0 -19 4 -15 16 3 9 6 20
6 25 0 5 7 9 15 9 8 0 15 5 15 11 0 6 6 9 13 6 6 -2 10 -13 9 -23z m78 18 c0
-15 -22 -30 -36 -25 -8 3 -14 0 -14 -7 0 -6 -4 -8 -10 -5 -17 10 -11 21 18 32
35 14 42 15 42 5z m29 -53 c3 -23 2 -23 -16 -7 -14 13 -22 15 -30 7 -6 -6 -17
-9 -25 -7 -14 5 40 37 57 34 6 -2 12 -13 14 -27z m-94 -9 c3 -5 1 -10 -4 -10
-6 0 -11 5 -11 10 0 6 2 10 4 10 3 0 8 -4 11 -10z m84 -39 c-1 -13 -2 -13 -6
2 -2 9 -9 17 -14 17 -5 0 -9 5 -9 11 0 8 5 8 15 -1 8 -7 14 -20 14 -29z m-105
10 c18 -15 21 -31 6 -31 -5 0 -10 6 -10 14 0 8 -7 13 -16 12 -9 0 -19 4 -21
11 -5 15 20 11 41 -6z m66 9 c0 -5 -4 -10 -10 -10 -5 0 -10 5 -10 10 0 6 5 10
10 10 6 0 10 -4 10 -10z m-20 -25 c0 -8 -4 -15 -10 -15 -5 0 -10 7 -10 15 0 8
5 15 10 15 6 0 10 -7 10 -15z m40 1 c0 -2 -7 -6 -15 -10 -8 -3 -15 -1 -15 4 0
6 7 10 15 10 8 0 15 -2 15 -4z m-145 -34 c-3 -3 -11 0 -18 7 -9 10 -8 11 6 5
10 -3 15 -9 12 -12z m145 2 c0 -8 -4 -13 -9 -10 -4 3 -17 -1 -27 -9 -18 -14
-18 -14 5 -15 13 0 22 -3 18 -6 -11 -12 -54 5 -54 21 0 9 6 14 14 11 7 -3 13
-1 13 5 0 6 5 7 10 4 6 -3 10 -1 10 4 0 6 5 11 10 11 6 0 10 -7 10 -16z m-85
-32 c-8 -9 -25 20 -18 31 3 5 10 2 15 -7 6 -10 7 -20 3 -24z"/>
<path d="M1814 695 c-7 -18 3 -35 21 -35 18 0 26 25 12 39 -15 15 -27 14 -33
-4z"/>
<path d="M2073 697 c0 -8 6 -14 14 -14 9 0 10 4 2 14 -6 7 -12 13 -14 13 -1 0
-2 -6 -2 -13z"/>
<path d="M460 686 c0 -7 6 -19 13 -25 10 -8 14 -7 14 4 0 8 -4 12 -9 9 -4 -3
-8 -1 -8 5 0 5 6 12 13 14 7 3 5 6 -5 6 -10 1 -18 -5 -18 -13z"/>
<path d="M390 665 c0 -18 24 -30 39 -21 16 10 1 36 -20 36 -10 0 -19 -7 -19
-15z"/>
<path d="M344 649 c-4 -7 -3 -9 4 -5 5 3 13 0 15 -6 4 -9 6 -10 6 -1 1 17 -16
25 -25 12z"/>
<path d="M1783 644 c-8 -21 13 -42 28 -27 13 13 5 43 -11 43 -6 0 -13 -7 -17
-16z"/>
<path d="M436 633 c-3 -4 -6 -15 -6 -25 0 -24 33 -21 38 3 3 17 -21 33 -32 22z"/>
<path d="M1666 597 c3 -10 9 -15 12 -12 3 3 0 11 -7 18 -10 9 -11 8 -5 -6z"/>
<path d="M1743 594 c-8 -21 13 -42 28 -27 13 13 5 43 -11 43 -6 0 -13 -7 -17
-16z"/>
<path d="M1825 600 c-3 -6 1 -7 9 -4 18 7 21 14 7 14 -6 0 -13 -4 -16 -10z"/>
<path d="M1265 591 c-3 -5 -2 -12 3 -15 5 -3 9 1 9 9 0 17 -3 19 -12 6z"/>
<path d="M324 565 c-3 -14 -10 -22 -15 -19 -16 10 -47 -6 -52 -27 -8 -32 35
-71 65 -60 13 4 24 18 26 30 2 15 11 21 28 21 30 0 40 23 26 56 -16 35 -69 34
-78 -1z m55 -28 c-22 -17 -24 -18 -27 -3 -2 9 2 24 9 32 9 11 15 12 26 2 13
-10 12 -15 -8 -31z m-59 -25 c0 -24 -19 -42 -36 -35 -18 7 -18 18 2 37 21 21
34 20 34 -2z"/>
<path d="M472 577 c-15 -17 1 -42 23 -33 18 6 17 37 -1 43 -6 2 -16 -2 -22
-10z"/>
<path d="M1945 570 c10 -11 20 -20 23 -20 3 0 -3 9 -13 20 -10 11 -20 20 -23
20 -3 0 3 -9 13 -20z"/>
<path d="M913 555 c0 -8 4 -12 9 -9 5 3 6 10 3 15 -9 13 -12 11 -12 -6z"/>
<path d="M1824 555 c-12 -29 7 -65 46 -91 35 -23 44 -25 65 -16 37 17 33 53
-10 91 -39 34 -91 42 -101 16z m116 -69 c7 -9 10 -19 6 -23 -15 -15 -123 67
-112 86 8 12 78 -31 106 -63z"/>
<path d="M1702 538 c2 -12 10 -23 18 -23 22 0 19 39 -3 43 -15 3 -18 -1 -15
-20z"/>
<path d="M510 520 c0 -13 7 -20 20 -20 13 0 20 7 20 20 0 13 -7 20 -20 20 -13
0 -20 -7 -20 -20z"/>
<path d="M1986 517 c3 -10 9 -15 12 -12 3 3 0 11 -7 18 -10 9 -11 8 -5 -6z"/>
<path d="M425 509 c-11 -16 -1 -19 13 -3 7 8 8 14 3 14 -5 0 -13 -5 -16 -11z"/>
<path d="M1656 504 c-8 -20 1 -34 20 -34 20 0 30 30 13 41 -20 12 -26 11 -33
-7z"/>
<path d="M844 499 c-4 -7 -3 -9 4 -5 5 3 13 0 15 -6 4 -9 6 -10 6 -1 1 17 -16
25 -25 12z"/>
<path d="M557 486 c-8 -19 15 -37 32 -26 17 10 7 40 -13 40 -7 0 -16 -6 -19
-14z"/>
<path d="M445 468 c-11 -6 -21 -12 -23 -14 -2 -1 4 -14 14 -29 16 -25 16 -27
-4 -47 -23 -23 -55 -18 -50 8 2 9 -3 19 -9 21 -20 7 -15 -32 5 -50 24 -22 55
-21 75 1 21 23 21 41 1 70 -22 32 -9 40 19 14 24 -22 47 -29 47 -14 0 9 -43
52 -51 52 -2 0 -13 -6 -24 -12z"/>
<path d="M1613 464 c-8 -21 13 -42 28 -27 13 13 5 43 -11 43 -6 0 -13 -7 -17
-16z"/>
<path d="M1742 463 c-23 -9 -33 -40 -21 -67 16 -34 47 -43 68 -21 9 10 11 15
5 12 -15 -8 -64 30 -64 49 0 8 4 14 9 14 17 0 59 -40 71 -70 11 -25 10 -34 -5
-56 -12 -19 -13 -25 -4 -22 8 3 20 21 27 40 12 31 12 40 -3 71 -12 27 -55 61
-68 56 -1 0 -8 -3 -15 -6z"/>
<path d="M605 450 c-4 -7 -3 -16 3 -22 14 -14 45 -2 40 15 -6 16 -34 21 -43 7z"/>
<path d="M327 429 c7 -7 15 -10 18 -7 3 3 -2 9 -12 12 -14 6 -15 5 -6 -5z"/>
<path d="M1557 426 c-7 -18 1 -26 25 -26 13 0 18 6 16 17 -4 22 -34 29 -41 9z"/>
<path d="M1679 435 c-1 -3 -2 -8 -3 -12 -1 -5 -5 -14 -9 -20 -6 -9 -3 -11 7
-7 8 3 14 14 13 25 -1 18 -5 25 -8 14z"/>
<path d="M1844 428 c-4 -7 -3 -8 4 -4 6 4 24 -1 39 -10 l28 -16 -25 21 c-29
24 -36 25 -46 9z"/>
<path d="M662 417 c-15 -17 1 -42 23 -33 18 6 17 37 -1 43 -6 2 -16 -2 -22
-10z"/>
<path d="M1341 394 c0 -11 3 -14 6 -6 3 7 2 16 -1 19 -3 4 -6 -2 -5 -13z"/>
<path d="M1504 395 c-4 -10 -1 -21 7 -26 20 -12 34 -5 34 17 0 24 -33 31 -41
9z"/>
<path d="M713 384 c-8 -21 13 -42 28 -27 13 13 5 43 -11 43 -6 0 -13 -7 -17
-16z"/>
<path d="M1871 377 c-13 -21 -12 -21 5 -5 10 10 16 20 13 22 -3 3 -11 -5 -18
-17z"/>
<path d="M553 380 c-23 -9 -40 -51 -28 -69 10 -17 25 -13 25 7 1 21 23 52 39
52 21 0 11 -30 -23 -66 -28 -30 -40 -36 -65 -32 -38 6 -31 -8 8 -17 74 -16
143 73 93 118 -21 19 -19 19 -49 7z"/>
<path d="M1452 358 c2 -12 10 -23 18 -23 22 0 19 39 -3 43 -15 3 -18 -1 -15
-20z"/>
<path d="M766 355 c-6 -18 29 -41 39 -25 10 16 -2 40 -19 40 -7 0 -16 -7 -20
-15z"/>
<path d="M1567 359 c7 -7 15 -10 18 -7 3 3 -2 9 -12 12 -14 6 -15 5 -6 -5z"/>
<path d="M1612 350 c-14 -24 -16 -33 -2 -25 11 7 70 -71 70 -92 0 -7 -5 -13
-12 -13 -6 0 -9 -3 -5 -6 3 -3 23 6 44 21 21 15 30 25 21 22 -12 -4 -27 10
-55 54 -21 32 -40 59 -43 59 -3 0 -11 -9 -18 -20z"/>
<path d="M1705 359 c-4 -6 -5 -12 -2 -15 2 -3 7 2 10 11 7 17 1 20 -8 4z"/>
<path d="M1401 350 c-17 -10 -7 -40 13 -40 7 0 16 6 19 14 8 19 -15 37 -32 26z"/>
<path d="M479 334 c-20 -24 -19 -40 3 -40 17 0 17 2 4 11 -13 10 -13 13 2 28
9 9 14 17 10 17 -3 0 -12 -7 -19 -16z"/>
<path d="M656 342 c-3 -5 1 -9 9 -9 8 0 12 4 9 9 -3 4 -7 8 -9 8 -2 0 -6 -4
-9 -8z"/>
<path d="M826 334 c-7 -19 1 -34 19 -34 21 0 28 19 15 35 -16 19 -26 19 -34
-1z"/>
<path d="M1341 330 c-17 -10 -7 -40 13 -40 7 0 16 6 19 14 8 19 -15 37 -32 26z"/>
<path d="M878 273 c7 -3 16 -2 19 1 4 3 -2 6 -13 5 -11 0 -14 -3 -6 -6z"/>
<path d="M850 240 c-6 -11 -8 -20 -6 -20 3 0 10 9 16 20 6 11 8 20 6 20 -3 0
-10 -9 -16 -20z"/>
<path d="M1626 251 c-3 -5 1 -11 9 -14 9 -4 12 -1 8 9 -6 16 -10 17 -17 5z"/>
<path d="M752 236 c-18 -9 -22 -16 -17 -36 9 -37 20 -43 46 -28 13 7 25 14 27
15 2 0 -4 15 -13 32 -8 17 -17 30 -18 30 -1 -1 -12 -7 -25 -13z m42 -46 c-6
-5 -24 21 -24 34 0 6 6 1 14 -10 8 -10 12 -21 10 -24z m-34 26 c0 -3 -4 -8
-10 -11 -5 -3 -10 -1 -10 4 0 6 5 11 10 11 6 0 10 -2 10 -4z m10 -26 c0 -5 -5
-10 -11 -10 -5 0 -7 5 -4 10 3 6 8 10 11 10 2 0 4 -4 4 -10z"/>
<path d="M1440 224 c-6 -14 -14 -22 -20 -19 -5 3 -7 0 -5 -7 7 -17 57 -40 66
-31 4 5 10 19 14 33 4 20 1 27 -20 37 -24 10 -27 9 -35 -13z m14 -18 c-3 -9
-10 -16 -15 -16 -5 0 -4 9 3 20 14 22 21 20 12 -4z m36 4 c0 -5 -4 -10 -10
-10 -5 0 -10 5 -10 10 0 6 5 10 10 10 6 0 10 -4 10 -10z m-10 -24 c0 -3 -4 -8
-10 -11 -5 -3 -10 -1 -10 4 0 6 5 11 10 11 6 0 10 -2 10 -4z"/>
<path d="M1384 233 c4 -7 4 -19 -1 -25 -14 -23 -12 -37 5 -30 11 4 12 7 4 10
-10 3 -10 7 -1 18 10 12 9 17 -1 27 -10 9 -11 9 -6 0z"/>
<path d="M910 191 c0 -6 4 -13 10 -16 6 -3 7 1 4 9 -7 18 -14 21 -14 7z"/>
<path d="M963 145 c0 -8 4 -12 9 -9 5 3 6 10 3 15 -9 13 -12 11 -12 -6z"/>
<path d="M1265 141 c-3 -5 -2 -12 3 -15 5 -3 9 1 9 9 0 17 -3 19 -12 6z"/>
<path d="M748 133 c6 -2 18 -2 25 0 6 3 1 5 -13 5 -14 0 -19 -2 -12 -5z"/>
<path d="M1458 133 c7 -3 16 -2 19 1 4 3 -2 6 -13 5 -11 0 -14 -3 -6 -6z"/>
<path d="M1206 112 c-3 -4 4 -9 15 -9 23 -2 25 3 4 10 -8 4 -16 3 -19 -1z"/>
<path d="M993 63 c9 -2 23 -2 30 0 6 3 -1 5 -18 5 -16 0 -22 -2 -12 -5z"/>
<path d="M1448 2228 c5 -5 16 -8 23 -6 8 3 3 7 -10 11 -17 4 -21 3 -13 -5z"/>
<path d="M728 2203 c7 -3 16 -2 19 1 4 3 -2 6 -13 5 -11 0 -14 -3 -6 -6z"/>
<path d="M566 2141 c-4 -5 3 -7 14 -4 23 6 26 13 6 13 -8 0 -17 -4 -20 -9z"/>
<path d="M470 2080 c-9 -6 -10 -10 -3 -10 6 0 15 5 18 10 8 12 4 12 -15 0z"/>
<path d="M1800 2075 c0 -7 30 -13 34 -7 3 4 -4 9 -15 9 -10 1 -19 0 -19 -2z"/>
<path d="M420 2055 c-19 -22 -8 -25 13 -3 9 10 13 18 8 18 -5 0 -14 -7 -21
-15z"/>
<path d="M1800 2052 c0 -15 28 -23 36 -9 4 7 4 9 -1 5 -4 -4 -14 -3 -22 3 -8
7 -13 8 -13 1z"/>
<path d="M1856 2002 c-2 -4 4 -8 14 -8 10 0 16 4 14 8 -3 4 -9 8 -14 8 -5 0
-11 -4 -14 -8z"/>
<path d="M325 1970 c3 -5 8 -10 11 -10 2 0 4 5 4 10 0 6 -5 10 -11 10 -5 0 -7
-4 -4 -10z"/>
<path d="M1980 1871 c0 -6 4 -13 10 -16 6 -3 7 1 4 9 -7 18 -14 21 -14 7z"/>
<path d="M200 1839 c0 -5 5 -7 10 -4 6 3 10 8 10 11 0 2 -4 4 -10 4 -5 0 -10
-5 -10 -11z"/>
<path d="M2046 1837 c3 -10 9 -15 12 -12 3 3 0 11 -7 18 -10 9 -11 8 -5 -6z"/>
<path d="M160 1791 c0 -6 4 -13 10 -16 6 -3 7 1 4 9 -7 18 -14 21 -14 7z"/>
<path d="M16 727 c3 -10 9 -15 12 -12 3 3 0 11 -7 18 -10 9 -11 8 -5 -6z"/>
<path d="M40 660 c0 -5 5 -10 11 -10 5 0 7 5 4 10 -3 6 -8 10 -11 10 -2 0 -4
-4 -4 -10z"/>
<path d="M2208 653 c7 -3 16 -2 19 1 4 3 -2 6 -13 5 -11 0 -14 -3 -6 -6z"/>
<path d="M2069 483 c-13 -17 -13 -17 6 -3 11 8 22 16 24 17 2 2 0 3 -6 3 -6 0
-17 -8 -24 -17z"/>
<path d="M2065 420 c-3 -5 -1 -10 4 -10 6 0 11 5 11 10 0 6 -2 10 -4 10 -3 0
-8 -4 -11 -10z"/>
<path d="M265 349 c-4 -6 -4 -13 -1 -16 3 -4 6 -1 6 6 0 7 5 9 12 5 7 -4 8 -3
4 4 -9 15 -13 15 -21 1z"/>
<path d="M335 281 c-3 -5 -2 -12 3 -15 5 -3 9 1 9 9 0 17 -3 19 -12 6z"/>
<path d="M412 204 c10 -10 20 -16 22 -13 3 3 -5 11 -17 18 -21 13 -21 12 -5
-5z"/>
<path d="M1819 213 c0 -5 -2 -16 -4 -26 -3 -14 -1 -16 10 -7 8 6 11 18 8 26
-6 15 -13 19 -14 7z"/>
<path d="M1765 180 c-3 -6 1 -7 9 -4 18 7 21 14 7 14 -6 0 -13 -4 -16 -10z"/>
<path d="M1661 113 c-1 -17 16 -25 25 -12 4 7 3 9 -4 5 -5 -3 -13 0 -15 6 -4
9 -6 10 -6 1z"/>
<path d="M518 93 c7 -3 16 -2 19 1 4 3 -2 6 -13 5 -11 0 -14 -3 -6 -6z"/>
<path d="M647 29 c7 -7 15 -10 18 -7 3 3 -2 9 -12 12 -14 6 -15 5 -6 -5z"/>
</g>
</svg>
