<?xml version="1.0" encoding="UTF-8"?>
<svg version="1.1" xmlns="http://www.w3.org/2000/svg" width="433" height="116">
<path d="M0 0 C142.89 0 285.78 0 433 0 C433 38.28 433 76.56 433 116 C290.11 116 147.22 116 0 116 C0 77.72 0 39.44 0 0 Z " fill="#FDFDFD" transform="translate(0,0)"/>
<path d="M0 0 C0.83577072 -0.00570007 1.67154144 -0.01140015 2.53263855 -0.01727295 C4.31235482 -0.02674717 6.09208883 -0.03326649 7.87182617 -0.03710938 C10.55615626 -0.04669884 13.23968185 -0.07764809 15.92382812 -0.109375 C38.68946421 -0.25378136 38.68946421 -0.25378136 44.86450195 4.94824219 C49.13050755 9.58097345 50.0982094 13.73470937 50.0078125 19.921875 C49.57657425 24.50084114 47.71384414 27.30713814 44.48046875 30.453125 C41.64620602 32.29869143 39.04045729 33.29684913 35.79296875 34.203125 C36.42190451 37.62511834 37.73396047 39.85251464 39.734375 42.6796875 C40.31767578 43.515 40.90097656 44.3503125 41.50195312 45.2109375 C42.11361328 46.07460937 42.72527344 46.93828125 43.35546875 47.828125 C44.56928532 49.54653338 45.77913795 51.26775088 46.984375 52.9921875 C47.52263916 53.75225098 48.06090332 54.51231445 48.61547852 55.29541016 C49.79296875 57.203125 49.79296875 57.203125 49.79296875 59.203125 C45.31801549 59.81706676 41.25220352 60.01389496 36.79296875 59.203125 C33.20519699 56.46337202 31.13087304 53.02384385 28.79296875 49.203125 C27.33882526 47.01283756 25.88052582 44.82530328 24.41796875 42.640625 C23.77085937 41.62871094 23.12375 40.61679688 22.45703125 39.57421875 C21.01070384 37.11398659 21.01070384 37.11398659 18.79296875 36.203125 C16.07870734 35.97071995 13.38663108 35.78403698 10.66796875 35.640625 C8.06921875 35.49625 5.47046875 35.351875 2.79296875 35.203125 C2.79296875 43.123125 2.79296875 51.043125 2.79296875 59.203125 C-0.83703125 59.203125 -4.46703125 59.203125 -8.20703125 59.203125 C-9.92526215 57.4848941 -9.33457446 55.21714751 -9.33642578 52.87304688 C-9.33957794 51.73516724 -9.3427301 50.5972876 -9.34597778 49.42492676 C-9.34395355 48.18641968 -9.34192932 46.9479126 -9.33984375 45.671875 C-9.34080048 44.41048706 -9.3417572 43.14909912 -9.34274292 41.8494873 C-9.343425 39.17615362 -9.34206654 36.50291063 -9.33740234 33.82958984 C-9.33170506 30.39605809 -9.33498426 26.9626045 -9.34097481 23.52907562 C-9.34544887 20.26417257 -9.34232008 16.99927907 -9.33984375 13.734375 C-9.34186798 12.49586792 -9.34389221 11.25736084 -9.34597778 9.98132324 C-9.34282562 8.8434436 -9.33967346 7.70556396 -9.33642578 6.53320312 C-9.33563019 5.52584106 -9.33483459 4.518479 -9.33401489 3.48059082 C-9.04933552 -1.62516562 -4.0034132 0.02099792 0 0 Z " fill="#020202" transform="translate(159.20703125,55.796875)"/>
<path d="M0 0 C1.59134766 -0.02513672 1.59134766 -0.02513672 3.21484375 -0.05078125 C6.58247963 0.37883485 6.95865288 0.75737949 9.0625 3.3125 C10.35073401 5.47336259 11.56747174 7.62683922 12.75 9.84375 C13.09377686 10.47607544 13.43755371 11.10840088 13.79174805 11.7598877 C15.25733485 14.45600181 16.71058915 17.15870637 18.16503906 19.86083984 C19.23079624 21.83663364 20.3027357 23.80898229 21.375 25.78125 C21.70008545 26.39069458 22.0251709 27.00013916 22.36010742 27.62805176 C23.96914161 30.58616067 25.49464678 33.10414623 28.0625 35.3125 C28.32297119 34.61721191 28.58344238 33.92192383 28.85180664 33.20556641 C30.97951644 28.1212024 33.78045212 23.37552599 36.45727539 18.56445312 C37.49893734 16.68941284 38.53189095 14.80975079 39.56445312 12.9296875 C40.22864159 11.73147962 40.89333792 10.5335531 41.55859375 9.3359375 C42.15857178 8.25231934 42.7585498 7.16870117 43.37670898 6.05224609 C44.80508486 3.73085086 45.93181633 1.98645579 48.0625 0.3125 C50.91015625 -0.05078125 50.91015625 -0.05078125 54.125 0 C55.18847656 0.00386719 56.25195312 0.00773437 57.34765625 0.01171875 C60.0625 0.3125 60.0625 0.3125 62.0625 2.3125 C62.30973816 4.67225647 62.30973816 4.67225647 62.30541992 7.66430664 C62.31003487 9.34098167 62.31003487 9.34098167 62.31474304 11.05152893 C62.30396477 12.86873695 62.30396477 12.86873695 62.29296875 14.72265625 C62.29251053 15.9604332 62.29205231 17.19821014 62.2915802 18.47349548 C62.2877786 21.76608047 62.27475824 25.05847359 62.25811768 28.35101318 C62.24466164 31.70601647 62.24784184 35.0609863 62.24804688 38.41601562 C62.24313168 40.95573117 62.23730335 43.49544515 62.23046875 46.03515625 C62.22935593 47.2486525 62.2282431 48.46214874 62.22709656 49.7124176 C62.22071671 50.8270488 62.21433685 51.94167999 62.20776367 53.09008789 C62.20395187 54.07666885 62.20014008 55.06324982 62.19621277 56.07972717 C62.0625 58.3125 62.0625 58.3125 61.0625 59.3125 C57.4325 59.3125 53.8025 59.3125 50.0625 59.3125 C49.7325 46.1125 49.4025 32.9125 49.0625 19.3125 C44.06178891 28.77733175 44.06178891 28.77733175 39.07177734 38.24780273 C35.40139901 45.18421702 31.64138739 51.91852848 27.0625 58.3125 C23.51792008 55.1487143 21.39477575 51.6369891 19.2421875 47.46484375 C18.89745392 46.81173721 18.55272034 46.15863068 18.19754028 45.48573303 C17.1038951 43.41072788 16.02035522 41.33065305 14.9375 39.25 C13.84552556 37.16687468 12.75148662 35.08485475 11.65603638 33.0035553 C10.97687649 31.71158335 10.30007792 30.41836663 9.62594604 29.12376404 C8.21020725 26.41694254 6.75948136 23.85797203 5.0625 21.3125 C5.03744385 22.42810303 5.0123877 23.54370605 4.98657227 24.69311523 C4.89266579 28.8174259 4.79240486 32.9415615 4.69018555 37.06567383 C4.646773 38.8533927 4.60510271 40.64115474 4.56518555 42.42895508 C4.5076354 44.99313391 4.44389797 47.55709412 4.37890625 50.12109375 C4.35383751 51.32734657 4.35383751 51.32734657 4.32826233 52.55796814 C4.17637171 58.19862829 4.17637171 58.19862829 3.0625 59.3125 C1.39820949 59.41073937 -0.27031931 59.44223631 -1.9375 59.4375 C-3.29875 59.44136719 -3.29875 59.44136719 -4.6875 59.4453125 C-6.9375 59.3125 -6.9375 59.3125 -7.9375 58.3125 C-8.04160433 56.57413709 -8.07603527 54.83155223 -8.08276367 53.09008789 C-8.08914352 51.9754567 -8.09552338 50.8608255 -8.10209656 49.7124176 C-8.10320938 48.49892136 -8.1043222 47.28542511 -8.10546875 46.03515625 C-8.10879715 44.79833603 -8.11212555 43.56151581 -8.11555481 42.28721619 C-8.1206293 39.66519545 -8.12296298 37.04316822 -8.12280273 34.42114258 C-8.12272129 31.72543658 -8.12968657 29.02989981 -8.14331055 26.33422852 C-8.16155346 22.46365102 -8.16653586 18.59327233 -8.16796875 14.72265625 C-8.17515427 13.51118423 -8.18233978 12.29971222 -8.18974304 11.05152893 C-8.18666641 9.93374557 -8.18358978 8.81596222 -8.18041992 7.66430664 C-8.18184494 6.67693008 -8.18326996 5.68955353 -8.18473816 4.67225647 C-7.6508029 -0.42387101 -4.30897239 0.01566899 0 0 Z " fill="#060606" transform="translate(231.9375,55.6875)"/>
<path d="M0 0 C0.72614502 0.1652417 1.45229004 0.3304834 2.20043945 0.50073242 C6.05102139 1.45898123 8.97769962 2.50446017 11.9375 5.1875 C11.47566182 9.34404359 11.05740898 11.40216571 7.9375 14.1875 C7.380625 13.99414062 6.82375 13.80078125 6.25 13.6015625 C-4.59260196 9.90189089 -16.21847168 6.25422851 -27.31640625 11.21484375 C-32.95996132 14.35856906 -36.16168763 17.85145878 -38.0625 24.1875 C-39.10229394 30.39160385 -37.8507413 35.48777372 -34.7734375 40.9453125 C-31.57382333 45.13841418 -28.15104219 46.94222943 -23.0625 48.1875 C-14.31515472 49.18441624 -5.51651284 48.64684919 2.9375 46.1875 C2.96438151 44.54175434 2.98384123 42.89588587 3 41.25 C3.01160156 40.33347656 3.02320313 39.41695312 3.03515625 38.47265625 C3.19699049 36.22156673 3.19699049 36.22156673 1.9375 35.1875 C-0.89957088 34.9764782 -3.72147646 34.81142187 -6.5625 34.6875 C-14.92736486 34.32263514 -14.92736486 34.32263514 -16.0625 33.1875 C-16.1875 30.1875 -16.1875 30.1875 -16.0625 27.1875 C-14.20535943 25.33035943 -11.13742951 26.05701319 -8.65625 26.0546875 C-7.35558594 26.05339844 -6.05492187 26.05210938 -4.71484375 26.05078125 C-3.69366455 26.05392334 -3.69366455 26.05392334 -2.65185547 26.05712891 C-0.57121485 26.0624776 1.50920989 26.0571832 3.58984375 26.05078125 C5.54083984 26.05271484 5.54083984 26.05271484 7.53125 26.0546875 C8.73458984 26.05581543 9.93792969 26.05694336 11.17773438 26.05810547 C13.9375 26.1875 13.9375 26.1875 14.9375 27.1875 C15.27380182 31.11627148 15.2625237 35.05868749 15.3125 39 C15.36857422 40.65999023 15.36857422 40.65999023 15.42578125 42.35351562 C15.51438969 50.49072382 15.51438969 50.49072382 12.73828125 53.84375 C10.06153518 55.12799079 7.6252655 56.14025712 4.75 56.875 C3.89019531 57.10574219 3.03039063 57.33648437 2.14453125 57.57421875 C-5.52966201 59.04175632 -13.21297754 59.33275539 -21.0078125 59.28515625 C-21.90370087 59.2837413 -22.79958923 59.28232635 -23.72262573 59.28086853 C-26.54428653 59.27533441 -29.36586376 59.26279489 -32.1875 59.25 C-34.11718634 59.24497646 -36.04687395 59.24041506 -37.9765625 59.23632812 C-42.6719065 59.22538669 -47.36718915 59.20816878 -52.0625 59.1875 C-52.13723903 54.36779078 -52.19137722 49.54842665 -52.22729492 44.72827148 C-52.24228456 43.09214391 -52.26268332 41.45605585 -52.28881836 39.82006836 C-52.48108987 27.46568121 -52.42382134 16.96707823 -43.34375 7.37109375 C-31.69150166 -3.70316608 -14.85199435 -3.43228395 0 0 Z " fill="#030303" transform="translate(52.0625,56.8125)"/>
<path d="M0 0 C1.29164063 -0.03867187 1.29164063 -0.03867187 2.609375 -0.078125 C8.06712448 0.60005689 11.40173179 4.14880695 15.125 7.9375 C15.92679687 8.74574219 16.72859375 9.55398437 17.5546875 10.38671875 C19.60223721 12.56186938 21.56456122 14.75761081 23.51171875 17.01953125 C27.5282589 21.64313403 31.8343695 25.94536196 36.1875 30.25 C36.96673828 31.02472656 37.74597656 31.79945312 38.54882812 32.59765625 C40.4469242 34.48410757 42.34733149 36.36816245 44.25 38.25 C44.26981934 37.16992676 44.28963867 36.08985352 44.31005859 34.97705078 C44.38601623 30.97746087 44.47474816 26.97823948 44.56738281 22.97900391 C44.60571341 21.24665593 44.64055906 19.51422726 44.671875 17.78173828 C44.71743765 15.29430251 44.77544503 12.80742434 44.8359375 10.3203125 C44.84748871 9.54317902 44.85903992 8.76604553 44.87094116 7.96536255 C45.02225659 2.47774341 45.02225659 2.47774341 47.25 0.25 C49.125 0.01953125 49.125 0.01953125 51.25 0.0625 C52.301875 0.07216797 52.301875 0.07216797 53.375 0.08203125 C55.25 0.25 55.25 0.25 57.25 1.25 C57.27312883 8.66459942 57.29091785 16.07919111 57.30181217 23.49381924 C57.30703982 26.93640348 57.31413531 30.37896312 57.32543945 33.8215332 C57.33834235 37.77555043 57.34322918 41.72955756 57.34765625 45.68359375 C57.35281754 46.92523788 57.35797882 48.16688202 57.36329651 49.44615173 C57.36337204 50.58725906 57.36344757 51.72836639 57.36352539 52.90405273 C57.365746 53.914431 57.36796661 54.92480927 57.37025452 55.96580505 C57.25 58.25 57.25 58.25 56.25 59.25 C52.67986327 60.30271422 49.8394363 60.21663246 46.25 59.25 C41.30148001 55.61253443 37.24231854 51.22773733 33.0625 46.75 C31.91702552 45.56286896 30.76925391 44.37794995 29.61914062 43.1953125 C24.57909154 37.98284284 19.62020511 32.71596744 15.0144043 27.11132812 C12.30379443 24.25181662 9.26983724 21.7754757 6.25 19.25 C6.25523682 20.42618896 6.26047363 21.60237793 6.26586914 22.81420898 C6.28391663 27.16202031 6.29543108 31.5098283 6.30493164 35.85766602 C6.30997244 37.7424373 6.31680498 39.62720465 6.32543945 41.51196289 C6.33751617 44.21501636 6.34323068 46.91801831 6.34765625 49.62109375 C6.35281754 50.46900986 6.35797882 51.31692596 6.36329651 52.1905365 C6.36349195 54.21071068 6.31206211 56.23077934 6.25 58.25 C5.25 59.25 5.25 59.25 3 59.3828125 C2.0925 59.38023438 1.185 59.37765625 0.25 59.375 C-1.11125 59.37886719 -1.11125 59.37886719 -2.5 59.3828125 C-4.75 59.25 -4.75 59.25 -5.75 58.25 C-5.84893778 56.47553991 -5.87799092 54.69713749 -5.87939453 52.91992188 C-5.88254669 51.78204224 -5.88569885 50.6441626 -5.88894653 49.47180176 C-5.8869223 48.23329468 -5.88489807 46.9947876 -5.8828125 45.71875 C-5.88376923 44.45736206 -5.88472595 43.19597412 -5.88571167 41.8963623 C-5.88639375 39.22302862 -5.88503529 36.54978563 -5.88037109 33.87646484 C-5.87467381 30.44293309 -5.87795301 27.0094795 -5.88394356 23.57595062 C-5.88841762 20.31104757 -5.88528883 17.04615407 -5.8828125 13.78125 C-5.88483673 12.54274292 -5.88686096 11.30423584 -5.88894653 10.02819824 C-5.88579437 8.8903186 -5.88264221 7.75243896 -5.87939453 6.58007812 C-5.87859894 5.57271606 -5.87780334 4.565354 -5.87698364 3.52746582 C-5.64813071 -0.57703715 -3.64259819 0.06466151 0 0 Z " fill="#050505" transform="translate(352.75,55.75)"/>
<path d="M0 0 C3.5625 0.3125 3.5625 0.3125 5.08813477 1.46777344 C7.01161501 3.87443293 8.31583585 6.39430756 9.71484375 9.140625 C10.01140869 9.71831131 10.30797363 10.29599762 10.61352539 10.89118958 C11.58118216 12.77887193 12.54075977 14.67052874 13.5 16.5625 C14.50326496 18.52856204 15.50817498 20.4937766 16.51332092 22.45887756 C17.19395084 23.78970285 17.87390923 25.12087177 18.5532074 26.45237732 C20.73656006 30.72523945 22.96145414 34.97274518 25.21875 39.20703125 C25.7744165 40.2527832 26.33008301 41.29853516 26.90258789 42.37597656 C27.94776445 44.33821848 28.99880991 46.29734843 30.05639648 48.25292969 C30.52118408 49.12981445 30.98597168 50.00669922 31.46484375 50.91015625 C32.07573853 52.04723022 32.07573853 52.04723022 32.69897461 53.20727539 C33.5625 55.3125 33.5625 55.3125 33.5625 59.3125 C29.2725 59.3125 24.9825 59.3125 20.5625 59.3125 C20.06395508 58.17611084 19.56541016 57.03972168 19.05175781 55.86889648 C18.00083036 53.90839958 18.00083036 53.90839958 16.5625 52.3125 C13.60563296 51.57934074 11.69286976 51.35182943 8.734375 51.41015625 C7.98536926 51.39786484 7.23636353 51.38557343 6.46466064 51.37290955 C4.07960854 51.34119326 1.6976483 51.357448 -0.6875 51.375 C-2.30732038 51.36188994 -3.92711867 51.34564954 -5.546875 51.32617188 C-9.51107588 51.28533026 -13.47318967 51.28749357 -17.4375 51.3125 C-17.72625 52.26125 -18.015 53.21 -18.3125 54.1875 C-19.4375 57.3125 -19.4375 57.3125 -21.4375 59.3125 C-23.8203125 59.5078125 -23.8203125 59.5078125 -26.5625 59.4375 C-27.47257812 59.41945312 -28.38265625 59.40140625 -29.3203125 59.3828125 C-30.01898438 59.35960937 -30.71765625 59.33640625 -31.4375 59.3125 C-30.80271663 55.04005385 -29.30987293 51.64797355 -27.41015625 47.78125 C-27.10538361 47.15635178 -26.80061096 46.53145355 -26.48660278 45.88761902 C-25.49637779 43.85993115 -24.49830051 41.83622243 -23.5 39.8125 C-22.47369518 37.71756062 -21.44924032 35.62172367 -20.42494202 33.52580261 C-19.74066448 32.12590868 -19.05571774 30.72634165 -18.37010193 29.32710266 C-14.97095012 22.38284207 -11.66743479 15.39391952 -8.40844727 8.3828125 C-8.04033936 7.60035156 -7.67223145 6.81789063 -7.29296875 6.01171875 C-6.82346802 5.00371216 -6.82346802 5.00371216 -6.34448242 3.9753418 C-4.57830028 0.73726196 -3.73878576 0.33988961 0 0 Z " fill="#030303" transform="translate(106.4375,55.6875)"/>
<path d="M0 0 C2.66773055 1.04182433 3.36578331 2.20824853 4.87988281 4.62158203 C5.39228516 5.43530273 5.9046875 6.24902344 6.43261719 7.08740234 C9.30653352 11.90441893 12.07512454 16.77459776 14.80175781 21.67626953 C15.94139314 23.71588533 17.08197507 25.75497258 18.22363281 27.79345703 C18.71959961 28.68403809 19.21556641 29.57461914 19.7265625 30.4921875 C20.76595441 32.30327238 21.89346145 34.06382499 23.05175781 35.80126953 C22.53451643 39.31851091 22.53451643 39.31851091 21.05175781 40.80126953 C19.71182165 40.90428367 18.36657816 40.93975406 17.02270508 40.9465332 C16.16834366 40.95291306 15.31398224 40.95929291 14.43373108 40.96586609 C13.50459396 40.96697891 12.57545685 40.96809174 11.61816406 40.96923828 C10.66989243 40.97256668 9.72162079 40.97589508 8.74461365 40.97932434 C6.73461392 40.98439772 4.72460573 40.98673254 2.71459961 40.98657227 C-0.36911838 40.98875775 -3.45247825 41.00690636 -6.53613281 41.02587891 C-8.48469929 41.02881288 -10.43326748 41.03079765 -12.38183594 41.03173828 C-13.30894882 41.0389238 -14.23606171 41.04610931 -15.19126892 41.05351257 C-16.0487825 41.05043594 -16.90629608 41.04735931 -17.78979492 41.04418945 C-18.54622787 41.04561447 -19.30266083 41.04703949 -20.08201599 41.04850769 C-21.94824219 40.80126953 -21.94824219 40.80126953 -23.94824219 38.80126953 C-23.62416557 34.56856306 -21.83143501 31.48658071 -19.70996094 27.87158203 C-19.05447266 26.74623047 -18.39898437 25.62087891 -17.72363281 24.46142578 C-17.02786842 23.28292277 -16.33190339 22.10453818 -15.63574219 20.92626953 C-14.95083765 19.75608251 -14.26658667 18.58551271 -13.58300781 17.41455078 C-12.27950054 15.18469963 -10.97221833 12.95704966 -9.66064453 10.73193359 C-8.27014451 8.3521842 -6.92184778 5.95760319 -5.59277344 3.54345703 C-3.26780427 -0.33333242 -3.26780427 -0.33333242 0 0 Z " fill="#027CC2" transform="translate(378.9482421875,0.19873046875)"/>
<path d="M0 0 C0.89589844 -0.01417969 1.79179687 -0.02835938 2.71484375 -0.04296875 C5.0625 0.1875 5.0625 0.1875 7.0625 2.1875 C7.30973816 4.54725647 7.30973816 4.54725647 7.30541992 7.53930664 C7.30849655 8.65709 7.31157318 9.77487335 7.31474304 10.92652893 C7.30755753 12.13800095 7.30037201 13.34947296 7.29296875 14.59765625 C7.29228142 16.45432167 7.29228142 16.45432167 7.2915802 18.34849548 C7.2877786 21.64108047 7.27475824 24.93347359 7.25811768 28.22601318 C7.24466164 31.58101647 7.24784184 34.9359863 7.24804688 38.29101562 C7.24313168 40.83073117 7.23730335 43.37044515 7.23046875 45.91015625 C7.22935593 47.1236525 7.2282431 48.33714874 7.22709656 49.5874176 C7.22071671 50.7020488 7.21433685 51.81667999 7.20776367 52.96508789 C7.20395187 53.95166885 7.20014008 54.93824982 7.19621277 55.95472717 C7.0625 58.1875 7.0625 58.1875 6.0625 59.1875 C4.23134117 59.28601171 2.39630067 59.31722629 0.5625 59.3125 C-0.4378125 59.31507812 -1.438125 59.31765625 -2.46875 59.3203125 C-4.9375 59.1875 -4.9375 59.1875 -5.9375 58.1875 C-6.03643778 56.41303991 -6.06549092 54.63463749 -6.06689453 52.85742188 C-6.07004669 51.71954224 -6.07319885 50.5816626 -6.07644653 49.40930176 C-6.0744223 48.17079468 -6.07239807 46.9322876 -6.0703125 45.65625 C-6.07126923 44.39486206 -6.07222595 43.13347412 -6.07321167 41.8338623 C-6.07389375 39.16052862 -6.07253529 36.48728563 -6.06787109 33.81396484 C-6.06217381 30.38043309 -6.06545301 26.9469795 -6.07144356 23.51345062 C-6.07591762 20.24854757 -6.07278883 16.98365407 -6.0703125 13.71875 C-6.07233673 12.48024292 -6.07436096 11.24173584 -6.07644653 9.96569824 C-6.07329437 8.8278186 -6.07014221 7.68993896 -6.06689453 6.51757812 C-6.06609894 5.51021606 -6.06530334 4.502854 -6.06448364 3.46496582 C-5.83095166 -0.72345635 -3.68773663 0.02645435 0 0 Z " fill="#060606" transform="translate(319.9375,55.8125)"/>
<path d="M0 0 C2.536875 -0.103125 5.07375 -0.20625 7.6875 -0.3125 C8.87218872 -0.38078003 8.87218872 -0.38078003 10.08081055 -0.45043945 C13.84496759 -0.52420913 15.53714741 -0.34731138 18.62890625 1.97265625 C21.63714894 5.81349329 24.48495361 9.73119483 27.25 13.75 C28.31698231 15.28696261 29.38465353 16.82344726 30.453125 18.359375 C31.15163574 19.37209473 31.15163574 19.37209473 31.86425781 20.40527344 C32.90600069 21.96125787 32.90600069 21.96125787 34 23 C36.01594582 23.23427778 38.038474 23.41336124 40.0625 23.5625 C41.16722656 23.64628906 42.27195313 23.73007813 43.41015625 23.81640625 C44.26480469 23.87699219 45.11945313 23.93757813 46 24 C46 24.33 46 24.66 46 25 C27.52 25 9.04 25 -10 25 C-10 24.67 -10 24.34 -10 24 C-6.7 24 -3.4 24 0 24 C0 16.08 0 8.16 0 0 Z " fill="#F7F7F7" transform="translate(162,91)"/>
<path d="M0 0 C1.14597656 -0.01224609 2.29195312 -0.02449219 3.47265625 -0.03710938 C4.57996094 -0.03904297 5.68726563 -0.04097656 6.828125 -0.04296875 C7.84293945 -0.04707764 8.85775391 -0.05118652 9.90332031 -0.05541992 C14.03413579 0.29708106 16.8081513 1.2456513 19.75 4.1875 C20.08938407 7.19347324 20.31822757 9.28896543 19.75 12.1875 C16.33471979 15.88738689 13.23170748 17.0559958 8.30810547 17.31689453 C7.42010254 17.31802246 6.53209961 17.31915039 5.6171875 17.3203125 C4.16119141 17.32224609 4.16119141 17.32224609 2.67578125 17.32421875 C1.66902344 17.32035156 0.66226563 17.31648438 -0.375 17.3125 C-1.38949219 17.31636719 -2.40398437 17.32023437 -3.44921875 17.32421875 C-4.41730469 17.32292969 -5.38539063 17.32164063 -6.3828125 17.3203125 C-7.26855957 17.31918457 -8.15430664 17.31805664 -9.06689453 17.31689453 C-11.25 17.1875 -11.25 17.1875 -13.25 16.1875 C-13.27685095 13.70826199 -13.29676547 11.2293116 -13.3125 8.75 C-13.32506836 7.68942383 -13.32506836 7.68942383 -13.33789062 6.60742188 C-13.34653588 4.80056441 -13.30220011 2.99362397 -13.25 1.1875 C-10.68079795 -1.38170205 -3.45481122 0.00191721 0 0 Z " fill="#F8F8F8" transform="translate(176.25,65.8125)"/>
<path d="M0 0 C3 1 3 1 4.16674805 2.87011719 C4.52808838 3.67094727 4.88942871 4.47177734 5.26171875 5.296875 C5.65810547 6.1734375 6.05449219 7.05 6.46289062 7.953125 C6.86701172 8.87609375 7.27113281 9.7990625 7.6875 10.75 C8.31108398 12.11125 8.31108398 12.11125 8.94726562 13.5 C11.02401734 18.16501863 12 20.73516348 12 26 C4.74 26 -2.52 26 -10 26 C-11.11288263 21.54846946 -10.86234266 20.96209944 -8.9453125 17.05078125 C-8.49542969 16.12072266 -8.04554687 15.19066406 -7.58203125 14.23242188 C-7.10121094 13.26884766 -6.62039062 12.30527344 -6.125 11.3125 C-5.65191406 10.33732422 -5.17882812 9.36214844 -4.69140625 8.35742188 C-1.18998724 1.18998724 -1.18998724 1.18998724 0 0 Z " fill="#F2F2F2" transform="translate(105,73)"/>
<path d="M0 0 C0.33 0 0.66 0 1 0 C1.15855469 0.64066406 1.31710938 1.28132813 1.48046875 1.94140625 C3.41094952 9.09805044 5.21288299 14.57422831 11.640625 18.69140625 C17.91990439 22.0323049 23.94883548 24.09520455 31 25 C31 25.33 31 25.66 31 26 C20.77 26 10.54 26 0 26 C0 17.42 0 8.84 0 0 Z " fill="#F5F5F5" transform="translate(0,90)"/>
<path d="M0 0 C0.66 0 1.32 0 2 0 C2 2.64 2 5.28 2 8 C0.68 8 -0.64 8 -2 8 C-2.33 7.34 -2.66 6.68 -3 6 C-2.06553465 3.96855359 -1.06775224 1.96466413 0 0 Z " fill="#727272" transform="translate(431,107)"/>
</svg>
