<?xml version="1.0" encoding="UTF-8"?>
<svg version="1.1" xmlns="http://www.w3.org/2000/svg" width="1024" height="574">
<path d="M0 0 C0.89626707 -0.00290688 1.79253415 -0.00581376 2.71596083 -0.00880873 C5.74085585 -0.01614931 8.76555059 -0.00914648 11.79044437 -0.002285 C13.97235359 -0.00458783 16.15426202 -0.00776316 18.33616883 -0.01173949 C24.34893184 -0.02012062 30.36163171 -0.0159472 36.37439501 -0.00976706 C42.85233124 -0.00525707 49.33025631 -0.0122191 55.80819035 -0.0177269 C67.77091369 -0.02651237 79.73361696 -0.02537187 91.6963415 -0.01990396 C102.74732456 -0.01487745 113.7983002 -0.01355729 124.84928417 -0.01594925 C125.94784947 -0.0161784 125.94784947 -0.0161784 127.068608 -0.01641219 C130.04140167 -0.01703484 133.01419534 -0.01767164 135.986989 -0.01833172 C163.88844343 -0.02445315 191.78988497 -0.01889748 219.69133741 -0.00813792 C244.49074248 0.00135267 269.29012701 0.00050526 294.0895319 -0.00905991 C321.9376884 -0.01976502 349.78583351 -0.02401806 377.63399178 -0.01783538 C380.601752 -0.01719392 383.56951223 -0.01656824 386.53727245 -0.01594925 C387.26803594 -0.01579109 387.99879943 -0.01563294 388.75170726 -0.01546999 C399.79619255 -0.01319323 410.84066962 -0.015859 421.88515377 -0.02090836 C434.44162904 -0.02662027 446.99807923 -0.02501835 459.55455165 -0.01434687 C465.96518141 -0.00907879 472.37576941 -0.0070527 478.78639889 -0.01364517 C484.64928681 -0.01958331 490.51209407 -0.01636493 496.37497462 -0.00569007 C498.50144327 -0.00344694 500.62791867 -0.00461263 502.75438302 -0.00944164 C505.63453067 -0.01548293 508.51439845 -0.00932607 511.39453125 0 C512.64616167 -0.0070235 512.64616167 -0.0070235 513.92307755 -0.01418889 C518.15793696 0.01340304 521.39483944 0.29651962 525.2601862 2.25168228 C525.2601862 2.91168228 525.2601862 3.57168228 525.2601862 4.25168228 C526.1264362 4.59199478 526.1264362 4.59199478 527.0101862 4.93918228 C530.95592033 7.24086053 532.85112221 10.09500731 534.36146897 14.36568463 C535.38073192 18.77291455 535.53889842 22.73896517 535.51466179 27.24014473 C535.51947151 28.57021214 535.51947151 28.57021214 535.52437839 29.92714959 C535.53268665 32.9015124 535.52675115 35.87567429 535.52088261 38.85004044 C535.52390291 41.00281473 535.52779178 43.15558795 535.53247517 45.30835927 C535.54277952 51.22680826 535.54056714 57.14519684 535.53629458 63.06365085 C535.53383178 69.44549769 535.54283596 75.82732981 535.55033207 82.2091713 C535.56309347 94.71287757 535.5648768 107.21656173 535.56253181 119.72027336 C535.56069927 129.88164589 535.56245792 140.04301211 535.56675625 150.20438385 C535.56735865 151.66417338 535.56795985 153.1239629 535.56855985 154.58375243 C535.5694671 156.78350653 535.57037577 158.98326063 535.5712922 161.18301473 C535.57972205 181.63578943 535.5840572 202.08856177 535.57988548 222.54133797 C535.57972911 223.31240194 535.57957273 224.08346592 535.57941162 224.87789548 C535.57860583 228.78596676 535.57776006 232.69403803 535.57689831 236.6021093 C535.57672723 237.37826665 535.57655614 238.154424 535.57637987 238.95410127 C535.57603321 240.52367991 535.57568468 242.09325856 535.57533428 243.6628372 C535.56997678 268.086835 535.57790818 292.51079669 535.59636784 316.93478775 C535.6170826 344.37465506 535.62781157 371.81450001 535.62379235 399.25437558 C535.623397 402.18003344 535.62303546 405.10569131 535.62269497 408.03134918 C535.62260424 408.75172142 535.62251351 409.47209366 535.62242002 410.21429537 C535.62125394 421.09013861 535.6279032 431.96595927 535.63850689 442.84179688 C535.65055363 455.21034816 535.65184544 467.5788402 535.63971672 479.94739328 C535.63381566 486.25932199 535.63276254 492.57115341 535.64471912 498.88307571 C535.65553587 504.66035017 535.65252472 510.43744563 535.63845744 516.21471156 C535.6357989 518.30549644 535.63821316 520.39629515 535.6461933 522.48706649 C535.6562874 525.32877305 535.64788736 528.16985597 535.63491631 531.01153755 C535.64222565 531.82336182 535.649535 532.63518608 535.65706584 533.47161108 C535.60299557 539.18604228 534.33807317 543.93995962 532.2601862 549.25168228 C531.6001862 549.25168228 530.9401862 549.25168228 530.2601862 549.25168228 C529.9920612 549.84980728 529.7239362 550.44793228 529.4476862 551.06418228 C527.18636016 555.22978288 524.75834682 556.83237357 520.2601862 558.25168228 C517.31120982 558.53993443 514.37686692 558.5218006 511.41573524 558.50615788 C510.07258582 558.51096759 510.07258582 558.51096759 508.70230207 558.51587448 C505.68625911 558.52421007 502.67041289 558.51823773 499.65436649 558.51237869 C497.47643144 558.51539775 495.29849746 558.51928599 493.12056535 558.52397126 C487.12339666 558.53429164 481.12628747 558.53205918 475.12911379 558.52779067 C468.66617056 558.52533077 462.20324193 558.5343284 455.74030399 558.54182816 C443.07423457 558.55502191 430.40818405 558.55637193 417.74210913 558.55402789 C407.45051425 558.55219635 397.1589256 558.55395191 386.8673315 558.55825233 C385.38957297 558.55885473 383.91181444 558.55945593 382.43405591 558.56005594 C380.20731204 558.56096317 377.98056817 558.56187184 375.75382431 558.56278829 C355.04669864 558.57121972 334.33957533 558.57555218 313.6324482 558.57138157 C312.46114496 558.571147 312.46114496 558.571147 311.26617902 558.5709077 C307.30828291 558.5701019 303.3503868 558.56925613 299.39249069 558.5683944 C298.60641743 558.56822331 297.82034417 558.56805222 297.01045051 558.56787595 C295.42081919 558.5675293 293.83118787 558.56718077 292.24155656 558.56683037 C267.50239102 558.56147219 242.76326111 558.56940555 218.02410221 558.58786392 C190.2396521 558.60857009 162.45522407 558.61930932 134.67076582 558.61528844 C131.70946276 558.61489308 128.74815971 558.61453153 125.78685665 558.61419106 C125.05769024 558.61410032 124.32852382 558.61400959 123.57726146 558.61391611 C112.5598942 558.61274913 101.54254919 558.61940602 90.52518749 558.63000298 C77.9987673 558.64203899 65.47239973 558.64335339 52.94597871 558.63121281 C46.55140012 558.6253044 40.15691762 558.62427871 33.76234531 558.63621521 C27.91298221 558.64700738 22.06379618 558.64405057 16.21444159 558.62995353 C14.09404082 558.62728813 11.97362646 558.62973034 9.85323895 558.63768939 C6.97876923 558.64773326 4.10492249 558.63942667 1.23047829 558.62641239 C0.40057521 558.63372174 -0.42932786 558.64103108 -1.28437951 558.64856192 C-7.13938791 558.59333231 -11.3642694 557.45948787 -15.7866888 553.34933853 C-16.34872005 552.67773697 -16.9107513 552.00613541 -17.4898138 551.31418228 C-18.06215755 550.64515884 -18.6345013 549.97613541 -19.2241888 549.28683853 C-22.81983095 544.45866957 -23.02780814 540.45807539 -23.00266933 534.52024841 C-23.00882724 533.17719599 -23.00882724 533.17719599 -23.01510954 531.80701119 C-23.02648316 528.78515674 -23.02353097 525.76348364 -23.02069759 522.74161148 C-23.02586294 520.56183926 -23.03188872 518.38206894 -23.0387044 516.20230126 C-23.05487378 510.19534152 -23.05842516 504.18842953 -23.05989933 498.18145061 C-23.06359532 491.70958337 -23.07868736 485.23774108 -23.09216976 478.76588821 C-23.12131406 463.86841208 -23.13239194 448.97094103 -23.14155365 434.07344152 C-23.14622441 426.7130469 -23.15342956 419.35265541 -23.16094441 411.99226323 C-23.18661554 386.8010287 -23.20805444 361.60979591 -23.21494961 336.41854858 C-23.21539287 334.83701993 -23.21583644 333.25549127 -23.21628031 331.67396261 C-23.21672159 330.08859755 -23.21716256 328.50323248 -23.21760321 326.91786742 C-23.21848832 323.73730961 -23.21938255 320.55675181 -23.22028255 317.376194 C-23.22050134 316.58759983 -23.22072012 315.79900567 -23.22094553 314.98651471 C-23.22820811 289.4116557 -23.26005349 263.83691003 -23.30666328 238.26209443 C-23.3558424 211.2281041 -23.38329445 184.19417856 -23.38568544 157.16014218 C-23.38602836 154.19317069 -23.38645922 151.22619922 -23.38695431 148.25922775 C-23.38706584 147.52866653 -23.38717738 146.79810532 -23.3872923 146.04540588 C-23.38959466 134.28290507 -23.41164979 122.52052047 -23.44072842 110.75805892 C-23.46944459 98.93793412 -23.47543477 87.11797124 -23.45984846 75.29782096 C-23.45201873 68.89276288 -23.45397533 62.48809627 -23.48196316 56.08308601 C-23.50734186 50.22169111 -23.5051348 44.36098382 -23.48078173 38.49959055 C-23.47685036 36.37709886 -23.48310489 34.25455929 -23.50047046 32.132135 C-23.52256691 29.24941197 -23.50774921 26.36913485 -23.4836874 23.48648071 C-23.50647298 22.24667185 -23.50647298 22.24667185 -23.52971888 20.98181635 C-23.41335733 14.53670747 -20.99105401 10.96793946 -16.7398138 6.25168228 C-16.0385638 5.46793228 -15.3373138 4.68418228 -14.6148138 3.87668228 C-10.06227944 -0.0688475 -5.85072992 -0.03273939 0 0 Z M212.58440495 282.88840103 C210.2601862 284.25168228 210.2601862 284.25168228 208.2601862 284.25168228 C207.6001862 282.27168228 206.9401862 280.29168228 206.2601862 278.25168228 C201.9701862 278.25168228 197.6801862 278.25168228 193.2601862 278.25168228 C193.2601862 302.01168228 193.2601862 325.77168228 193.2601862 350.25168228 C199.2001862 350.25168228 205.1401862 350.25168228 211.2601862 350.25168228 C211.26429508 348.66186539 211.26840397 347.07204849 211.27263737 345.43405533 C211.29437675 339.54651656 211.34861341 333.65965106 211.41277409 327.77243423 C211.43599931 325.22236957 211.45036033 322.67220836 211.45574284 320.12204361 C211.46499887 316.46021415 211.50591948 312.79991278 211.55315495 309.13840103 C211.5492223 307.99457458 211.54528965 306.85074814 211.54123783 305.67226028 C211.56088093 304.61138702 211.58052402 303.55051376 211.60076237 302.45749283 C211.6074242 301.52261536 211.61408604 300.58773788 211.62094975 299.62453079 C212.2601862 297.25168228 212.2601862 297.25168228 214.59046268 295.50053787 C220.09874114 292.92384994 225.17510574 291.69849315 231.2601862 292.25168228 C233.2401862 293.24168228 235.2201862 294.23168228 237.2601862 295.25168228 C237.5901862 313.40168228 237.9201862 331.55168228 238.2601862 350.25168228 C243.8701862 350.25168228 249.4801862 350.25168228 255.2601862 350.25168228 C255.2849478 342.54701343 255.30307548 334.84236786 255.31511784 327.13766861 C255.32013939 324.51787284 255.3269579 321.89807986 255.33562565 319.27829361 C255.34778655 315.50769739 255.35343637 311.73713831 255.35784245 307.96652603 C255.36300373 306.79959717 255.36816502 305.6326683 255.3734827 304.43037796 C255.68492594 293.22082614 255.68492594 293.22082614 251.2601862 283.25168228 C250.6001862 283.25168228 249.9401862 283.25168228 249.2601862 283.25168228 C249.2601862 282.59168228 249.2601862 281.93168228 249.2601862 281.25168228 C248.6001862 281.25168228 247.9401862 281.25168228 247.2601862 281.25168228 C247.2601862 280.59168228 247.2601862 279.93168228 247.2601862 279.25168228 C243.06825143 277.22854774 239.22025874 276.86632731 234.6351862 276.87668228 C233.93095524 276.87756851 233.22672428 276.87845474 232.50115299 276.87936783 C225.12102324 277.0449773 218.88665673 279.03344702 212.58440495 282.88840103 Z M278.24846745 285.44308853 C272.3736958 293.53630542 273.073806 302.37314946 273.07488346 311.99167252 C273.07269593 314.17945157 273.0545019 316.36672648 273.03557682 318.55441666 C273.03264225 319.96261808 273.03065788 321.37082187 273.02971745 322.77902603 C273.02560856 324.04480484 273.02149967 325.31058365 273.01726627 326.61471939 C273.34074632 331.45781716 274.73456149 335.67480817 276.2601862 340.25168228 C276.9201862 340.25168228 277.5801862 340.25168228 278.2601862 340.25168228 C278.2601862 341.24168228 278.2601862 342.23168228 278.2601862 343.25168228 C279.9101862 343.91168228 281.5601862 344.57168228 283.2601862 345.25168228 C283.2601862 345.91168228 283.2601862 346.57168228 283.2601862 347.25168228 C284.98762636 347.90211947 286.7172231 348.54683072 288.4476862 349.18918228 C289.41061588 349.54883072 290.37354557 349.90847916 291.36565495 350.27902603 C301.54926946 353.70105034 311.8166707 352.85088648 321.51409245 348.16183853 C323.12794014 347.24569469 324.70029291 346.25694685 326.2601862 345.25168228 C326.2601862 344.59168228 326.2601862 343.93168228 326.2601862 343.25168228 C326.9201862 343.25168228 327.5801862 343.25168228 328.2601862 343.25168228 C328.8995612 342.13793228 329.5389362 341.02418228 330.1976862 339.87668228 C330.55733463 339.25019791 330.91698307 338.62371353 331.28752995 337.97824478 C333.61314618 333.85004246 333.43992561 330.17148112 333.4633112 325.51730728 C333.47186131 324.21113449 333.47186131 324.21113449 333.48058414 322.87857437 C333.49004063 321.03257845 333.49657069 319.1865656 333.50042057 317.34054947 C333.5100999 314.52676926 333.54110589 311.71372765 333.5726862 308.90011978 C333.57921896 307.10585328 333.58446836 305.31158156 333.5883112 303.51730728 C333.600658 302.67959793 333.6130048 301.84188858 333.62572575 300.9787941 C333.59795647 293.63260913 331.25109743 288.72558492 326.2601862 283.25168228 C325.6001862 283.25168228 324.9401862 283.25168228 324.2601862 283.25168228 C324.2601862 282.59168228 324.2601862 281.93168228 324.2601862 281.25168228 C317.20270148 277.916701 311.1799047 276.53294313 303.3851862 276.62668228 C302.42354557 276.63578629 301.46190495 276.64489029 300.4711237 276.65427017 C291.53121883 276.94345797 284.52802901 278.60263409 278.24846745 285.44308853 Z M427.2601862 279.25168228 C427.9201862 283.87168228 428.5801862 288.49168228 429.2601862 293.25168228 C430.6214362 292.92168228 431.9826862 292.59168228 433.3851862 292.25168228 C441.35110984 290.6901802 450.43337814 289.50257456 458.0101862 293.00168228 C461.20650298 295.21451698 461.93243274 295.82682289 463.2601862 299.25168228 C463.6742487 301.61105728 463.6742487 301.61105728 463.8851862 304.00168228 C463.95995182 304.80090103 464.03471745 305.60011978 464.1117487 306.42355728 C464.16073307 307.02683853 464.20971745 307.63011978 464.2601862 308.25168228 C463.61694401 308.17949478 462.97370182 308.10730728 462.31096745 308.03293228 C443.29891832 305.9639716 443.29891832 305.9639716 426.2601862 313.25168228 C425.2701862 313.91168228 424.2801862 314.57168228 423.2601862 315.25168228 C419.37595525 322.66848541 419.17241042 331.04165519 421.3226862 339.00168228 C423.45403249 344.61257533 427.09597309 347.64902889 432.36565495 350.31808853 C441.01526485 353.73200536 448.70544055 351.8297041 457.0336237 348.38449478 C459.32672866 347.30600145 459.32672866 347.30600145 461.3617487 345.61886978 C463.2601862 344.25168228 463.2601862 344.25168228 466.2601862 344.25168228 C467.2501862 346.23168228 468.2401862 348.21168228 469.2601862 350.25168228 C472.8901862 350.25168228 476.5201862 350.25168228 480.2601862 350.25168228 C480.37352745 342.82765544 480.46509582 335.40410798 480.51924706 327.97939682 C480.54524825 324.53109247 480.58046809 321.08341499 480.63738346 317.63547134 C480.70252628 313.66387022 480.72644525 309.69251545 480.74846745 305.72043228 C480.77427387 304.49304337 480.8000803 303.26565445 480.82666874 302.00107193 C480.82935319 293.75130403 479.47704233 288.78469179 473.85242558 282.73837662 C466.86412812 276.25277843 458.32399994 276.94108015 449.3851862 277.00168228 C448.25210026 276.99394791 447.11901432 276.98621353 445.95159245 276.97824478 C439.40348059 276.99342001 433.58885825 277.55866173 427.2601862 279.25168228 Z M343.2601862 278.25168228 C344.43429093 283.17224849 345.75085782 287.87649567 347.5101862 292.62668228 C349.4716642 298.01787913 351.33856947 303.42847334 353.1351862 308.87668228 C355.61054902 316.36916911 358.18584172 323.82311861 360.81243229 331.26388931 C362.68509245 336.57505597 364.49393523 341.90422388 366.2601862 347.25168228 C366.5901862 348.24168228 366.9201862 349.23168228 367.2601862 350.25168228 C374.8501862 350.25168228 382.4401862 350.25168228 390.2601862 350.25168228 C391.51214255 346.52316179 392.76222694 342.79404112 394.0101862 339.06418228 C394.3785358 337.96388687 394.74688541 336.86359146 395.12639713 335.72995377 C396.99978999 330.11184936 398.82593698 324.49173205 400.5101862 318.81418228 C401.5353425 315.39848683 402.6645413 312.2194686 404.1976862 309.00168228 C406.85975545 303.34216497 408.37867873 297.3151691 410.0883112 291.31808853 C411.34416553 286.91345379 412.76469418 282.5807381 414.2601862 278.25168228 C408.3201862 278.25168228 402.3801862 278.25168228 396.2601862 278.25168228 C395.4145612 281.09793228 394.5689362 283.94418228 393.6976862 286.87668228 C391.14704972 295.42199076 388.47343704 303.92340402 385.73772526 312.41110611 C383.6717389 318.85372147 381.79660802 325.31830471 380.08440495 331.86496353 C379.2601862 334.25168228 379.2601862 334.25168228 377.2601862 335.25168228 C377.09002995 334.36867447 376.9198737 333.48566666 376.7445612 332.57590103 C375.4199024 326.01602157 373.85088292 319.81590612 371.4320612 313.56418228 C369.21146556 307.28729862 367.52033198 300.84414969 365.72502995 294.43527603 C364.71344154 290.83904851 363.6900384 287.24678154 362.63909245 283.66183853 C362.39876286 282.83949722 362.15843327 282.01715591 361.91082096 281.16989517 C361.42318923 279.26718437 361.42318923 279.26718437 360.2601862 278.25168228 C357.39751053 278.1784306 354.5594672 278.15930023 351.6976862 278.18918228 C350.8913776 278.193694 350.08506901 278.19820572 349.25432682 278.20285416 C347.25624863 278.2146771 345.25820837 278.23261314 343.2601862 278.25168228 Z M242.3226862 391.25168228 C240.9820612 391.58168228 239.6414362 391.91168228 238.2601862 392.25168228 C238.2601862 398.19168228 238.2601862 404.13168228 238.2601862 410.25168228 C234.3001862 410.25168228 230.3401862 410.25168228 226.2601862 410.25168228 C226.2601862 414.87168228 226.2601862 419.49168228 226.2601862 424.25168228 C230.2201862 424.25168228 234.1801862 424.25168228 238.2601862 424.25168228 C238.2287653 425.5980275 238.1973444 426.94437271 238.16497135 428.33151627 C238.05583801 433.35763713 237.98729569 438.38365467 237.93059635 443.41061783 C237.90054361 445.58039373 237.85968882 447.75004936 237.80754948 449.91940689 C237.73422676 453.0499994 237.70061404 456.17897735 237.6742487 459.31027603 C237.64328098 460.27001831 237.61231327 461.22976059 237.58040714 462.21858597 C237.57692334 469.29307154 239.47939265 473.98513755 244.2601862 479.25168228 C249.67516074 483.27199032 254.84980895 483.83684099 261.4476862 483.62668228 C262.22821354 483.62539322 263.00874088 483.62410416 263.81292057 483.62277603 C268.42257717 483.55239959 270.74567802 483.05748555 275.2601862 481.25168228 C274.9301862 476.96168228 274.6001862 472.67168228 274.2601862 468.25168228 C273.21217838 468.26328384 272.16417057 468.27488541 271.08440495 468.28683853 C269.70550048 468.29621883 268.32659408 468.30531878 266.9476862 468.31418228 C266.25739323 468.32256119 265.56710026 468.33094009 264.85588932 468.33957291 C261.71188369 468.35476134 259.265986 468.25361555 256.2601862 467.25168228 C255.27140264 464.59843709 255.11878805 462.03016386 255.05486393 459.21750259 C255.03491871 458.43699539 255.01497349 457.65648819 254.99442387 456.85232925 C254.96935513 455.60368088 254.96935513 455.60368088 254.94377995 454.32980728 C254.92299885 453.46982132 254.90221775 452.60983536 254.88080692 451.72378922 C254.81554881 448.98316631 254.75653703 446.24244953 254.6976862 443.50168228 C254.65447839 441.64099559 254.61086338 439.7803183 254.56682682 437.91965103 C254.45912725 433.36375616 254.35987751 428.80778758 254.2601862 424.25168228 C260.2001862 424.25168228 266.1401862 424.25168228 272.2601862 424.25168228 C272.2601862 419.63168228 272.2601862 415.01168228 272.2601862 410.25168228 C266.3201862 410.25168228 260.3801862 410.25168228 254.2601862 410.25168228 C254.2601862 403.65168228 254.2601862 397.05168228 254.2601862 390.25168228 C248.08742469 390.2252977 248.08742469 390.2252977 242.3226862 391.25168228 Z M43.2601862 417.25168228 C43.1158112 416.28230728 42.9714362 415.31293228 42.8226862 414.31418228 C42.58456279 411.38681455 42.58456279 411.38681455 41.2601862 410.25168228 C37.3001862 410.25168228 33.3401862 410.25168228 29.2601862 410.25168228 C29.2601862 434.01168228 29.2601862 457.77168228 29.2601862 482.25168228 C34.8701862 482.25168228 40.4801862 482.25168228 46.2601862 482.25168228 C46.2601862 464.76168228 46.2601862 447.27168228 46.2601862 429.25168228 C48.2401862 428.59168228 50.2201862 427.93168228 52.2601862 427.25168228 C53.2501862 426.59168228 54.2401862 425.93168228 55.2601862 425.25168228 C61.03919024 424.08981958 66.5008775 424.12486101 72.2601862 425.25168228 C73.18256229 428.40891439 73.41077677 431.28711667 73.46550846 434.57101822 C73.49542629 436.16221481 73.49542629 436.16221481 73.52594852 437.78555679 C73.54266102 438.92422195 73.55937351 440.06288712 73.57659245 441.23605728 C73.59737354 442.40678787 73.61815464 443.57751846 73.63956547 444.78372574 C73.70494248 448.52298497 73.7638911 452.26231433 73.8226862 456.00168228 C73.86588266 458.53684578 73.90949732 461.07200219 73.95354557 463.60715103 C74.06061182 469.82192293 74.1619129 476.03676537 74.2601862 482.25168228 C79.8701862 482.25168228 85.4801862 482.25168228 91.2601862 482.25168228 C91.5901862 464.76168228 91.9201862 447.27168228 92.2601862 429.25168228 C101.33710927 424.71322074 101.33710927 424.71322074 105.9476862 424.37668228 C106.83842838 424.29676041 107.72917057 424.21683853 108.64690495 424.13449478 C111.83211292 424.27732922 114.93292921 424.9244253 117.2601862 427.25168228 C117.3832593 428.96942396 117.43805178 430.69210967 117.46550846 432.4140358 C117.49542629 434.06563454 117.49542629 434.06563454 117.52594852 435.75059891 C117.54266102 436.94849548 117.55937351 438.14639206 117.57659245 439.38058853 C117.59737354 440.59995605 117.61815464 441.81932358 117.63956547 443.07564163 C117.70519047 446.98842873 117.76400592 450.90128545 117.8226862 454.81418228 C117.86585911 457.4593719 117.90947298 460.10455437 117.95354557 462.74972916 C118.06088503 469.25030803 118.16211559 475.75095723 118.2601862 482.25168228 C123.8701862 482.25168228 129.4801862 482.25168228 135.2601862 482.25168228 C135.32814206 474.81034099 135.38310555 467.36917115 135.41562271 459.92758465 C135.43123456 456.47161582 135.45238975 453.01587153 135.48650455 449.56003189 C135.52553559 445.58097456 135.53993252 441.60200606 135.55315495 437.62277603 C135.5686388 436.39022583 135.58412266 435.15767563 135.60007572 433.88777542 C135.60165261 425.81050833 134.96354584 419.45098624 129.2601862 413.25168228 C128.6001862 413.25168228 127.9401862 413.25168228 127.2601862 413.25168228 C127.2601862 412.59168228 127.2601862 411.93168228 127.2601862 411.25168228 C118.43683586 407.33019325 110.89116631 407.23613134 101.71721745 410.25558853 C98.38553586 411.60627025 95.33553281 413.29805796 92.2679987 415.16574478 C90.26195752 416.25072425 88.48691082 416.80234323 86.2601862 417.25168228 C85.6001862 415.93168228 84.9401862 414.61168228 84.2601862 413.25168228 C83.6001862 413.25168228 82.9401862 413.25168228 82.2601862 413.25168228 C82.2601862 412.59168228 82.2601862 411.93168228 82.2601862 411.25168228 C67.2511945 405.53397116 56.6514202 410.12746959 43.2601862 417.25168228 Z M161.2601862 415.25168228 C161.2601862 415.91168228 161.2601862 416.57168228 161.2601862 417.25168228 C160.2701862 417.58168228 159.2801862 417.91168228 158.2601862 418.25168228 C153.04692568 425.72970177 153.64694318 435.20283147 153.73870182 443.89255142 C153.76017932 446.31340707 153.73880585 448.73130638 153.7133112 451.15207291 C153.69598403 460.80808802 154.25184225 468.52389198 160.6976862 476.12668228 C170.65873857 484.38706718 181.89085812 484.31741963 194.2601862 483.25168228 C200.66594945 481.87209415 205.04182418 479.33853059 209.2601862 474.25168228 C210.0026862 473.42668228 210.7451862 472.60168228 211.5101862 471.75168228 C214.83082901 467.00790683 214.41974355 461.71407745 214.42815495 456.09933853 C214.43148335 455.32158569 214.43481174 454.54383286 214.438241 453.74251175 C214.44328794 452.10275231 214.44565002 450.46298268 214.44548893 448.82321548 C214.44767594 446.32589055 214.46585654 443.82900735 214.48479557 441.33176041 C214.48772993 439.73345462 214.48971444 438.13514674 214.49065495 436.53683853 C214.49784046 435.79603546 214.50502598 435.05523239 214.51242924 434.29198074 C214.48125589 427.15726329 212.76755605 421.79921441 208.2601862 416.25168228 C194.4856944 404.63464101 175.94532408 405.99366057 161.2601862 415.25168228 Z M394.03752995 415.26340103 C392.2601862 416.25168228 392.2601862 416.25168228 390.2601862 416.25168228 C388.7751862 413.28168228 388.7751862 413.28168228 387.2601862 410.25168228 C383.6301862 410.25168228 380.0001862 410.25168228 376.2601862 410.25168228 C376.2601862 434.01168228 376.2601862 457.77168228 376.2601862 482.25168228 C381.5401862 482.25168228 386.8201862 482.25168228 392.2601862 482.25168228 C392.2601862 464.76168228 392.2601862 447.27168228 392.2601862 429.25168228 C394.2401862 428.59168228 396.2201862 427.93168228 398.2601862 427.25168228 C399.2501862 426.59168228 400.2401862 425.93168228 401.2601862 425.25168228 C403.7836237 424.83761978 403.7836237 424.83761978 406.6351862 424.62668228 C407.57104557 424.55191666 408.50690495 424.47715103 409.4711237 424.40011978 C412.07439753 424.26157019 414.65390213 424.22325009 417.2601862 424.25168228 C418.89897999 427.86419819 419.52236149 430.72692397 419.57903385 434.68454361 C419.59890354 435.74526581 419.61877323 436.80598801 419.63924503 437.8988533 C419.65079624 439.03235718 419.66234745 440.16586105 419.6742487 441.33371353 C419.69361485 442.50302917 419.712981 443.67234482 419.732934 444.87709427 C419.79263815 448.60604977 419.83907917 452.33503629 419.8851862 456.06418228 C419.92337435 458.59479459 419.96242657 461.12539401 420.0023737 463.65597916 C420.09833244 469.85444205 420.18239788 476.0529658 420.2601862 482.25168228 C425.8701862 482.25168228 431.4801862 482.25168228 437.2601862 482.25168228 C437.5901862 464.76168228 437.9201862 447.27168228 438.2601862 429.25168228 C447.33710927 424.71322074 447.33710927 424.71322074 451.9476862 424.37668228 C452.83842838 424.29676041 453.72917057 424.21683853 454.64690495 424.13449478 C457.83211292 424.27732922 460.93292921 424.9244253 463.2601862 427.25168228 C463.3832593 428.96942396 463.43805178 430.69210967 463.46550846 432.4140358 C463.49542629 434.06563454 463.49542629 434.06563454 463.52594852 435.75059891 C463.54266102 436.94849548 463.55937351 438.14639206 463.57659245 439.38058853 C463.59737354 440.59995605 463.61815464 441.81932358 463.63956547 443.07564163 C463.70519047 446.98842873 463.76400592 450.90128545 463.8226862 454.81418228 C463.86585911 457.4593719 463.90947298 460.10455437 463.95354557 462.74972916 C464.06088503 469.25030803 464.16211559 475.75095723 464.2601862 482.25168228 C469.8701862 482.25168228 475.4801862 482.25168228 481.2601862 482.25168228 C481.3282488 474.97526667 481.38316634 467.69902811 481.41562271 460.42236042 C481.43120846 457.04267384 481.45231476 453.66321834 481.48650455 450.2836647 C481.52306569 446.38882826 481.53995386 442.49431583 481.55315495 438.59933853 C481.5686388 437.39898468 481.58412266 436.19863083 481.60007572 434.96190262 C481.60151176 427.73392981 481.59652178 420.12467606 476.64658451 414.37852859 C471.36903598 409.33335499 465.12010779 407.72082601 457.9320612 407.85715103 C450.78923883 408.91186603 443.62857272 411.88665829 437.2601862 415.25168228 C437.2601862 415.91168228 437.2601862 416.57168228 437.2601862 417.25168228 C434.17705109 416.0526853 431.19739127 414.77467751 428.2601862 413.25168228 C428.2601862 412.59168228 428.2601862 411.93168228 428.2601862 411.25168228 C415.78132817 406.49783161 405.37552186 408.31298646 394.03752995 415.26340103 Z M291.2601862 410.25168228 C291.2354219 417.81393573 291.21729564 425.37616543 291.20525455 432.93844986 C291.20023345 435.50974311 291.19341528 438.08103351 291.18474674 440.65231705 C291.17258385 444.35341469 291.16693557 448.05447451 291.16252995 451.75558853 C291.15736866 452.90064362 291.15220737 454.0456987 291.14688969 455.22545242 C291.03469467 468.22490374 291.03469467 468.22490374 297.2601862 479.25168228 C303.74546798 484.07511061 311.49766513 484.17235338 319.2601862 483.25168228 C324.8710815 481.85548275 330.13549436 479.92858014 335.2601862 477.25168228 C335.2601862 476.59168228 335.2601862 475.93168228 335.2601862 475.25168228 C336.5801862 475.25168228 337.9001862 475.25168228 339.2601862 475.25168228 C339.7551862 478.71668228 339.7551862 478.71668228 340.2601862 482.25168228 C344.5501862 482.25168228 348.8401862 482.25168228 353.2601862 482.25168228 C353.2601862 458.49168228 353.2601862 434.73168228 353.2601862 410.25168228 C347.3201862 410.25168228 341.3801862 410.25168228 335.2601862 410.25168228 C334.9301862 427.74168228 334.6001862 445.23168228 334.2601862 463.25168228 C323.0101862 467.75168228 323.0101862 467.75168228 316.6351862 467.50168228 C315.42604557 467.46558853 314.21690495 467.42949478 312.9711237 467.39230728 C312.07651432 467.34590103 311.18190495 467.29949478 310.2601862 467.25168228 C309.25333232 464.23112067 309.10645934 462.11613614 309.05486393 458.95407486 C309.03491871 457.87318085 309.01497349 456.79228683 308.99442387 455.67863846 C308.97771137 454.51293823 308.96099888 453.34723801 308.94377995 452.14621353 C308.92299885 450.95187195 308.90221775 449.75753036 308.88080692 448.52699661 C308.81534344 444.70611785 308.7564411 440.88516953 308.6976862 437.06418228 C308.65449795 434.47628442 308.61088356 431.88839363 308.56682682 429.30051041 C308.45966524 422.9509726 308.35838855 416.60136472 308.2601862 410.25168228 C302.6501862 410.25168228 297.0401862 410.25168228 291.2601862 410.25168228 Z " fill="#FF633D" transform="translate(32.739813804626465,7.748317718505859)"/>
<path d="M0 0 C0.495 19.8 0.495 19.8 1 40 C1.66 38.68 2.32 37.36 3 36 C3.66 36 4.32 36 5 36 C5.23976563 35.33613281 5.47953125 34.67226563 5.7265625 33.98828125 C8.5406528 27.38466445 11.97130893 20.20606354 18 16 C24.49487153 14.19337762 31.40868052 15.0556155 38 16 C37.22093924 19.47238509 36.04464928 22.05570504 34 25 C33.34 25 32.68 25 32 25 C31.773125 25.515625 31.54625 26.03125 31.3125 26.5625 C29.51782382 29.89547005 27.50034985 33.14703671 25 36 C24.34 36 23.68 36 23 36 C22.731875 36.7425 22.46375 37.485 22.1875 38.25 C21.04723249 40.89061949 19.90619694 42.85552844 18 45 C17.34 45 16.68 45 16 45 C16.97270601 48.71396841 18.12631819 51.376162 20.625 54.25 C23 57 23 57 23 59 C23.66 59 24.32 59 25 59 C26.2890625 60.4609375 26.2890625 60.4609375 27.625 62.375 C28.07101562 63.00148438 28.51703125 63.62796875 28.9765625 64.2734375 C30 66 30 66 30 68 C30.66 68 31.32 68 32 68 C32.66 69.65 33.32 71.3 34 73 C34.66 73 35.32 73 36 73 C38 76 38 76 38 79 C31.4 79 24.8 79 18 79 C17.34 77.68 16.68 76.36 16 75 C15.34 75 14.68 75 14 75 C11 70.61538462 11 70.61538462 11 68 C10.34 68 9.68 68 9 68 C5 61.25 5 61.25 5 59 C4.34 59 3.68 59 3 59 C2.34 58.01 1.68 57.02 1 56 C0.67 63.59 0.34 71.18 0 79 C-5.94 79 -11.88 79 -18 79 C-18 53.59 -18 28.18 -18 2 C-9 0 -9 0 0 0 Z " fill="#FF633D" transform="translate(830,414)"/>
<path d="M0 0 C0.33 6.27 0.66 12.54 1 19 C2.98 18.01 4.96 17.02 7 16 C9.34594727 15.61181641 9.34594727 15.61181641 11.56640625 15.6015625 C12.38173828 15.59769531 13.19707031 15.59382813 14.03710938 15.58984375 C14.87048828 15.60144531 15.70386719 15.61304688 16.5625 15.625 C17.39974609 15.61339844 18.23699219 15.60179687 19.09960938 15.58984375 C23.83052817 15.61231842 27.21544562 15.82685625 31 19 C31 19.66 31 20.32 31 21 C31.66 21 32.32 21 33 21 C36.77784881 26.74302737 36.38686865 32.25089615 36.29296875 38.9609375 C36.28872391 40.10664215 36.28447906 41.2523468 36.28010559 42.43276978 C36.2633564 46.08042215 36.22570991 49.72751551 36.1875 53.375 C36.17244836 55.85285659 36.15876079 58.33072186 36.14648438 60.80859375 C36.11346499 66.87261016 36.06170749 72.9362104 36 79 C30.39 79 24.78 79 19 79 C18.970271 77.06966919 18.970271 77.06966919 18.93994141 75.1003418 C18.86393595 70.33109793 18.77521076 65.56216119 18.68261719 60.79321289 C18.64430652 58.72817035 18.60945734 56.6630606 18.578125 54.59790039 C18.53251986 51.63142862 18.47451799 48.6654204 18.4140625 45.69921875 C18.40251129 44.7741301 18.39096008 43.84904144 18.37905884 42.8959198 C18.35918915 42.03525406 18.33931946 41.17458832 18.31884766 40.2878418 C18.30552399 39.53061325 18.29220032 38.7733847 18.2784729 37.99320984 C18.10291388 35.68394812 18.10291388 35.68394812 16 33 C13.73938415 32.52104959 13.73938415 32.52104959 11.1875 32.625 C10.33542969 32.61726563 9.48335937 32.60953125 8.60546875 32.6015625 C5.1901815 33.12384031 3.63098927 33.7005143 1 36 C0.21032325 39.21434693 0.27895431 42.40256007 0.29296875 45.69921875 C0.27784744 46.64940384 0.26272614 47.59958893 0.24714661 48.5785675 C0.20413926 51.61511728 0.19541902 54.65067552 0.1875 57.6875 C0.16436584 59.74546931 0.13900278 61.80341486 0.11132812 63.86132812 C0.04834686 68.90764023 0.01611345 73.95332935 0 79 C-5.61 79 -11.22 79 -17 79 C-17 53.59 -17 28.18 -17 2 C-9 0 -9 0 0 0 Z " fill="#FF633D" transform="translate(670,414)"/>
<path d="M0 0 C1.8871875 -0.02416992 1.8871875 -0.02416992 3.8125 -0.04882812 C5.6378125 -0.04979492 5.6378125 -0.04979492 7.5 -0.05078125 C8.6034375 -0.05376221 9.706875 -0.05674316 10.84375 -0.05981445 C16.99714982 0.66604683 21.0386468 3.69092127 25 8.3125 C26.68838984 11.82245805 27.24669028 14.59116988 27.22705078 18.4699707 C27.22689972 19.47063065 27.22674866 20.47129059 27.22659302 21.50227356 C27.21627045 22.5701561 27.20594788 23.63803864 27.1953125 24.73828125 C27.1924826 25.84100876 27.18965271 26.94373627 27.18673706 28.07987976 C27.17555981 31.59503114 27.15045937 35.10992589 27.125 38.625 C27.11496704 41.01106402 27.10584174 43.39713205 27.09765625 45.78320312 C27.07562845 51.62640066 27.04111513 57.46940685 27 63.3125 C22.71 63.3125 18.42 63.3125 14 63.3125 C13.505 61.3325 13.505 61.3325 13 59.3125 C12.49210938 59.58964844 11.98421875 59.86679687 11.4609375 60.15234375 C3.61266956 64.28223756 -4.89155984 65.86442276 -13.64453125 63.640625 C-15.79255913 62.92348813 -17.90194018 62.16388659 -20 61.3125 C-20 60.6525 -20 59.9925 -20 59.3125 C-20.66 59.3125 -21.32 59.3125 -22 59.3125 C-26.40697832 54.20040515 -26.09337777 47.15849696 -25.9375 40.73828125 C-25.6043612 36.53934433 -25.25233546 33.30464863 -22 30.3125 C-21.34 30.3125 -20.68 30.3125 -20 30.3125 C-19.67 29.3225 -19.34 28.3325 -19 27.3125 C-15.37663836 25.38020102 -12.32391345 25.07374157 -8.26171875 25.1171875 C-6.66166992 25.12685547 -6.66166992 25.12685547 -5.02929688 25.13671875 C-3.92650391 25.15347656 -2.82371094 25.17023438 -1.6875 25.1875 C-0.56537109 25.19652344 0.55675781 25.20554687 1.71289062 25.21484375 C4.47547909 25.23835514 7.23762932 25.27121845 10 25.3125 C9.505 21.8475 9.505 21.8475 9 18.3125 C8.34 18.3125 7.68 18.3125 7 18.3125 C7 17.6525 7 16.9925 7 16.3125 C-5.53172217 16.17013044 -5.53172217 16.17013044 -18 17.3125 C-19.46670113 12.08737721 -20.22577402 7.7310766 -20 2.3125 C-13.30357822 -0.22071904 -7.08020598 -0.01813577 0 0 Z M-6.98828125 40.1328125 C-8.42319761 43.22425393 -7.97767119 45.1001518 -7 48.3125 C-3.44991683 50.67922211 -2.18610811 50.7150104 2 50.3125 C4.51906033 49.51402484 6.62355487 48.52402105 9 47.3125 C10.4783226 44.35585481 10.06032783 41.57020263 10 38.3125 C7.56131832 38.2045141 5.12740867 38.12523411 2.6875 38.0625 C1.65206055 38.01222656 1.65206055 38.01222656 0.59570312 37.9609375 C-3.60144658 37.87551806 -3.60144658 37.87551806 -6.98828125 40.1328125 Z " fill="#FF633D" transform="translate(932,429.6875)"/>
<path d="M0 0 C4.29 0 8.58 0 13 0 C13.33 1.65 13.66 3.3 14 5 C14.70125 4.54625 15.4025 4.0925 16.125 3.625 C22.20544301 0.18822786 27.65997348 -0.38963045 34.5 -0.4375 C35.32886719 -0.47037109 36.15773438 -0.50324219 37.01171875 -0.53710938 C41.15887822 -0.5733723 44.07931756 -0.4066558 47.40625 2.21484375 C51.372161 6.47341987 53.38275447 9.54195837 53.34057617 15.43286133 C53.34023628 17.02394463 53.34023628 17.02394463 53.33988953 18.64717102 C53.32440567 19.7806749 53.30892181 20.91417877 53.29296875 22.08203125 C53.28872391 23.25134689 53.28447906 24.42066254 53.28010559 25.62541199 C53.26333285 29.354677 53.22568192 33.08339872 53.1875 36.8125 C53.17245141 39.34309115 53.15876331 41.87369077 53.14648438 44.40429688 C53.1134337 50.60307344 53.06165986 56.80144465 53 63 C47.39 63 41.78 63 36 63 C35.97494385 61.71311279 35.9498877 60.42622559 35.92407227 59.1003418 C35.82998428 54.33119546 35.72976687 49.56219429 35.62768555 44.79321289 C35.58434197 42.72814324 35.54266648 40.66303788 35.50268555 38.59790039 C35.44496917 35.63156365 35.38127849 32.66540655 35.31640625 29.69921875 C35.29969376 28.7741301 35.28298126 27.84904144 35.26576233 26.8959198 C35.2358445 25.60492119 35.2358445 25.60492119 35.20532227 24.2878418 C35.18200584 23.15199898 35.18200584 23.15199898 35.15821838 21.99320984 C35.06367677 19.79075185 35.06367677 19.79075185 34 17 C26.43592467 16.79410279 26.43592467 16.79410279 19 18 C19 18.66 19 19.32 19 20 C18.34 20 17.68 20 17 20 C17 34.19 17 48.38 17 63 C11.39 63 5.78 63 0 63 C0 42.21 0 21.42 0 0 Z " fill="#FF633D" transform="translate(748,430)"/>
<path d="M0 0 C0 5.28 0 10.56 0 16 C4.62 16 9.24 16 14 16 C14 21.28 14 26.56 14 32 C9.38 32 4.76 32 0 32 C0.14064617 36.4168882 0.28729197 40.83343554 0.4375 45.25 C0.47681641 46.50425781 0.51613281 47.75851562 0.55664062 49.05078125 C0.59853516 50.25605469 0.64042969 51.46132813 0.68359375 52.703125 C0.72025146 53.81333008 0.75690918 54.92353516 0.79467773 56.06738281 C0.96710904 58.53021849 1.29595439 60.64482965 2 63 C6.67201205 64.20568053 11.21496292 64.09382426 16 64 C16.19390729 66.31197155 16.37996367 68.6246029 16.5625 70.9375 C16.71912109 72.86916016 16.71912109 72.86916016 16.87890625 74.83984375 C16.93884766 76.40412109 16.93884766 76.40412109 17 78 C14.09423473 80.90576527 6.31166495 80.09280359 2.375 80.1875 C-4.96276777 80.05988665 -9.85919504 78.14080496 -15 73 C-17.3351193 68.66567526 -17.2604105 64.43996639 -17.1953125 59.63671875 C-17.1924826 58.84473587 -17.18965271 58.05275299 -17.18673706 57.23677063 C-17.17558863 54.72019001 -17.15049422 52.20397211 -17.125 49.6875 C-17.11496329 47.97591662 -17.10583864 46.26432763 -17.09765625 44.55273438 C-17.07566681 40.36835094 -17.04117408 36.18423686 -17 32 C-19.97 32 -22.94 32 -26 32 C-26 26.72 -26 21.44 -26 16 C-23.03 16 -20.06 16 -17 16 C-17 11.38 -17 6.76 -17 2 C-10.93860586 0.67147526 -6.31514414 0 0 0 Z " fill="#FF633D" transform="translate(628,414)"/>
<path d="M0 0 C3.69534375 3.34340625 5.40202909 6.56206416 6.01318359 11.53125 C6.01656738 12.6346875 6.01995117 13.738125 6.0234375 14.875 C6.02923828 16.7003125 6.02923828 16.7003125 6.03515625 18.5625 C6.02355469 19.820625 6.01195312 21.07875 6 22.375 C6.01160156 23.633125 6.02320313 24.89125 6.03515625 26.1875 C6.03128906 27.404375 6.02742188 28.62125 6.0234375 29.875 C6.02005371 30.9784375 6.01666992 32.081875 6.01318359 33.21875 C5.44062701 37.87410315 3.99877134 41.2750547 0.3125 44.2265625 C-2.77575192 45.54625155 -5.02425494 45.77564346 -8.375 45.75 C-9.385625 45.75773437 -10.39625 45.76546875 -11.4375 45.7734375 C-14.80133069 45.31717323 -16.65850206 44.3840766 -19.375 42.375 C-21.79426955 38.74609567 -21.6978224 36.01910215 -21.7109375 31.8203125 C-21.7175943 31.08175018 -21.7242511 30.34318787 -21.73110962 29.58224487 C-21.74122812 28.02051277 -21.74592689 26.4587375 -21.74560547 24.89697266 C-21.7499721 22.51521969 -21.78627758 20.13533054 -21.82421875 17.75390625 C-21.83008858 16.23438132 -21.83405686 14.71484761 -21.8359375 13.1953125 C-21.85030853 12.48682159 -21.86467957 11.77833069 -21.87948608 11.04837036 C-21.83505951 6.20631001 -20.79993747 3.77613665 -17.375 0.375 C-11.96734649 -2.8695921 -5.53818548 -2.66653375 0 0 Z " fill="#FF633D" transform="translate(344.375,299.625)"/>
<path d="M0 0 C5.94 0 11.88 0 18 0 C18 20.79 18 41.58 18 63 C12.06 63 6.12 63 0 63 C0 42.21 0 21.42 0 0 Z " fill="#FF633D" transform="translate(717,430)"/>
<path d="M0 0 C2.48710406 3.73065609 2.34055069 6.70207329 2.37109375 11.02734375 C2.38463646 12.20533287 2.38463646 12.20533287 2.39845276 13.40711975 C2.41295179 15.06719146 2.42184114 16.72732026 2.42553711 18.38745117 C2.43744275 20.92529567 2.48663358 23.46071497 2.53710938 25.99804688 C2.54657292 27.61196731 2.55380829 29.22590266 2.55859375 30.83984375 C2.57812607 31.5972435 2.59765839 32.35464325 2.61778259 33.13499451 C2.58456857 37.01921864 2.36293246 38.63140533 -0.40991211 41.44750977 C-5.83605397 44.6999215 -10.73850575 44.60410766 -17 44 C-19.6940403 42.98281095 -20.85957516 42.0247262 -23 40 C-24.77152324 34.68543029 -24.22560289 28.94252388 -24.24023438 23.37646484 C-24.24993528 21.13992047 -24.28096772 18.90429739 -24.3125 16.66796875 C-24.31903116 15.23958877 -24.32428119 13.81120224 -24.328125 12.3828125 C-24.3374707 11.08746582 -24.34681641 9.79211914 -24.35644531 8.45751953 C-23.97480528 4.75561117 -23.26652882 2.91741247 -21 0 C-14.31763846 -4.00941692 -6.90228008 -3.76488004 0 0 Z " fill="#FF633D" transform="translate(228,433)"/>
<path d="M0 0 C5.61 0 11.22 0 17 0 C17 20.46 17 40.92 17 62 C11.39 62 5.78 62 0 62 C0 41.54 0 21.08 0 0 Z " fill="#FF633D" transform="translate(971,431)"/>
<path d="M0 0 C0.76376953 -0.00386719 1.52753906 -0.00773437 2.31445312 -0.01171875 C3.05501953 -0.01042969 3.79558594 -0.00914062 4.55859375 -0.0078125 C5.23075928 -0.00668457 5.9029248 -0.00555664 6.59545898 -0.00439453 C8.68417459 0.13300391 10.55080925 0.55969441 12.5625 1.125 C12.6705023 3.22804477 12.74808987 5.33266909 12.8125 7.4375 C12.85890625 8.60925781 12.9053125 9.78101563 12.953125 10.98828125 C12.5625 14.125 12.5625 14.125 10.859375 15.91796875 C5.9046727 18.52171537 2.15724715 19.43949468 -3.5 19.5 C-4.70785156 19.52835937 -5.91570312 19.55671875 -7.16015625 19.5859375 C-10.4375 19.125 -10.4375 19.125 -12.84375 17.4140625 C-14.70956154 14.73424494 -14.94899712 13.36114069 -14.875 10.125 C-14.87371094 9.279375 -14.87242187 8.43375 -14.87109375 7.5625 C-14.35289465 4.64938073 -13.4633706 3.26050595 -11.4375 1.125 C-7.60562489 -0.1522917 -3.99041683 -0.02010286 0 0 Z " fill="#FF633D" transform="translate(484.4375,326.875)"/>
<path d="M0 0 C3.00521476 2.44173699 2.99839799 3.98758444 3.5 7.875 C3.31660357 11.50217387 2.41311394 14.21451411 -0.171875 16.92578125 C-4.1405289 19.25778942 -8.61942992 18.89771313 -13 18 C-16.05883535 15.52379996 -16.75599134 13.76456047 -17.9375 10.0625 C-18.01845612 6.09565029 -17.30047261 4.23503961 -15 1 C-9.6479627 -2.35814105 -5.62290979 -2.54550646 0 0 Z " fill="#FF633D" transform="translate(891,453)"/>
<path d="M0 0 C2.5647293 1.50012468 4.89183465 2.89183465 7 5 C7.64126224 9.94688013 7.72462965 13.79228391 5.125 18.125 C0.80794774 20.71523135 -3.06987261 20.79383407 -8 20 C-11.40756081 17.72829279 -11.8695411 16.82616857 -13 13 C-13.48342613 8.35910912 -12.87833987 5.70072269 -10 2 C-6.78144775 -0.33067577 -3.89509474 -0.46741137 0 0 Z " fill="#FF633D" transform="translate(982,403)"/>
<path d="M0 0 C2.8100346 1.79363911 4.50940468 3.01880935 6 6 C6.42792109 14.84370258 6.42792109 14.84370258 4 18 C1.00849567 20.30115717 -2.30751597 20.49843398 -6.02734375 20.359375 C-8 20 -8 20 -11 18.1875 C-13.91879037 13.53567785 -14.00379802 9.34810418 -13 4 C-9.6628078 -0.48435202 -5.26878881 -1.08568981 0 0 Z " fill="#FF633D" transform="translate(730,403)"/>
</svg>
