<?xml version="1.0" encoding="UTF-8"?>
<svg version="1.1" xmlns="http://www.w3.org/2000/svg" width="252" height="125">
<path d="M0 0 C3.48488515 1.99223329 6.19540905 4.3908181 8 8 C8.52071898 13.65781204 8.74744693 18.41978709 5 23 C2.93532144 25.40879165 2.11005341 25.96331553 -1 27 C-2.48570497 27.02439867 -3.97278338 26.99203778 -5.45703125 26.921875 C-6.75543945 26.88320313 -6.75543945 26.88320313 -8.08007812 26.84375 C-9.89059398 26.7816308 -11.70064152 26.70369574 -13.50976562 26.609375 C-17.93439186 26.50441722 -20.99846874 26.48277363 -24.51953125 29.359375 C-30.02329221 35.2184969 -30.47033752 40.0944031 -30.30078125 47.9296875 C-29.94902935 51.52029782 -28.97964842 53.99093441 -27 57 C-26.67 57.99 -26.34 58.98 -26 60 C-20.23229457 62.80640327 -14.29059972 62.01943062 -8.07617188 61.5703125 C-3.375188 61.40523406 -0.66008777 61.77688497 3.03515625 64.828125 C6.1244891 67.73838571 6.90104366 69.97085406 7.3125 74.25 C6.9513243 78.58410838 5.98265742 81.77809199 3 85 C-1.34260571 87.64060463 -4.97634726 88.42331192 -10 88.875 C-16.00934368 89.64201539 -19.09397687 90.33447237 -23 95 C-24.83585108 98.8526072 -25.46284628 102.55325104 -26.125 106.75 C-27.58572505 113.84495026 -30.27516879 118.51240338 -36 123 C-42.19061059 126.1720484 -49.7417133 126.0266743 -56.4140625 124.41796875 C-62.13375225 121.99979876 -65.47234362 117.56084403 -68 112 C-69.85961257 105.33464708 -69.27430224 99.10674363 -66 93 C-62.22272538 87.61136723 -57.88724811 84.93772045 -51.5390625 83.35546875 C-48.30764591 82.90307043 -45.50479337 83.15394218 -42.296875 83.66015625 C-37.07092737 84.4333832 -31.9845872 84.7442202 -27 82.875 C-24.31735871 80.36002379 -23.56988168 78.63299574 -23 75 C-24.12161224 71.75978686 -24.89193725 69.67036645 -27.87890625 67.86328125 C-32.25392359 66.08265725 -36.41973545 66.03448165 -40.81640625 67.6796875 C-44.15358846 69.12602094 -47.4009593 70.72754309 -50.64453125 72.37109375 C-58.5456637 76.20668424 -66.32801788 75.78649404 -74.58203125 73.03515625 C-82.56407571 69.61796436 -88.86105857 63.24480159 -92.140625 55.203125 C-94.39576409 46.79760656 -94.13497059 37.13861735 -90.390625 29.21484375 C-85.44048607 21.33077417 -78.67574096 16.89191365 -70 14 C-58.61248679 12.93858066 -50.57389113 15.40296523 -40.6875 20.8125 C-36.11634637 22.83231207 -32.48750131 22.49583377 -27.8125 20.9375 C-24.29498703 18.5143244 -22.81911831 15.73850298 -21 12 C-16.94534374 3.91753952 -16.94534374 3.91753952 -13.875 0.9375 C-9.21326193 -0.58263198 -4.83330062 -0.87689883 0 0 Z " fill="#040404" transform="translate(93,0)"/>
<path d="M0 0 C2.9375 2.125 2.9375 2.125 3.9375 4.125 C4.2675 2.475 4.5975 0.825 4.9375 -0.875 C7.5775 -0.875 10.2175 -0.875 12.9375 -0.875 C12.9375 14.635 12.9375 30.145 12.9375 46.125 C10.2975 46.125 7.6575 46.125 4.9375 46.125 C4.4425 44.145 4.4425 44.145 3.9375 42.125 C3.31875 42.74375 2.7 43.3625 2.0625 44 C-2.74245477 47.26736925 -7.72168645 48.58416395 -13.53515625 47.78515625 C-18.97674287 46.2498839 -21.99320168 43.99976791 -25.0625 39.125 C-29.33362177 30.72109238 -29.51427613 20.16020261 -26.9375 11.1875 C-24.8594659 5.93360246 -21.58020251 1.73353216 -16.8125 -1.3125 C-10.96876809 -2.5078088 -5.35593591 -2.95956871 0 0 Z M-17.0625 10.125 C-19.30056661 14.34733186 -19.39658068 18.44630767 -19.375 23.125 C-19.39111328 23.82367188 -19.40722656 24.52234375 -19.42382812 25.2421875 C-19.42900271 30.72724277 -18.0649655 33.78879025 -14.5625 37.875 C-11.49445667 40.43170277 -7.99450326 40.45681184 -4.1328125 40.4140625 C-0.73540042 39.93970685 1.37839215 38.30960426 3.9375 36.125 C5.36477587 31.84317238 5.16197769 27.73554564 5.1875 23.25 C5.208125 22.35152344 5.22875 21.45304687 5.25 20.52734375 C5.27914506 15.59454178 5.25047124 12.07269938 1.9375 8.125 C-4.24584877 4.00276749 -11.67650275 5.14295255 -17.0625 10.125 Z " fill="#0A0A0A" transform="translate(187.0625,16.875)"/>
<path d="M0 0 C1.7734375 1.63671875 1.7734375 1.63671875 3 3 C1.95125002 5.62187494 1.35068687 6.79371361 -1.125 8.25 C-1.74375 8.4975 -2.3625 8.745 -3 9 C-3.9075 8.360625 -4.815 7.72125 -5.75 7.0625 C-10.67651661 3.93605677 -14.15549687 3.69239457 -20 4 C-23.29106674 5.00857837 -23.29106674 5.00857837 -26 7 C-26.04080783 8.99958364 -26.04254356 11.00045254 -26 13 C-21.71269095 15.58793525 -16.87695314 16.00607135 -12.01953125 16.76757812 C-6.32280292 17.73848945 -0.7416917 19.27365259 3 24 C4.73436191 29.20308572 4.76981912 33.33205856 2.5 38.25 C-2.45485864 43.70034451 -8.15513025 45.58543744 -15.421875 46.03125 C-23.06814563 45.93856793 -30.16754022 44.17487853 -36 39 C-37.21875 36.8359375 -37.21875 36.8359375 -38 35 C-36.68 33.68 -35.36 32.36 -34 31 C-31.46481851 32.21688712 -29.36081324 33.46239043 -27.0625 35.125 C-21.43960504 38.41317118 -13.80186575 37.82487463 -7.60546875 36.48046875 C-7.07566406 36.32191406 -6.54585937 36.16335937 -6 36 C-5.14349347 33.19954954 -5.14349347 33.19954954 -5 30 C-6.67186069 27.4514903 -8.19109941 26.23897224 -11.12548828 25.37207031 C-13.72256542 24.84822951 -16.31941535 24.40596288 -18.9375 24 C-29.81032076 22.3067561 -29.81032076 22.3067561 -34 18 C-36.42563594 14.14103374 -36.23032145 10.52618981 -35.59765625 6.1484375 C-34.29819796 1.47718223 -30.9506004 -0.42567893 -27 -2.8125 C-18.21203444 -6.14388564 -7.99746355 -4.61629653 0 0 Z " fill="#0E0E0E" transform="translate(148,19)"/>
<path d="M0 0 C2.64 0 5.28 0 8 0 C8 5.28 8 10.56 8 16 C14.93 16 21.86 16 29 16 C29 18.31 29 20.62 29 23 C22.07 23 15.14 23 8 23 C8 33.89 8 44.78 8 56 C14.93 56 21.86 56 29 56 C29 58.31 29 60.62 29 63 C25.10473501 63.1746354 21.2104781 63.28096492 17.3125 63.375 C16.20970703 63.42527344 15.10691406 63.47554687 13.97070312 63.52734375 C12.3706543 63.55634766 12.3706543 63.55634766 10.73828125 63.5859375 C9.75899658 63.6173584 8.77971191 63.6487793 7.77075195 63.68115234 C4.50049796 62.8772041 2.94497484 61.50631335 0.94465637 58.81161499 C-0.70616907 55.64574409 -0.61389476 52.44584847 -0.48828125 48.9765625 C-0.47766914 47.85729874 -0.47766914 47.85729874 -0.46684265 46.71542358 C-0.43903177 44.35089408 -0.376328 41.9888037 -0.3125 39.625 C-0.2873995 38.01435732 -0.26458939 36.40367721 -0.24414062 34.79296875 C-0.19351412 30.8603022 -0.09566402 26.93285399 0 23 C-4.95 23 -9.9 23 -15 23 C-15 20.69 -15 18.38 -15 16 C-10.38 15.67 -5.76 15.34 -1 15 C-0.67 10.05 -0.34 5.1 0 0 Z " fill="#060606" transform="translate(223,0)"/>
<path d="M0 0 C0.99 0 1.98 0 3 0 C3.495 1.485 3.495 1.485 4 3 C6.50447516 4.21869929 6.50447516 4.21869929 9 5 C9 7.97 9 10.94 9 14 C8.01 14 7.02 14 6 14 C6 11.36 6 8.72 6 6 C5.01 6 4.02 6 3 6 C3 8.64 3 11.28 3 14 C2.443125 13.814375 1.88625 13.62875 1.3125 13.4375 C-1.03287582 12.84408398 -1.03287582 12.84408398 -3.5 13.5 C-6.09822907 14.01964581 -7.5200301 13.82665663 -10 13 C-10.33 11.02 -10.66 9.04 -11 7 C-12.65 10.3 -14.3 13.6 -16 17 C-17.32 17 -18.64 17 -20 17 C-20 16.34 -20 15.68 -20 15 C-19.34 14.67 -18.68 14.34 -18 14 C-19.30155006 9.92035719 -19.30155006 9.92035719 -21 6 C-21.99 6.33 -22.98 6.66 -24 7 C-24.73323796 9.01508358 -24.73323796 9.01508358 -25 11 C-24.01 11 -23.02 11 -22 11 C-22 11.99 -22 12.98 -22 14 C-24.97 14 -27.94 14 -31 14 C-30.67 13.01 -30.34 12.02 -30 11 C-29.34 11 -28.68 11 -28 11 C-28 9.35 -28 7.7 -28 6 C-28.99 6 -29.98 6 -31 6 C-31 5.34 -31 4.68 -31 4 C-26.71 4 -22.42 4 -18 4 C-17.34 5.32 -16.68 6.64 -16 8 C-15.34 6.68 -14.68 5.36 -14 4 C-9.38 4 -4.76 4 0 4 C0 2.68 0 1.36 0 0 Z " fill="#262626" transform="translate(171,100)"/>
<path d="M0 0 C0.99 0 1.98 0 3 0 C3 0.99 3 1.98 3 3 C4.32 3 5.64 3 7 3 C7 3.66 7 4.32 7 5 C5.68 5 4.36 5 3 5 C3 6.98 3 8.96 3 11 C4.32 11 5.64 11 7 11 C7 11.66 7 12.32 7 13 C5.00045254 13.04254356 2.99958364 13.04080783 1 13 C0 12 0 12 -0.0625 8.4375 C-0.041875 7.303125 -0.02125 6.16875 0 5 C-2.31 5.33 -4.62 5.66 -7 6 C-7 7.65 -7 9.3 -7 11 C-6.01 11 -5.02 11 -4 11 C-4 11.66 -4 12.32 -4 13 C-12.25 13 -20.5 13 -29 13 C-29 10.69 -29 8.38 -29 6 C-29.66 6 -30.32 6 -31 6 C-31 8.31 -31 10.62 -31 13 C-31.66 13 -32.32 13 -33 13 C-33 9.7 -33 6.4 -33 3 C-30.03 3 -27.06 3 -24 3 C-23.34 4.32 -22.68 5.64 -22 7 C-21.01 6.67 -20.02 6.34 -19 6 C-19.99 6 -20.98 6 -22 6 C-21.67 5.01 -21.34 4.02 -21 3 C-18.625 2.875 -18.625 2.875 -16 3 C-14 5 -14 5 -13.875 8.125 C-13.91625 9.07375 -13.9575 10.0225 -14 11 C-12.68 11 -11.36 11 -10 11 C-10 9.02 -10 7.04 -10 5 C-10.99 5 -11.98 5 -13 5 C-13 4.34 -13 3.68 -13 3 C-8.71 3 -4.42 3 0 3 C0 2.01 0 1.02 0 0 Z M-20 9 C-20 9.66 -20 10.32 -20 11 C-19.01 11 -18.02 11 -17 11 C-17 10.34 -17 9.68 -17 9 C-17.99 9 -18.98 9 -20 9 Z " fill="#3B3B3B" transform="translate(155,86)"/>
<path d="M0 0 C0.99 0 1.98 0 3 0 C3.33 0.99 3.66 1.98 4 3 C6.50447516 4.21869929 6.50447516 4.21869929 9 5 C9 7.97 9 10.94 9 14 C8.01 14 7.02 14 6 14 C6 11.36 6 8.72 6 6 C5.01 6 4.02 6 3 6 C3 8.64 3 11.28 3 14 C2.4225 13.814375 1.845 13.62875 1.25 13.4375 C-1.30393357 12.7761831 -1.30393357 12.7761831 -5 14 C-4.34 10.7 -3.68 7.4 -3 4 C-2.01 4 -1.02 4 0 4 C0 2.68 0 1.36 0 0 Z " fill="#333333" transform="translate(171,100)"/>
<path d="M0 0 C-0.99 0.495 -0.99 0.495 -2 1 C-1.67 1.99 -1.34 2.98 -1 4 C-1 5.32 -1 6.64 -1 8 C-0.79375 8.70125 -0.5875 9.4025 -0.375 10.125 C-0.25125 10.74375 -0.1275 11.3625 0 12 C-2 14 -2 14 -5.5625 14.1875 C-9 14 -9 14 -10 13 C-10.12487758 11.19072719 -10.17570846 9.37603893 -10.1875 7.5625 C-10.20167969 6.57378906 -10.21585938 5.58507812 -10.23046875 4.56640625 C-10 2 -10 2 -8 0 C-4.98413546 -1.105817 -3.03916514 -0.97687451 0 0 Z M-6 2 C-6.33 2.99 -6.66 3.98 -7 5 C-6.01 5 -5.02 5 -4 5 C-4.33 4.01 -4.66 3.02 -5 2 C-5.33 2 -5.66 2 -6 2 Z M-7 10 C-7 10.66 -7 11.32 -7 12 C-6.01 12 -5.02 12 -4 12 C-4 11.34 -4 10.68 -4 10 C-4.99 10 -5.98 10 -7 10 Z " fill="#1D1D1D" transform="translate(180,74)"/>
<path d="M0 0 C4.29 0 8.58 0 13 0 C13.99 1.98 14.98 3.96 16 6 C14.68 6 13.36 6 12 6 C11.34 4.68 10.68 3.36 10 2 C9.01 2.33 8.02 2.66 7 3 C6.26676204 5.01508358 6.26676204 5.01508358 6 7 C6.99 7 7.98 7 9 7 C9 7.99 9 8.98 9 10 C6.03 10 3.06 10 0 10 C0.33 9.01 0.66 8.02 1 7 C1.66 7 2.32 7 3 7 C3 5.35 3 3.7 3 2 C2.01 2 1.02 2 0 2 C0 1.34 0 0.68 0 0 Z " fill="#424242" transform="translate(140,104)"/>
<path d="M0 0 C0.09765625 6.15234375 0.09765625 6.15234375 0 8 C-1 9 -1 9 -3.9375 9.1875 C-7 9 -7 9 -9 7 C-9.33333333 1.66666667 -9.33333333 1.66666667 -8 -1 C-4.37673261 -2.2077558 -3.35853631 -1.54311128 0 0 Z M-6 5 C-5.34 5.66 -4.68 6.32 -4 7 C-3.34 6.34 -2.68 5.68 -2 5 C-3.32 5 -4.64 5 -6 5 Z " fill="#212121" transform="translate(209,105)"/>
<path d="M0 0 C1.25 6.625 1.25 6.625 -1 10 C-3.5 10.3125 -3.5 10.3125 -6 10 C-8 8 -8 8 -8.125 4.375 C-8.08375 3.26125 -8.0425 2.1475 -8 1 C-4.93251126 -0.86240388 -3.40254489 -1.2151946 0 0 Z M-5 6 C-4.34 6.66 -3.68 7.32 -3 8 C-2.67 7.34 -2.34 6.68 -2 6 C-2.99 6 -3.98 6 -5 6 Z " fill="#2D2D2D" transform="translate(139,104)"/>
<path d="M0 0 C0.7425 0.391875 1.485 0.78375 2.25 1.1875 C2.34765625 7.33984375 2.34765625 7.33984375 2.25 9.1875 C1.25 10.1875 1.25 10.1875 -1.6875 10.4375 C-2.698125 10.355 -3.70875 10.2725 -4.75 10.1875 C-6.89762184 6.96606724 -7.311068 5.9279533 -6.75 2.1875 C-4.35473374 -0.56262052 -3.55577952 -1.05057122 0 0 Z M-3.75 6.1875 C-3.42 6.8475 -3.09 7.5075 -2.75 8.1875 C-1.76 7.8575 -0.77 7.5275 0.25 7.1875 C-1.07 6.8575 -2.39 6.5275 -3.75 6.1875 Z " fill="#191919" transform="translate(118.75,103.8125)"/>
<path d="M0 0 C2.25 2 2.25 2 2.6875 5.0625 C2.25 8 2.25 8 0.25 10 C-2.25 10.25 -2.25 10.25 -4.75 10 C-6.75 8 -6.75 8 -6.875 4.375 C-6.83375 3.26125 -6.7925 2.1475 -6.75 1 C-4.01362918 -0.92559428 -3.22437177 -1.17249883 0 0 Z M-3.75 6 C-3.09 6.66 -2.43 7.32 -1.75 8 C-1.42 7.34 -1.09 6.68 -0.75 6 C-1.74 6 -2.73 6 -3.75 6 Z " fill="#2D2D2D" transform="translate(187.75,104)"/>
<path d="M0 0 C2.5 0.25 2.5 0.25 4.5 2.25 C4.5 3.57 4.5 4.89 4.5 6.25 C2.52 6.25 0.54 6.25 -1.5 6.25 C-1.5 6.91 -1.5 7.57 -1.5 8.25 C0.48 7.92 2.46 7.59 4.5 7.25 C4.17 8.24 3.84 9.23 3.5 10.25 C1.1875 10.9375 1.1875 10.9375 -1.5 11.25 C-3.3125 10.1875 -3.3125 10.1875 -4.5 8.25 C-4.8125 5.1875 -4.8125 5.1875 -4.5 2.25 C-2.5 0.25 -2.5 0.25 0 0 Z M-0.5 2.25 C-0.83 2.91 -1.16 3.57 -1.5 4.25 C-0.51 3.92 0.48 3.59 1.5 3.25 C0.84 2.92 0.18 2.59 -0.5 2.25 Z " fill="#1B1B1B" transform="translate(126.5,73.75)"/>
<path d="M0 0 C1.4540625 0.0309375 1.4540625 0.0309375 2.9375 0.0625 C3.71592938 3.46812852 4.03728121 6.57015756 3.9375 10.0625 C1.125 10.75 1.125 10.75 -2.0625 11.0625 C-3.9375 9.625 -3.9375 9.625 -5.0625 8.0625 C-3.7425 7.7325 -2.4225 7.4025 -1.0625 7.0625 C-2.0525 6.7325 -3.0425 6.4025 -4.0625 6.0625 C-4.105221 4.39638095 -4.10313832 2.72867115 -4.0625 1.0625 C-3.0625 0.0625 -3.0625 0.0625 0 0 Z M-1.0625 2.0625 C-1.0625 2.7225 -1.0625 3.3825 -1.0625 4.0625 C-0.0725 3.7325 0.9175 3.4025 1.9375 3.0625 C0.9475 2.7325 -0.0425 2.4025 -1.0625 2.0625 Z " fill="#262626" transform="translate(146.0625,73.9375)"/>
<path d="M0 0 C2.97 0 5.94 0 9 0 C9 3.3 9 6.6 9 10 C7.35 10 5.7 10 4 10 C4 7.69 4 5.38 4 3 C3.34 3 2.68 3 2 3 C2 5.31 2 7.62 2 10 C1.34 10 0.68 10 0 10 C0 6.7 0 3.4 0 0 Z " fill="#141414" transform="translate(122,89)"/>
<path d="M0 0 C2.33944736 0.28730055 4.6739143 0.61936779 7 1 C7 1.66 7 2.32 7 3 C5.35 3 3.7 3 2 3 C4.475 3.99 4.475 3.99 7 5 C6.67 6.65 6.34 8.3 6 10 C3.6875 10.625 3.6875 10.625 1 11 C0.01 10.34 -0.98 9.68 -2 9 C-2 8.34 -2 7.68 -2 7 C-0.68 7 0.64 7 2 7 C1.01 6.67 0.02 6.34 -1 6 C-1.042721 4.33388095 -1.04063832 2.66617115 -1 1 C-0.67 0.67 -0.34 0.34 0 0 Z " fill="#212121" transform="translate(114,74)"/>
<path d="M0 0 C3.3 0 6.6 0 10 0 C10 0.66 10 1.32 10 2 C9.01 2.33 8.02 2.66 7 3 C6.26676204 5.01508358 6.26676204 5.01508358 6 7 C6.99 7 7.98 7 9 7 C9 7.99 9 8.98 9 10 C6.03 10 3.06 10 0 10 C0.33 9.01 0.66 8.02 1 7 C1.66 7 2.32 7 3 7 C3 5.35 3 3.7 3 2 C2.01 2 1.02 2 0 2 C0 1.34 0 0.68 0 0 Z " fill="#575757" transform="translate(190,104)"/>
<path d="M0 0 C1.98 0 3.96 0 6 0 C6.33 0.99 6.66 1.98 7 3 C5.35 2.67 3.7 2.34 2 2 C2 2.66 2 3.32 2 4 C3.65 4.33 5.3 4.66 7 5 C6.67 6.65 6.34 8.3 6 10 C3.69 10 1.38 10 -1 10 C-1.33 9.01 -1.66 8.02 -2 7 C0.97 7.495 0.97 7.495 4 8 C4 7.34 4 6.68 4 6 C2.35 5.67 0.7 5.34 -1 5 C-0.67 3.35 -0.34 1.7 0 0 Z " fill="#212121" transform="translate(114,89)"/>
<path d="M0 0 C2.33294775 -0.04241723 4.66702567 -0.04092937 7 0 C8 1 8 1 8.09765625 3.06640625 C8.08605469 3.89011719 8.07445312 4.71382813 8.0625 5.5625 C8.05347656 6.38878906 8.04445312 7.21507813 8.03515625 8.06640625 C8.02355469 8.70449219 8.01195312 9.34257813 8 10 C7.34 10 6.68 10 6 10 C6 7.69 6 5.38 6 3 C5.01 3 4.02 3 3 3 C3 5.31 3 7.62 3 10 C2.01 10 1.02 10 0 10 C0 6.7 0 3.4 0 0 Z " fill="#1C1C1C" transform="translate(132,74)"/>
<path d="M0 0 C2.33294775 -0.04241723 4.66702567 -0.04092937 7 0 C8 1 8 1 8.09765625 3.06640625 C8.08605469 3.89011719 8.07445312 4.71382813 8.0625 5.5625 C8.05347656 6.38878906 8.04445312 7.21507813 8.03515625 8.06640625 C8.02355469 8.70449219 8.01195312 9.34257813 8 10 C7.01 10 6.02 10 5 10 C5 7.69 5 5.38 5 3 C4.01 3 3.02 3 2 3 C2 5.31 2 7.62 2 10 C1.34 10 0.68 10 0 10 C0 6.7 0 3.4 0 0 Z " fill="#333333" transform="translate(161,74)"/>
<path d="M0 0 C0.99 0.33 1.98 0.66 3 1 C3 2.32 3 3.64 3 5 C3.66 5 4.32 5 5 5 C5.33 3.35 5.66 1.7 6 0 C6.99 0.33 7.98 0.66 9 1 C8.01 3.97 7.02 6.94 6 10 C4.68 9.67 3.36 9.34 2 9 C0.21715186 5.70173093 0 3.8225249 0 0 Z " fill="#292929" transform="translate(122,104)"/>
<path d="M0 0 C2.97 0 5.94 0 9 0 C9 0.66 9 1.32 9 2 C7.68 2 6.36 2 5 2 C5 3.65 5 5.3 5 7 C5.99 7 6.98 7 8 7 C8 7.66 8 8.32 8 9 C5.36 9 2.72 9 0 9 C0 8.34 0 7.68 0 7 C0.66 7 1.32 7 2 7 C2 5.02 2 3.04 2 1 C1.34 0.67 0.68 0.34 0 0 Z " fill="#1A1A1A" transform="translate(143,90)"/>
<path d="M0 0 C0.33 0 0.66 0 1 0 C1 4.62 1 9.24 1 14 C-1 14 -3 14 -5 14 C-4.34 10.7 -3.68 7.4 -3 4 C-2.01 4 -1.02 4 0 4 C0 2.68 0 1.36 0 0 Z " fill="#4E4E4E" transform="translate(171,100)"/>
<path d="M0 0 C1.98 0 3.96 0 6 0 C6 2.64 6 5.28 6 8 C6.99 8 7.98 8 9 8 C9 8.66 9 9.32 9 10 C6.03 10 3.06 10 0 10 C0 9.34 0 8.68 0 8 C1.32 8 2.64 8 4 8 C4 6.35 4 4.7 4 3 C2.68 3 1.36 3 0 3 C0 2.01 0 1.02 0 0 Z " fill="#0F0F0F" transform="translate(151,74)"/>
<path d="M0 0 C1.5 1.375 1.5 1.375 3 3 C3 3.66 3 4.32 3 5 C3.99 5 4.98 5 6 5 C6.33 4.34 6.66 3.68 7 3 C7.99 3 8.98 3 10 3 C9.34 4.32 8.68 5.64 8 7 C5.66705225 7.04241723 3.33297433 7.04092937 1 7 C0 6 0 6 -0.0625 2.9375 C-0.041875 1.968125 -0.02125 0.99875 0 0 Z " fill="#353535" transform="translate(170,81)"/>
<path d="M0 0 C-0.33 1.65 -0.66 3.3 -1 5 C-3.3125 5.625 -3.3125 5.625 -6 6 C-6.99 5.34 -7.98 4.68 -9 4 C-9 3.34 -9 2.68 -9 2 C-8.401875 1.855625 -7.80375 1.71125 -7.1875 1.5625 C-1.11111111 0 -1.11111111 0 0 0 Z " fill="#2D2D2D" transform="translate(121,79)"/>
<path d="M0 0 C0.66 0.33 1.32 0.66 2 1 C2 2.65 2 4.3 2 6 C3.32 6 4.64 6 6 6 C6 6.66 6 7.32 6 8 C3.03 8 0.06 8 -3 8 C-2.67 7.01 -2.34 6.02 -2 5 C-1.34 5 -0.68 5 0 5 C0 3.35 0 1.7 0 0 Z " fill="#2A2A2A" transform="translate(143,106)"/>
<path d="M0 0 C-0.99 0.495 -0.99 0.495 -2 1 C-2 1.66 -2 2.32 -2 3 C-3.65 3 -5.3 3 -7 3 C-7.66 4.32 -8.32 5.64 -9 7 C-9.125 1.25 -9.125 1.25 -8 -1 C-4.37673261 -2.2077558 -3.35853631 -1.54311128 0 0 Z " fill="#434343" transform="translate(209,105)"/>
<path d="M0 0 C0.66 0 1.32 0 2 0 C3.13016601 5.02296004 2.77916092 8.97874074 2 14 C1.34 14 0.68 14 0 14 C0 9.38 0 4.76 0 0 Z " fill="#1B1B1B" transform="translate(172,100)"/>
<path d="M0 0 C2.31 0 4.62 0 7 0 C6.67 1.65 6.34 3.3 6 5 C4.02 5 2.04 5 0 5 C-0.33 4.01 -0.66 3.02 -1 2 C-0.67 1.34 -0.34 0.68 0 0 Z M1 1 C1.33 1.66 1.66 2.32 2 3 C2.99 2.67 3.98 2.34 5 2 C3.68 1.67 2.36 1.34 1 1 Z " fill="#2A2A2A" transform="translate(114,109)"/>
<path d="M0 0 C-0.99 0.495 -0.99 0.495 -2 1 C-1.67 1.99 -1.34 2.98 -1 4 C-1.33 4.99 -1.66 5.98 -2 7 C-3.32 6.34 -4.64 5.68 -6 5 C-5.34 5 -4.68 5 -4 5 C-5.32 3.35 -6.64 1.7 -8 0 C-4.94736336 -0.98120464 -3.05263664 -0.98120464 0 0 Z " fill="#282828" transform="translate(180,74)"/>
<path d="M0 0 C1.32 0 2.64 0 4 0 C3.67 2.31 3.34 4.62 3 7 C1.35 7.33 -0.3 7.66 -2 8 C-2 7.34 -2 6.68 -2 6 C-1.34 5.67 -0.68 5.34 0 5 C0 3.35 0 1.7 0 0 Z " fill="#191919" transform="translate(153,109)"/>
<path d="M0 0 C0.33 0 0.66 0 1 0 C1 2.31 1 4.62 1 7 C2.32 7 3.64 7 5 7 C5 7.66 5 8.32 5 9 C2.03 9 -0.94 9 -4 9 C-4 8.34 -4 7.68 -4 7 C-2.68 7 -1.36 7 0 7 C0 4.69 0 2.38 0 0 Z " fill="#212121" transform="translate(194,105)"/>
<path d="M0 0 C1.66611905 -0.042721 3.33382885 -0.04063832 5 0 C6 1 6 1 6.09765625 2.84765625 C6.06510417 4.8984375 6.03255208 6.94921875 6 9 C5.67 8.01 5.34 7.02 5 6 C4.01 5.67 3.02 5.34 2 5 C2.99 5 3.98 5 5 5 C5 4.01 5 3.02 5 2 C3.02 2.33 1.04 2.66 -1 3 C-0.67 2.01 -0.34 1.02 0 0 Z " fill="#161616" transform="translate(134,89)"/>
<path d="M0 0 C1.98 0 3.96 0 6 0 C5.01 0.33 4.02 0.66 3 1 C3 1.66 3 2.32 3 3 C3.99 3 4.98 3 6 3 C6 3.66 6 4.32 6 5 C4.02 5 2.04 5 0 5 C0 3.35 0 1.7 0 0 Z " fill="#1D1D1D" transform="translate(142,75)"/>
<path d="M0 0 C1.65 0 3.3 0 5 0 C5.66 1.32 6.32 2.64 7 4 C6.2575 3.814375 5.515 3.62875 4.75 3.4375 C2.05009037 3.00796892 0.55368923 3.14877026 -2 4 C-1.34 2.68 -0.68 1.36 0 0 Z " fill="#2E2E2E" transform="translate(124,74)"/>
<path d="M0 0 C2.375 0.1875 2.375 0.1875 5 1 C6.3125 3.5625 6.3125 3.5625 7 6 C5.68 6 4.36 6 3 6 C0 2.78571429 0 2.78571429 0 0 Z " fill="#343434" transform="translate(149,104)"/>
<path d="M0 0 C1.98 0 3.96 0 6 0 C6.33 0.99 6.66 1.98 7 3 C5.35 2.67 3.7 2.34 2 2 C2 2.66 2 3.32 2 4 C1.34 4 0.68 4 0 4 C0 2.68 0 1.36 0 0 Z " fill="#292929" transform="translate(114,89)"/>
<path d="M0 0 C1.32 0 2.64 0 4 0 C3.02391783 2.92824652 1.89213369 4.61426621 0 7 C-1.125 2.25 -1.125 2.25 0 0 Z " fill="#3C3C3C" transform="translate(157,104)"/>
<path d="M0 0 C1.98 0 3.96 0 6 0 C7.04449911 3.13349732 6.93423645 3.98968256 6 7 C4.68 6.67 3.36 6.34 2 6 C2.99 6 3.98 6 5 6 C5 5.01 5 4.02 5 3 C2.525 2.01 2.525 2.01 0 1 C0 0.67 0 0.34 0 0 Z " fill="#4D4D4D" transform="translate(143,74)"/>
<path d="M0 0 C0.93423645 3.01031744 1.04449911 3.86650268 0 7 C-4.875 5.25 -4.875 5.25 -6 3 C-4.02 3 -2.04 3 0 3 C0 2.01 0 1.02 0 0 Z " fill="#434343" transform="translate(189,106)"/>
<path d="M0 0 C2.31 0.66 4.62 1.32 7 2 C7 2.66 7 3.32 7 4 C5.35 4 3.7 4 2 4 C1.34 2.68 0.68 1.36 0 0 Z " fill="#212121" transform="translate(181,110)"/>
<path d="M0 0 C2.475 0.99 2.475 0.99 5 2 C4.67 2.99 4.34 3.98 4 5 C2.35 5 0.7 5 -1 5 C-0.67 4.34 -0.34 3.68 0 3 C0.66 3.33 1.32 3.66 2 4 C2 3.34 2 2.68 2 2 C1.34 2 0.68 2 0 2 C0 1.34 0 0.68 0 0 Z " fill="#5E5E5E" transform="translate(116,103)"/>
<path d="M0 0 C0.66 0.33 1.32 0.66 2 1 C-0.31 3.31 -2.62 5.62 -5 8 C-5 5 -5 5 -2.5 2.3125 C-1.675 1.549375 -0.85 0.78625 0 0 Z " fill="#2D2D2D" transform="translate(119,17)"/>
<path d="M0 0 C0.99 0 1.98 0 3 0 C3 0.99 3 1.98 3 3 C2.01 3 1.02 3 0 3 C0 2.01 0 1.02 0 0 Z " fill="#353535" transform="translate(154,70)"/>
</svg>
