<?xml version="1.0" encoding="UTF-8"?>
<svg version="1.1" xmlns="http://www.w3.org/2000/svg" width="186" height="50">
<path d="M0 0 C16.5 0 33 0 50 0 C50 16.5 50 33 50 50 C33.5 50 17 50 0 50 C0 33.5 0 17 0 0 Z M15 3 C15.03222656 3.76183594 15.06445312 4.52367187 15.09765625 5.30859375 C15.02315562 11.9391502 14.26088547 15.50977635 9.4375 20.25 C7.98357541 21.52927218 6.51223345 22.79021324 5 24 C6.3753918 27.20694369 7.86280125 28.83573211 10.5625 31 C14.81142217 35.02854239 14.86787987 38.97052574 15.02734375 44.62109375 C15.01832031 45.40613281 15.00929688 46.19117188 15 47 C15.66 47 16.32 47 17 47 C17.75459717 41.49423547 18.34465633 36.87937347 14.99609375 32.19921875 C12.7484634 29.99379742 10.47528963 27.94487042 8 26 C9.38221155 22.76087799 10.88669805 21.1635966 13.625 19 C16.19206334 16.57112227 16.93757436 15.42630843 17.45703125 11.87890625 C17.43943092 8.89036995 17.30743997 5.9719197 17 3 C16.34 3 15.68 3 15 3 Z M20 3 C20 7.62 20 12.24 20 17 C20.33 17 20.66 17 21 17 C21 12.38 21 7.76 21 3 C20.67 3 20.34 3 20 3 Z M24 3 C23.98582031 4.09699219 23.97164062 5.19398438 23.95703125 6.32421875 C23.91011292 7.77868698 23.86186562 9.23311277 23.8125 10.6875 C23.80669922 11.40873047 23.80089844 12.12996094 23.79492188 12.87304688 C23.61947196 17.14232808 23.32567086 18.61448151 20.44921875 22.01953125 C19.64097656 22.67308594 18.83273438 23.32664062 18 24 C19.28321787 26.93147782 19.28321787 26.93147782 21.53125 29.125 C23.87189269 32.1130545 23.57584169 35.53467802 23.6875 39.1875 C23.72166016 39.93708984 23.75582031 40.68667969 23.79101562 41.45898438 C23.87334294 43.30546838 23.93835281 45.15270994 24 47 C24.66 47 25.32 47 26 47 C26.02126953 45.35451172 26.02126953 45.35451172 26.04296875 43.67578125 C26.08988708 42.22131302 26.13813438 40.76688723 26.1875 39.3125 C26.19330078 38.59126953 26.19910156 37.87003906 26.20507812 37.12695312 C26.38052804 32.85767192 26.67432914 31.38551849 29.55078125 27.98046875 C30.35902344 27.32691406 31.16726562 26.67335938 32 26 C30.71678213 23.06852218 30.71678213 23.06852218 28.46875 20.875 C26.12810731 17.8869455 26.42415831 14.46532198 26.3125 10.8125 C26.27833984 10.06291016 26.24417969 9.31332031 26.20898438 8.54101562 C26.12665706 6.69453162 26.06164719 4.84729006 26 3 C25.34 3 24.68 3 24 3 Z M29 3 C29 7.62 29 12.24 29 17 C29.33 17 29.66 17 30 17 C30 12.38 30 7.76 30 3 C29.67 3 29.34 3 29 3 Z M33 3 C32.24540283 8.50576453 31.65534367 13.12062653 35.00390625 17.80078125 C37.2515366 20.00620258 39.52471037 22.05512958 42 24 C40.61778845 27.23912201 39.11330195 28.8364034 36.375 31 C33.80793666 33.42887773 33.06242564 34.57369157 32.54296875 38.12109375 C32.56056908 41.10963005 32.69256003 44.0280803 33 47 C33.66 47 34.32 47 35 47 C34.96777344 46.23816406 34.93554688 45.47632813 34.90234375 44.69140625 C34.97684438 38.0608498 35.73911453 34.49022365 40.5625 29.75 C42.01642459 28.47072782 43.48776655 27.20978676 45 26 C43.6246082 22.79305631 42.13719875 21.16426789 39.4375 19 C35.18857783 14.97145761 35.13212013 11.02947426 34.97265625 5.37890625 C34.98167969 4.59386719 34.99070313 3.80882812 35 3 C34.34 3 33.68 3 33 3 Z M12.875 22 C12.25625 22.66 11.6375 23.32 11 24 C12.21759459 27.16574593 13.3232355 28.25726907 16.0625 30.4375 C20.17805621 34.29270473 19.81265885 39.01723373 19.9921875 44.3671875 C19.99476562 45.23601563 19.99734375 46.10484375 20 47 C20.33 47 20.66 47 21 47 C22.01124582 38.42190146 22.01124582 38.42190146 19.44140625 30.51171875 C17.70723097 28.82639348 15.99942452 27.35675235 14 26 C15 24 16 22 17 20 C14.75637427 19.7715451 14.75637427 19.7715451 12.875 22 Z M37 24 C38 26 38 26 38 26 Z M29 33 C29 37.62 29 42.24 29 47 C29.33 47 29.66 47 30 47 C30 42.38 30 37.76 30 33 C29.67 33 29.34 33 29 33 Z " fill="#0099DB" transform="translate(0,0)"/>
<path d="M0 0 C8.58 0 17.16 0 26 0 C26 2.97 26 5.94 26 9 C21.05 9 16.1 9 11 9 C11 9.99 11 10.98 11 12 C15.29 12 19.58 12 24 12 C24 14.97 24 17.94 24 21 C19.71 21 15.42 21 11 21 C11 22.32 11 23.64 11 25 C16.28 25 21.56 25 27 25 C27 27.97 27 30.94 27 34 C18.09 34 9.18 34 0 34 C0 22.78 0 11.56 0 0 Z " fill="#0099DB" transform="translate(121,8)"/>
<path d="M0 0 C4.08083897 2.02307881 6.03366491 3.86034719 8 8 C8 8.99 8 9.98 8 11 C4.37 11 0.74 11 -3 11 C-3.33 10.34 -3.66 9.68 -4 9 C-5.32 9.33 -6.64 9.66 -8 10 C-7.02417969 10.30292969 -6.04835938 10.60585938 -5.04296875 10.91796875 C-3.75750219 11.34020229 -2.47236257 11.76343206 -1.1875 12.1875 C-0.54490234 12.38408203 0.09769531 12.58066406 0.75976562 12.78320312 C3.94828038 13.85705524 5.80662657 14.7628366 7.94921875 17.390625 C9.58907268 21.46282734 9.29778591 24.84242237 8 29 C3.7365525 33.37276667 0.65136891 34.16895082 -5.3125 34.25 C-6.44300781 34.27578125 -7.57351562 34.3015625 -8.73828125 34.328125 C-13.17343813 33.88195353 -15.74901894 32.29411834 -18.8125 29.125 C-20 27 -20 27 -20 22 C-16.7 22 -13.4 22 -10 22 C-9.67 22.99 -9.34 23.98 -9 25 C-7.35 25 -5.7 25 -4 25 C-4 24.34 -4 23.68 -4 23 C-4.81984375 22.76925781 -5.6396875 22.53851562 -6.484375 22.30078125 C-15.21777778 19.65777778 -15.21777778 19.65777778 -18.75 16.6875 C-20.66649736 12.56703068 -20.58139615 9.09302615 -19.375 4.75 C-14.73919161 -1.15011977 -6.85467513 -0.94101866 0 0 Z " fill="#0099DB" transform="translate(77,8)"/>
<path d="M0 0 C5.0428125 -0.0928125 5.0428125 -0.0928125 10.1875 -0.1875 C11.76374146 -0.22846802 11.76374146 -0.22846802 13.37182617 -0.27026367 C22.12497867 -0.3483194 22.12497867 -0.3483194 26 3 C28.73004414 5.88570456 29.45074685 7.92243474 29.5 11.875 C29.39804712 15.50774201 28.97398424 17.70957556 26.6875 20.5625 C23.02617795 23.88323395 20.5768014 24.12437404 15.8125 24.0625 C14.224375 24.041875 12.63625 24.02125 11 24 C11 27.3 11 30.6 11 34 C7.37 34 3.74 34 0 34 C0 22.78 0 11.56 0 0 Z M11 9 C11 10.98 11 12.96 11 15 C14.465 14.505 14.465 14.505 18 14 C17.67 12.35 17.34 10.7 17 9 C15.02 9 13.04 9 11 9 Z " fill="#0099DB" transform="translate(89,8)"/>
<path d="M0 0 C1.51400391 0.01740234 1.51400391 0.01740234 3.05859375 0.03515625 C4.07050781 0.04417969 5.08242187 0.05320312 6.125 0.0625 C7.29869141 0.07990234 7.29869141 0.07990234 8.49609375 0.09765625 C11.34014337 6.99755982 13.89387723 13.95326831 16.24609375 21.03515625 C16.56191406 21.96650391 16.87773437 22.89785156 17.203125 23.85742188 C17.50089844 24.75009766 17.79867187 25.64277344 18.10546875 26.5625 C18.50717285 27.76314087 18.50717285 27.76314087 18.91699219 28.98803711 C19.49609375 31.09765625 19.49609375 31.09765625 19.49609375 34.09765625 C15.86609375 34.09765625 12.23609375 34.09765625 8.49609375 34.09765625 C8.16609375 32.77765625 7.83609375 31.45765625 7.49609375 30.09765625 C4.52609375 30.42765625 1.55609375 30.75765625 -1.50390625 31.09765625 C-1.99890625 32.58265625 -1.99890625 32.58265625 -2.50390625 34.09765625 C-6.13390625 34.09765625 -9.76390625 34.09765625 -13.50390625 34.09765625 C-12.91616837 26.93984853 -10.38591018 20.45568902 -8.00390625 13.72265625 C-7.58753906 12.52253906 -7.17117187 11.32242187 -6.7421875 10.0859375 C-3.25713497 0.12703335 -3.25713497 0.12703335 0 0 Z M2.49609375 13.09765625 C1.83609375 16.06765625 1.17609375 19.03765625 0.49609375 22.09765625 C2.14609375 22.09765625 3.79609375 22.09765625 5.49609375 22.09765625 C4.83609375 19.12765625 4.17609375 16.15765625 3.49609375 13.09765625 C3.16609375 13.09765625 2.83609375 13.09765625 2.49609375 13.09765625 Z " fill="#0099DB" transform="translate(164.50390625,7.90234375)"/>
<path d="M0 0 C2.62187494 1.04874998 3.79371361 1.64931313 5.25 4.125 C5.4975 4.74375 5.745 5.3625 6 6 C4.68 7.65 3.36 9.3 2 11 C-0.88437779 9.70700306 -2.87219421 8.34058637 -5 6 C-3.86695008 2.60085025 -2.87481525 1.94745549 0 0 Z M0 3 C0 4.32 0 5.64 0 7 C0.99 6.67 1.98 6.34 3 6 C2.67 5.01 2.34 4.02 2 3 C1.34 3 0.68 3 0 3 Z " fill="#0099DB" transform="translate(24,20)"/>
</svg>
